{
.formatVersion = 3;
axes = (
{
name = Weight;
tag = wght;
}
);
classes = (
{
code = "i zero one two three four five six seven eight nine zero.tf one.tf two.tf three.tf four.tf five.tf six.tf seven.tf eight.tf nine.tf middot bullet periodcentered.loclCAT";
name = aalt1;
},
{
code = "A Adieresis Edieresis Idieresis O Odieresis Udieresis Wdieresis Ydieresis a adieresis edieresis idieresis j o odieresis udieresis wdieresis ydieresis zero.numr one.numr two.numr three.numr four.numr five.numr six.numr seven.numr eight.numr nine.numr period colon semicolon ellipsis exclam exclamdown question questiondown slash periodcentered.loclCAT.case dieresis dotaccent";
name = aalt2;
},
{
code = "ordfeminine Adieresis.ss01 Edieresis.ss01 Idieresis.ss01 ordmasculine Odieresis.ss01 Udieresis.ss01 Wdieresis.ss01 Ydieresis.ss01 ordfeminine adieresis.ss01 edieresis.ss01 idieresis.ss01 j.ss01 ordmasculine odieresis.ss01 udieresis.ss01 wdieresis.ss01 ydieresis.ss01 zero.dnom one.dnom two.dnom three.dnom four.dnom five.dnom six.dnom seven.dnom eight.dnom nine.dnom period.ss01 colon.ss01 semicolon.ss01 ellipsis.ss01 exclam.ss01 exclamdown.ss01 question.ss01 questiondown.ss01 fraction periodcentered.loclCAT.case.ss01 dieresis.ss01 dotaccent.ss01";
name = aalt3;
},
{
code = "zero.dnom one.dnom two.dnom three.dnom four.dnom five.dnom six.dnom seven.dnom eight.dnom nine.dnom";
name = dnom1;
},
{
code = "zero one two three four five six seven eight nine";
name = numr1;
},
{
code = "zero.numr one.numr two.numr three.numr four.numr five.numr six.numr seven.numr eight.numr nine.numr";
name = numr2;
},
{
code = "zero.tf one.tf two.tf three.tf four.tf five.tf six.tf seven.tf eight.tf nine.tf";
name = pnum1;
},
{

glyphs = (
{
glyphname = A;
layers = (
{
layerId = "A4A8100D-CD7C-4210-8FBB-9BAC01333E3B";
shapes = (
{
closed = 1;
nodes = (
(208.412,116,l),
(155,0,l),
(-40,0,l),
(303.618,667,l),
(554.618,667,l),
(652,0,l),
(456,0,l),
(440.412,116,l)
);
},
{
closed = 1;
nodes = (
(387.671,500,l),
(269.664,243,l),
(424.664,243,l)
);
}
);
width = 712;
},
{
layerId = "9C97EF7B-4204-4453-A40E-5E225C581DA5";
shapes = (
{
closed = 1;
nodes = (
(165.803,202,l),
(55,0,l),
(-31,0,l),
(343.618,667,l),
(430.618,667,l),
(579,0,l),
(493,0,l),
(448.803,202,l)
);
},
{
closed = 1;
nodes = (
(369.724,578,l),
(204.685,273,l),
(434.685,273,l)
);
}
);
width = 648;
},
{
layerId = "4611C1FA-12BE-43C5-8830-F68BB93ACC2D";
shapes = (
{
closed = 1;
nodes = (
(156.648,219,l),
(35,0,l),
(-29,0,l),
(351.618,667,l),
(405.618,667,l),
(564,0,l),
(500,0,l),
(450.648,219,l)
);
},
{
closed = 1;
nodes = (
(366.234,593,l),
(191.689,279,l),
(436.689,279,l)
);
}
);
width = 635;
}
);
leftKerningGroup = _A1;
rightKerningGroup = _A;
unicode = 65;
},
{
glyphname = AE;
layers = (
{
layerId = "2C0B2ACE-7C1A-4B57-8C98-FB1544B085A1";
name = "#instance";
width = 878;
},
{
layerId = "A4A8100D-CD7C-4210-8FBB-9BAC01333E3B";
shapes = (
{
closed = 1;
nodes = (
(620.28,414,l),
(826.28,414,l),
(801.178,264,l),
(595.178,264,l),
(576.269,151,l),
(821.269,151,l),
(796,0,l),
(351,0,l),
(368.236,103,l),
(204.236,103,l),
(148,0,l),
(-60,0,l),
(311.618,667,l),
(907.618,667,l),
(882.349,516,l),
(637.349,516,l)
);
},
{
closed = 1;
nodes = (
(437.683,518,l),
(271.162,240,l),
(391.162,240,l)
);
}
);
width = 905;
},
{
layerId = "9C97EF7B-4204-4453-A40E-5E225C581DA5";
shapes = (
{
closed = 1;
nodes = (
(509.251,372,l),
(780.251,372,l),
(767.533,296,l),
(496.533,296,l),
(459.551,75,l),
(771.551,75,l),
(759,0,l),
(366,0,l),
(390.432,146,l),
(158.432,146,l),
(52,0,l),
(-39,0,l),
(455.618,667,l),
(870.618,667,l),
(858.234,593,l),
(546.234,593,l)
);
},
{
closed = 1;
nodes = (
(458.875,555,l),
(213.317,223,l),
(403.317,223,l)
);
}
);
width = 883;
},
{
layerId = "4611C1FA-12BE-43C5-8830-F68BB93ACC2D";
shapes = (
{
closed = 1;
nodes = (
(486.745,363,l),
(770.745,363,l),
(760.537,302,l),
(476.537,302,l),
(436.041,60,l),
(761.041,60,l),
(751,0,l),
(369,0,l),
(394.771,154,l),
(148.771,154,l),
(33,0,l),
(-35,0,l),
(484.618,667,l),
(862.618,667,l),
(852.744,608,l),
(527.744,608,l)
);
},
{
closed = 1;
nodes = (
(463.047,562,l),
(201.648,219,l),
(405.648,219,l)
);
}
);
width = 878;
}
);
leftKerningGroup = _A1;
unicode = 198;
},
{
glyphname = B;
layers = (
{
layerId = "2C0B2ACE-7C1A-4B57-8C98-FB1544B085A1";
name = "#instance";
shapes = (
{
closed = 1;
nodes = (
(617,75,o),
(497,0,o),
(355,0,cs),
(15,0,l),
(127,667,l),
(375,667,ls),
(597,667,o),
(678,618,o),
(656,494,cs),
(645,432,o),
(609,387,o),
(547,357,c),
(619,336,o),
(651,280,o),
(639,208,cs)
);
},
{
closed = 1;
nodes = (
(459,495,o),
(431,526,o),
(400,526,cs),
(304,526,l),
(283,401,l),
(354,401,ls),
(373,401,o),
(444,392,o),
(455,467,cs)
);
},
{
closed = 1;
nodes = (
(440,258,o),
(413,284,o),
(373,284,cs),
(264,284,l),
(239,140,l),
(314,140,ls),
(351,140,o),
(419,132,o),
(433,215,cs)
);
}
);
width = 690;
},
{
layerId = "A4A8100D-CD7C-4210-8FBB-9BAC01333E3B";
shapes = (
{
closed = 1;
nodes = (
(617,75,o),
(497,0,o),
(355,0,cs),
(15,0,l),
(127,667,l),
(375,667,ls),
(597,667,o),
(678,618,o),
(656,494,cs),
(645,432,o),
(609,387,o),
(547,357,c),
(619,336,o),
(651,280,o),
(639,208,cs)
);
},
{
closed = 1;
nodes = (
(459,495,o),
(431,526,o),
(400,526,cs),
(304,526,l),
(283,401,l),
(354,401,ls),
(373,401,o),
(444,392,o),
(455,467,cs)
);
},
{
closed = 1;
nodes = (
(440,258,o),
(413,284,o),
(373,284,cs),
(264,284,l),
(239,140,l),
(314,140,ls),
(351,140,o),
(419,132,o),
(433,215,cs)
);
}
);
width = 690;
},
{
layerId = "9C97EF7B-4204-4453-A40E-5E225C581DA5";
shapes = (
{
closed = 1;
nodes = (
(535,64,o),
(439,0,o),
(282,0,cs),
(33,0,l),
(145,667,l),
(363,667,ls),
(521,667,o),
(587,609,o),
(567,490,cs),
(553,406,o),
(498,376,o),
(471,357,c),
(540,324,o),
(569,267,o),
(556,191,cs)
);
},
{
closed = 1;
nodes = (
(498,560,o),
(462,594,o),
(365,594,cs),
(214,594,l),
(178,379,l),
(332,379,ls),
(416,379,o),
(472,397,o),
(486,482,cs)
);
},
{
closed = 1;
nodes = (
(490,282,o),
(439,309,o),
(334,309,cs),
(167,309,l),
(127,71,l),
(291,71,ls),
(391,71,o),
(459,96,o),
(476,195,cs)
);
}
);
width = 633;
},
{
layerId = "4611C1FA-12BE-43C5-8830-F68BB93ACC2D";
shapes = (
{
closed = 1;
nodes = (
(518,62,o),
(427,0,o),
(267,0,cs),
(37,0,l),
(149,667,l),
(360,667,ls),
(506,667,o),
(569,607,o),
(549,489,cs),
(534,401,o),
(476,374,o),
(456,357,c),
(524,321,o),
(552,264,o),
(539,187,cs)
);
},
{
closed = 1;
nodes = (
(506,573,o),
(468,608,o),
(358,608,cs),
(196,608,l),
(157,374,l),
(328,374,ls),
(424,374,o),
(478,398,o),
(492,485,cs)
);
},
{
closed = 1;
nodes = (
(500,287,o),
(444,314,o),
(326,314,cs),
(147,314,l),
(104,57,l),
(286,57,ls),
(399,57,o),
(467,89,o),
(484,191,cs)
);
}
);
width = 621;
}
);
unicode = 66;
},
{
glyphname = C;
layers = (
{
layerId = "A4A8100D-CD7C-4210-8FBB-9BAC01333E3B";
shapes = (
{
closed = 1;
nodes = (
(114.49,-15,o),
(1.583,123,o),
(36.725,333,cs),
(79.23,587,o),
(191.63,685,o),
(437.63,685,cs),
(514.63,685,o),
(598.283,665,o),
(662.43,636,c),
(581.998,490,l),
(522.181,515,o),
(466.524,529,o),
(411.524,529,cs),
(317.524,529,o),
(265.484,469,o),
(242.725,333,cs),
(222.979,215,o),
(264.428,140,o),
(347.428,140,cs),
(401.428,140,o),
(462.603,153,o),
(530.954,179,c),
(562.69,34,l),
(488.837,5,o),
(399.49,-15,o),
(321.49,-15,cs)
);
}
);
width = 633;
},
{
layerId = "9C97EF7B-4204-4453-A40E-5E225C581DA5";
shapes = (
{
closed = 1;
nodes = (
(122.661,-8,o),
(24.75,124,o),
(59.892,334,cs),
(101.059,580,o),
(204.291,677,o),
(427.291,677,cs),
(493.291,677,o),
(564.279,659,o),
(634.091,628,c),
(592.21,557,l),
(536.063,586,o),
(472.74,602,o),
(414.74,602,cs),
(248.74,602,o),
(177.026,532,o),
(143.892,334,cs),
(115.11,162,o),
(180.045,66,o),
(326.045,66,cs),
(383.045,66,o),
(453.555,81,o),
(518.742,112,c),
(536.861,41,l),
(456.339,8,o),
(379.661,-8,o),
(313.661,-8,cs)
);
}
);
width = 623;
},
{
layerId = "4611C1FA-12BE-43C5-8830-F68BB93ACC2D";
shapes = (
{
closed = 1;
nodes = (
(123.829,-7,o),
(28.75,124,o),
(63.892,334,cs),
(104.724,578,o),
(206.956,675,o),
(424.956,675,cs),
(488.956,675,o),
(557.111,658,o),
(627.756,626,c),
(594.385,570,l),
(538.406,600,o),
(474.25,617,o),
(415.25,617,cs),
(235.25,617,o),
(159.034,544,o),
(123.892,334,cs),
(93.269,151,o),
(162.534,51,o),
(321.534,51,cs),
(379.534,51,o),
(452.045,66,o),
(516.4,98,c),
(531.028,42,l),
(449.506,9,o),
(375.829,-7,o),
(311.829,-7,cs)
);
}
);
width = 621;
}
);
leftKerningGroup = _C;
unicode = 67;
},
{
glyphname = Ccedilla;
layers = (
{
layerId = "2C0B2ACE-7C1A-4B57-8C98-FB1544B085A1";
name = "#instance";
shapes = (
{
closed = 1;
nodes = (
(375,-12,o),
(375,-12,o),
(375,-12,c),
(309,-139,l),
(150,-139,l),
(261,-12,l),
(92,7,o),
(5,139,o),
(37,333,cs),
(79,590,o),
(188,685,o),
(438,685,cs),
(515,685,o),
(598,665,o),
(662,636,c),
(582,490,l),
(522,515,o),
(467,529,o),
(412,529,cs),
(316,529,o),
(266,470,o),
(243,333,cs),
(223,213,o),
(262,140,o),
(347,140,cs),
(401,140,o),
(463,153,o),
(531,179,c),
(563,34,l),
(503,12,o),
(438,-7,o),
(375,-12,c)
);
}
);
width = 633;
},
{
layerId = "A4A8100D-CD7C-4210-8FBB-9BAC01333E3B";
shapes = (
{
closed = 1;
nodes = (
(375,-12,o),
(375,-12,o),
(375,-12,c),
(309,-139,l),
(150,-139,l),
(261,-12,l),
(92,7,o),
(5,139,o),
(37,333,cs),
(79,590,o),
(188,685,o),
(438,685,cs),
(515,685,o),
(598,665,o),
(662,636,c),
(582,490,l),
(522,515,o),
(467,529,o),
(412,529,cs),
(316,529,o),
(266,470,o),
(243,333,cs),
(223,213,o),
(262,140,o),
(347,140,cs),
(401,140,o),
(463,153,o),
(531,179,c),
(563,34,l),
(503,12,o),
(438,-7,o),
(375,-12,c)
);
}
);
width = 633;
},
{
layerId = "9C97EF7B-4204-4453-A40E-5E225C581DA5";
shapes = (
{
closed = 1;
nodes = (
(321,-8,o),
(320,-8,o),
(318,-8,c),
(241,-122,l),
(159,-122,l),
(258,-5,l),
(94,15,o),
(25,130,o),
(60,334,cs),
(98,565,o),
(217,677,o),
(427,677,cs),
(493,677,o),
(564,659,o),
(634,628,c),
(592,557,l),
(535,586,o),
(473,602,o),
(415,602,cs),
(258,602,o),
(174,518,o),
(144,334,cs),
(113,150,o),
(169,66,o),
(326,66,cs),
(384,66,o),
(454,81,o),
(519,112,c),
(536,41,l),
(459,10,o),
(386,-7,o),
(323,-8,cs)
);
}
);
width = 623;
},
{
layerId = "4611C1FA-12BE-43C5-8830-F68BB93ACC2D";
shapes = (
{
closed = 1;
nodes = (
(310,-7,o),
(309,-7,o),
(307,-7,c),
(227,-118,l),
(161,-118,l),
(257,-4,l),
(94,16,o),
(29,128,o),
(64,334,cs),
(102,560,o),
(223,675,o),
(425,675,cs),
(489,675,o),
(557,658,o),
(628,626,c),
(594,570,l),
(538,600,o),
(474,617,o),
(415,617,cs),
(246,617,o),
(156,527,o),
(124,334,cs),
(91,137,o),
(150,51,o),
(322,51,cs),
(380,51,o),
(452,66,o),
(516,98,c),
(531,42,l),
(450,9,o),
(376,-7,o),
(312,-7,cs)
);
}
);
width = 621;
}
);
leftKerningGroup = _C;
unicode = 199;
},
{
glyphname = D;
layers = (
{
layerId = "2C0B2ACE-7C1A-4B57-8C98-FB1544B085A1";
name = "#instance";
shapes = (
{
closed = 1;
nodes = (
(660.893,89,o),
(556,0,o),
(309,0,cs),
(15,0,l),
(126.618,667,l),
(322.618,667,ls),
(631.618,667,o),
(741.553,571,o),
(701.725,333,cs)
);
},
{
closed = 1;
nodes = (
(514.802,447,o),
(465.516,517,o),
(369.516,517,cs),
(302.516,517,l),
(241.101,150,l),
(308.101,150,ls),
(420.101,150,o),
(473.971,203,o),
(495.725,333,cs)
);
}
);
width = 730;
},
{
layerId = "A4A8100D-CD7C-4210-8FBB-9BAC01333E3B";
shapes = (
{
closed = 1;
nodes = (
(660.893,89,o),
(556,0,o),
(309,0,cs),
(15,0,l),
(126.618,667,l),
(322.618,667,ls),
(631.618,667,o),
(741.553,571,o),
(701.725,333,cs)
);
},
{
closed = 1;
nodes = (
(514.802,447,o),
(465.516,517,o),
(369.516,517,cs),
(302.516,517,l),
(241.101,150,l),
(308.101,150,ls),
(420.101,150,o),
(473.971,203,o),
(495.725,333,cs)
);
}
);
width = 730;
},
{
layerId = "9C97EF7B-4204-4453-A40E-5E225C581DA5";
shapes = (
{
closed = 1;
nodes = (
(579.396,92,o),
(476,0,o),
(249,0,cs),
(33,0,l),
(144.618,667,l),
(344.618,667,ls),
(551.618,667,o),
(654.532,541,o),
(619.892,334,cs)
);
},
{
closed = 1;
nodes = (
(563.671,500,o),
(493.569,595,o),
(341.569,595,cs),
(213.569,595,l),
(126.383,74,l),
(254.383,74,ls),
(431.383,74,o),
(503.595,141,o),
(535.892,334,cs)
);
}
);
width = 672;
},
{
layerId = "4611C1FA-12BE-43C5-8830-F68BB93ACC2D";
shapes = (
{
closed = 1;
nodes = (
(562.563,93,o),
(460,0,o),
(237,0,cs),
(37,0,l),
(148.618,667,l),
(348.618,667,ls),
(535.618,667,o),
(636.528,535,o),
(602.892,334,cs)
);
},
{
closed = 1;
nodes = (
(573.512,511,o),
(499.079,610,o),
(336.079,610,cs),
(196.079,610,l),
(103.873,59,l),
(243.873,59,ls),
(433.873,59,o),
(509.42,128,o),
(543.892,334,cs)
);
}
);
width = 660;
}
);
rightKerningGroup = _D;
unicode = 68;
},
{
glyphname = Eth;
layers = (
{
layerId = "2C0B2ACE-7C1A-4B57-8C98-FB1544B085A1";
name = "#instance";
shapes = (
{
closed = 1;
nodes = (
(660.893,89,o),
(556,0,o),
(309,0,cs),
(15,0,l),
(61.521,278,l),
(-7.479,278,l),
(12.1,395,l),
(81.1,395,l),
(126.618,667,l),
(361.618,667,ls),
(629.618,667,o),
(739.545,559,o),
(701.725,333,cs)
);
},
{
closed = 1;
nodes = (
(514.802,447,o),
(465.516,517,o),
(369.516,517,cs),
(302.516,517,l),
(282.1,395,l),
(387.1,395,l),
(367.521,278,l),
(262.521,278,l),
(241.101,150,l),
(308.101,150,ls),
(420.101,150,o),
(473.803,202,o),
(495.725,333,cs)
);
}
);
width = 730;
},
{
layerId = "A4A8100D-CD7C-4210-8FBB-9BAC01333E3B";
shapes = (
{
closed = 1;
nodes = (
(660.893,89,o),
(556,0,o),
(309,0,cs),
(15,0,l),
(61.521,278,l),
(-7.479,278,l),
(12.1,395,l),
(81.1,395,l),
(126.618,667,l),
(361.618,667,ls),
(629.618,667,o),
(739.545,559,o),
(701.725,333,cs)
);
},
{
closed = 1;
nodes = (
(514.802,447,o),
(465.516,517,o),
(369.516,517,cs),
(302.516,517,l),
(282.1,395,l),
(387.1,395,l),
(367.521,278,l),
(262.521,278,l),
(241.101,150,l),
(308.101,150,ls),
(420.101,150,o),
(473.803,202,o),
(495.725,333,cs)
);
}
);
width = 730;
},
{
layerId = "9C97EF7B-4204-4453-A40E-5E225C581DA5";
shapes = (
{
closed = 1;
nodes = (
(579.396,92,o),
(476,0,o),
(249,0,cs),
(33,0,l),
(83.37,301,l),
(21.37,301,l),
(33.419,373,l),
(95.419,373,l),
(144.618,667,l),
(350.618,667,ls),
(551.618,667,o),
(654.198,539,o),
(619.892,334,cs)
);
},
{
closed = 1;
nodes = (
(563.671,500,o),
(493.569,595,o),
(341.569,595,cs),
(213.569,595,l),
(176.419,373,l),
(286.419,373,l),
(274.37,301,l),
(164.37,301,l),
(126.383,74,l),
(254.383,74,ls),
(431.383,74,o),
(503.428,140,o),
(535.892,334,cs)
);
}
);
width = 672;
},
{
layerId = "4611C1FA-12BE-43C5-8830-F68BB93ACC2D";
shapes = (
{
closed = 1;
nodes = (
(562.563,93,o),
(460,0,o),
(237,0,cs),
(37,0,l),
(88.039,305,l),
(27.039,305,l),
(37.749,369,l),
(98.749,369,l),
(148.618,667,l),
(348.618,667,ls),
(535.618,667,o),
(636.528,535,o),
(602.892,334,cs)
);
},
{
closed = 1;
nodes = (
(573.512,511,o),
(499.079,610,o),
(336.079,610,cs),
(196.079,610,l),
(155.749,369,l),
(266.749,369,l),
(256.039,305,l),
(145.039,305,l),
(103.873,59,l),
(243.873,59,ls),
(433.873,59,o),
(509.42,128,o),
(543.892,334,cs)
);
}
);
width = 660;
}
);
rightKerningGroup = _D;
unicode = 208;
},
{
glyphname = E;
layers = (
{
layerId = "A4A8100D-CD7C-4210-8FBB-9BAC01333E3B";
shapes = (
{
closed = 1;
nodes = (
(599.618,667,l),
(574.516,517,l),
(302.516,517,l),
(283.774,405,l),
(517.774,405,l),
(494.011,263,l),
(260.011,263,l),
(241.101,150,l),
(513.101,150,l),
(488,0,l),
(15,0,l),
(126.618,667,l)
);
}
);
width = 598;
},
{
layerId = "9C97EF7B-4204-4453-A40E-5E225C581DA5";
shapes = (
{
closed = 1;
nodes = (
(569.618,667,l),
(557.402,594,l),
(213.402,594,l),
(176.251,372,l),
(479.251,372,l),
(466.533,296,l),
(163.533,296,l),
(126.383,74,l),
(470.383,74,l),
(458,0,l),
(33,0,l),
(144.618,667,l)
);
}
);
width = 582;
},
{
layerId = "4611C1FA-12BE-43C5-8830-F68BB93ACC2D";
shapes = (
{
closed = 1;
nodes = (
(563.618,667,l),
(553.912,609,l),
(195.912,609,l),
(155.08,365,l),
(471.08,365,l),
(460.705,303,l),
(144.705,303,l),
(103.873,59,l),
(461.873,59,l),
(452,0,l),
(37,0,l),
(148.618,667,l)
);
}
);
width = 579;
}
);
unicode = 69;
},
{
glyphname = F;
layers = (
{
layerId = "2C0B2ACE-7C1A-4B57-8C98-FB1544B085A1";
name = "#instance";
width = 534;
},
{
layerId = "A4A8100D-CD7C-4210-8FBB-9BAC01333E3B";
shapes = (
{
closed = 1;
nodes = (
(600,667,l),
(575,517,l),
(303,517,l),
(281,389,l),
(514,389,l),
(489,237,l),
(256,237,l),
(216,0,l),
(15,0,l),
(127,667,l)
);
}
);
width = 583;
},
{
layerId = "9C97EF7B-4204-4453-A40E-5E225C581DA5";
shapes = (
{
closed = 1;
nodes = (
(559,667,l),
(547,594,l),
(214,594,l),
(176,371,l),
(468,371,l),
(456,295,l),
(164,295,l),
(114,0,l),
(33,0,l),
(145,667,l)
);
}
);
width = 542;
},
{
layerId = "4611C1FA-12BE-43C5-8830-F68BB93ACC2D";
shapes = (
{
closed = 1;
nodes = (
(551,667,l),
(541,609,l),
(196,609,l),
(155,367,l),
(459,367,l),
(449,306,l),
(145,306,l),
(94,0,l),
(37,0,l),
(149,667,l)
);
}
);
width = 534;
}
);
unicode = 70;
},
{
glyphname = G;
layers = (
{
layerId = "A4A8100D-CD7C-4210-8FBB-9BAC01333E3B";
shapes = (
{
closed = 1;
nodes = (
(609.877,65,l),
(508.008,12,o),
(410.323,-16,o),
(315.323,-16,cs),
(112.323,-16,o),
(6.081,120,o),
(41.725,333,cs),
(82.055,574,o),
(212.63,685,o),
(456.63,685,cs),
(533.63,685,o),
(617.283,665,o),
(681.43,636,c),
(601.333,492,l),
(541.516,517,o),
(485.859,531,o),
(430.859,531,cs),
(328.859,531,o),
(269.149,467,o),
(246.892,334,cs),
(225.975,209,o),
(265.591,135,o),
(355.591,135,cs),
(384.591,135,o),
(408.595,141,o),
(425.436,152,c),
(440.162,240,l),
(336.162,240,l),
(360.427,385,l),
(663.427,385,l)
);
}
);
width = 714;
},
{
layerId = "9C97EF7B-4204-4453-A40E-5E225C581DA5";
shapes = (
{
closed = 1;
nodes = (
(563.196,43,l),
(483.339,8,o),
(401.327,-10,o),
(317.327,-10,cs),
(129.327,-10,o),
(29.75,124,o),
(64.892,334,cs),
(105.557,577,o),
(216.291,677,o),
(443.291,677,cs),
(510.291,677,o),
(579.279,659,o),
(649.091,628,c),
(609.21,557,l),
(551.063,586,o),
(488.908,603,o),
(430.908,603,cs),
(258.908,603,o),
(177.19,527,o),
(144.892,334,cs),
(116.11,162,o),
(186.71,64,o),
(337.71,64,cs),
(389.71,64,o),
(440.049,72,o),
(487.726,88,c),
(518.35,271,l),
(363.35,271,l),
(375.901,346,l),
(613.901,346,l)
);
}
);
width = 689;
},
{
layerId = "4611C1FA-12BE-43C5-8830-F68BB93ACC2D";
shapes = (
{
closed = 1;
nodes = (
(553.526,39,l),
(478.171,7,o),
(399.494,-9,o),
(317.494,-9,cs),
(132.494,-9,o),
(33.918,125,o),
(68.892,334,cs),
(109.557,577,o),
(216.956,675,o),
(440.956,675,cs),
(504.956,675,o),
(572.111,658,o),
(642.756,626,c),
(610.385,570,l),
(553.406,600,o),
(489.25,617,o),
(431.25,617,cs),
(244.25,617,o),
(159.198,539,o),
(124.892,334,cs),
(94.603,153,o),
(170.367,50,o),
(334.367,50,cs),
(390.367,50,o),
(445.706,58,o),
(500.551,75,c),
(534.354,277,l),
(368.354,277,l),
(378.562,338,l),
(603.562,338,l)
);
}
);
width = 684;
}
);
leftKerningGroup = _C;
unicode = 71;
},
{
glyphname = H;
layers = (
{
layerId = "A4A8100D-CD7C-4210-8FBB-9BAC01333E3B";
shapes = (
{
closed = 1;
nodes = (
(327.618,667,l),
(284.61,410,l),
(481.61,410,l),
(524.618,667,l),
(724.618,667,l),
(613,0,l),
(413,0,l),
(454.836,250,l),
(257.836,250,l),
(216,0,l),
(15,0,l),
(126.618,667,l)
);
}
);
width = 728;
},
{
layerId = "9C97EF7B-4204-4453-A40E-5E225C581DA5";
shapes = (
{
closed = 1;
nodes = (
(225.618,667,l),
(175.917,370,l),
(520.917,370,l),
(570.618,667,l),
(651.618,667,l),
(540,0,l),
(459,0,l),
(508.533,296,l),
(163.533,296,l),
(114,0,l),
(33,0,l),
(144.618,667,l)
);
}
);
width = 673;
},
{
layerId = "4611C1FA-12BE-43C5-8830-F68BB93ACC2D";
shapes = (
{
closed = 1;
nodes = (
(205.618,667,l),
(154.578,362,l),
(528.578,362,l),
(579.618,667,l),
(636.618,667,l),
(525,0,l),
(468,0,l),
(519.039,305,l),
(145.039,305,l),
(94,0,l),
(37,0,l),
(148.618,667,l)
);
}
);
width = 662;
}
);
unicode = 72;
},
{
glyphname = I;
layers = (
{
layerId = "A4A8100D-CD7C-4210-8FBB-9BAC01333E3B";
shapes = (
{
closed = 1;
nodes = (
(327.618,667,l),
(216,0,l),
(15,0,l),
(126.618,667,l)
);
}
);
width = 331;
},
{
layerId = "9C97EF7B-4204-4453-A40E-5E225C581DA5";
shapes = (
{
closed = 1;
nodes = (
(225.618,667,l),
(114,0,l),
(33,0,l),
(144.618,667,l)
);
}
);
width = 249;
},
{
layerId = "4611C1FA-12BE-43C5-8830-F68BB93ACC2D";
shapes = (
{
closed = 1;
nodes = (
(205.618,667,l),
(94,0,l),
(37,0,l),
(148.618,667,l)
);
}
);
width = 232;
}
);
unicode = 73;
},
{
glyphname = J;
layers = (
{
layerId = "2C0B2ACE-7C1A-4B57-8C98-FB1544B085A1";
name = "#instance";
width = 449;
},
{
layerId = "A4A8100D-CD7C-4210-8FBB-9BAC01333E3B";
shapes = (
{
closed = 1;
nodes = (
(408.305,205,ls),
(383.204,55,o),
(283.49,-15,o),
(129.49,-15,cs),
(74.49,-15,o),
(14.339,8,o),
(-33.808,37,c),
(58.456,182,l),
(95.942,161,o),
(118.934,149,o),
(155.934,149,cs),
(212.934,149,o),
(213.162,240,o),
(221.362,289,cs),
(284.618,667,l),
(485.618,667,l)
);
}
);
width = 489;
},
{
layerId = "9C97EF7B-4204-4453-A40E-5E225C581DA5";
shapes = (
{
closed = 1;
nodes = (
(355.301,199,ls),
(330.702,52,o),
(242.661,-8,o),
(127.661,-8,cs),
(81.661,-8,o),
(32.171,7,o),
(-15.976,36,c),
(28.738,106,l),
(65.555,81,o),
(102.379,68,o),
(140.379,68,cs),
(223.379,68,o),
(261.081,120,o),
(277.815,220,cs),
(352.618,667,l),
(433.618,667,l)
);
}
);
width = 456;
},
{
layerId = "4611C1FA-12BE-43C5-8830-F68BB93ACC2D";
shapes = (
{
closed = 1;
nodes = (
(345.134,198,ls),
(320.534,51,o),
(234.829,-7,o),
(126.829,-7,cs),
(82.829,-7,o),
(36.171,7,o),
(-12.976,36,c),
(22.228,91,l),
(59.877,65,o),
(98.702,52,o),
(136.702,52,cs),
(225.702,52,o),
(271.065,96,o),
(289.473,206,cs),
(366.618,667,l),
(423.618,667,l)
);
}
);
width = 449;
}
);
unicode = 74;
},
{
glyphname = K;
layers = (
{
layerId = "A4A8100D-CD7C-4210-8FBB-9BAC01333E3B";
shapes = (
{
closed = 1;
nodes = (
(15,0,l),
(126.618,667,l),
(327.618,667,l),
(287.121,425,l),
(483.618,667,l),
(734.618,667,l),
(453.59,380,l),
(644,0,l),
(399,0,l),
(266.203,300,l),
(216,0,l)
);
}
);
width = 709;
},
{
layerId = "9C97EF7B-4204-4453-A40E-5E225C581DA5";
shapes = (
{
closed = 1;
nodes = (
(33,0,l),
(144.618,667,l),
(225.618,667,l),
(174.076,359,l),
(529.618,667,l),
(637.618,667,l),
(265.068,347,l),
(546,0,l),
(436,0,l),
(169.223,330,l),
(114,0,l)
);
}
);
width = 620;
},
{
layerId = "4611C1FA-12BE-43C5-8830-F68BB93ACC2D";
shapes = (
{
closed = 1;
nodes = (
(37,0,l),
(148.618,667,l),
(205.618,667,l),
(151.901,346,l),
(538.618,667,l),
(617.618,667,l),
(226.896,340,l),
(526,0,l),
(443,0,l),
(150.227,336,l),
(94,0,l)
);
}
);
width = 602;
}
);
unicode = 75;
},
{
glyphname = L;
layers = (
{
layerId = "A4A8100D-CD7C-4210-8FBB-9BAC01333E3B";
shapes = (
{
closed = 1;
nodes = (
(327.618,667,l),
(243.779,166,l),
(511.779,166,l),
(484,0,l),
(15,0,l),
(126.618,667,l)
);
}
);
width = 569;
},
{
layerId = "9C97EF7B-4204-4453-A40E-5E225C581DA5";
shapes = (
{
closed = 1;
nodes = (
(225.618,667,l),
(126.885,77,l),
(463.885,77,l),
(451,0,l),
(33,0,l),
(144.618,667,l)
);
}
);
width = 527;
},
{
layerId = "4611C1FA-12BE-43C5-8830-F68BB93ACC2D";
shapes = (
{
closed = 1;
nodes = (
(205.618,667,l),
(103.873,59,l),
(453.873,59,l),
(444,0,l),
(37,0,l),
(148.618,667,l)
);
}
);
width = 518;
}
);
unicode = 76;
},
{
glyphname = M;
layers = (
{
layerId = "2C0B2ACE-7C1A-4B57-8C98-FB1544B085A1";
name = "#instance";
width = 775;
},
{
layerId = "A4A8100D-CD7C-4210-8FBB-9BAC01333E3B";
shapes = (
{
closed = 1;
nodes = (
(729,0,l),
(528,0,l),
(595,400,l),
(406,195,l),
(391,195,l),
(273,399,l),
(206,0,l),
(15,0,l),
(127,667,l),
(330,667,l),
(447,442,l),
(644,667,l),
(841,667,l)
);
}
);
width = 844;
},
{
layerId = "9C97EF7B-4204-4453-A40E-5E225C581DA5";
shapes = (
{
closed = 1;
nodes = (
(653,0,l),
(572,0,l),
(663,539,l),
(388,222,l),
(359,222,l),
(205,537,l),
(114,0,l),
(33,0,l),
(145,667,l),
(233,667,l),
(395,329,l),
(678,667,l),
(765,667,l)
);
}
);
width = 787;
},
{
layerId = "4611C1FA-12BE-43C5-8830-F68BB93ACC2D";
shapes = (
{
closed = 1;
nodes = (
(638,0,l),
(581,0,l),
(676,567,l),
(384,227,l),
(353,227,l),
(191,565,l),
(96,0,l),
(37,0,l),
(149,667,l),
(213,667,l),
(384,306,l),
(685,667,l),
(750,667,l)
);
}
);
width = 775;
}
);
unicode = 77;
},
{
glyphname = N;
layers = (
{
layerId = "2C0B2ACE-7C1A-4B57-8C98-FB1544B085A1";
name = "#instance";
width = 722;
},
{
layerId = "A4A8100D-CD7C-4210-8FBB-9BAC01333E3B";
shapes = (
{
closed = 1;
nodes = (
(610,0,l),
(470,0,l),
(254.733,345,l),
(197,0,l),
(15,0,l),
(126.618,667,l),
(288.618,667,l),
(483.892,334,l),
(539.618,667,l),
(721.618,667,l)
);
}
);
width = 725;
},
{
layerId = "9C97EF7B-4204-4453-A40E-5E225C581DA5";
shapes = (
{
closed = 1;
nodes = (
(588,0,l),
(503,0,l),
(205.034,544,l),
(114,0,l),
(33,0,l),
(144.618,667,l),
(232.618,667,l),
(529.75,124,l),
(620.618,667,l),
(699.618,667,l)
);
}
);
width = 723;
},
{
layerId = "4611C1FA-12BE-43C5-8830-F68BB93ACC2D";
shapes = (
{
closed = 1;
nodes = (
(584,0,l),
(510,0,l),
(194.728,584,l),
(97,0,l),
(37,0,l),
(148.618,667,l),
(221.618,667,l),
(538.722,82,l),
(636.618,667,l),
(695.618,667,l)
);
}
);
width = 722;
}
);
unicode = 78;
},
{
glyphname = O;
layers = (
{
layerId = "A4A8100D-CD7C-4210-8FBB-9BAC01333E3B";
shapes = (
{
closed = 1;
nodes = (
(82.557,577,o),
(201.128,682,o),
(436.128,682,cs),
(633.128,682,o),
(748.863,537,o),
(714.892,334,cs),
(674.228,91,o),
(554.323,-16,o),
(319.323,-16,cs),
(124.323,-16,o),
(7.755,130,o),
(41.725,333,cs)
);
},
{
closed = 1;
nodes = (
(528.643,458,o),
(495.353,522,o),
(409.353,522,cs),
(315.353,522,o),
(271.818,471,o),
(248.558,332,cs),
(228.644,213,o),
(264.265,145,o),
(346.265,145,cs),
(440.265,145,o),
(484.966,197,o),
(507.892,334,cs)
);
}
);
width = 745;
},
{
layerId = "9C97EF7B-4204-4453-A40E-5E225C581DA5";
shapes = (
{
closed = 1;
nodes = (
(105.724,578,o),
(208.124,676,o),
(423.124,676,cs),
(606.124,676,o),
(702.365,540,o),
(667.725,333,cs),
(626.893,89,o),
(524.327,-10,o),
(308.327,-10,cs),
(126.327,-10,o),
(29.75,124,o),
(64.725,333,cs)
);
},
{
closed = 1;
nodes = (
(614.675,506,o),
(551.74,602,o),
(410.74,602,cs),
(249.74,602,o),
(180.026,532,o),
(146.725,333,cs),
(117.607,159,o),
(178.71,64,o),
(320.71,64,cs),
(484.71,64,o),
(552.424,134,o),
(585.725,333,cs)
);
}
);
width = 721;
},
{
layerId = "4611C1FA-12BE-43C5-8830-F68BB93ACC2D";
shapes = (
{
closed = 1;
nodes = (
(109.724,578,o),
(209.956,675,o),
(420.956,675,cs),
(600.956,675,o),
(693.532,541,o),
(658.725,333,cs),
(617.726,88,o),
(518.494,-9,o),
(306.494,-9,cs),
(126.494,-9,o),
(33.583,123,o),
(68.725,333,cs)
);
},
{
closed = 1;
nodes = (
(631.349,516,o),
(562.418,618,o),
(411.418,618,cs),
(236.418,618,o),
(162.034,544,o),
(126.725,333,cs),
(95.767,148,o),
(162.032,48,o),
(316.032,48,cs),
(493.032,48,o),
(565.248,121,o),
(600.725,333,cs)
);
}
);
width = 716;
}
);
leftKerningGroup = _O;
rightKerningGroup = _D;
unicode = 79;
},
{
glyphname = Oslash;
layers = (
{
layerId = "A4A8100D-CD7C-4210-8FBB-9BAC01333E3B";
shapes = (
{
closed = 1;
nodes = (
(707.132,688,l),
(631.164,736,l),
(54.641,-38,l),
(130.609,-86,l)
);
},
{
alignment = -1;
ref = O;
}
);
width = 745;
},
{
layerId = "9C97EF7B-4204-4453-A40E-5E225C581DA5";
shapes = (
{
closed = 1;
nodes = (
(685.634,691,l),
(629.491,726,l),
(52.968,-48,l),
(108.943,-84,l)
);
},
{
alignment = -1;
ref = O;
}
);
width = 721;
},
{
layerId = "4611C1FA-12BE-43C5-8830-F68BB93ACC2D";
shapes = (
{
closed = 1;
nodes = (
(680.634,691,l),
(629.156,724,l),
(52.633,-50,l),
(104.111,-83,l)
);
},
{
alignment = -1;
ref = O;
}
);
width = 716;
}
);
leftKerningGroup = _O;
rightKerningGroup = _D;
unicode = 216;
},
{
glyphname = OE;
layers = (
{
layerId = "2C0B2ACE-7C1A-4B57-8C98-FB1544B085A1";
name = "#instance";
shapes = (
{
closed = 1;
nodes = (
(927,366,l),
(917,304,l),
(623,304,l),
(582,59,l),
(919,59,l),
(909,0,l),
(514,0,l),
(531,99,l),
(471,22,o),
(399,-9,o),
(286,-9,cs),
(117,-9,o),
(34,123,o),
(69,333,cs),
(109,575,o),
(206,675,o),
(401,675,cs),
(512,675,o),
(576,643,o),
(609,567,c),
(614,600,o),
(620,634,o),
(626,667,c),
(1021,667,l),
(1011,609,l),
(674,609,l),
(633,366,l)
);
},
{
closed = 1;
nodes = (
(600,515,o),
(534,618,o),
(391,618,cs),
(233,618,o),
(162,541,o),
(127,333,cs),
(96,147,o),
(155,48,o),
(296,48,cs),
(463,48,o),
(533,121,o),
(569,333,cs)
);
}
);
width = 1036;
},
{
layerId = "A4A8100D-CD7C-4210-8FBB-9BAC01333E3B";
shapes = (
{
closed = 1;
nodes = (
(922,409,l),
(897,259,l),
(671,259,l),
(653,150,l),
(916,150,l),
(891,0,l),
(439,0,l),
(439,2,l),
(391,-9,o),
(341,-16,o),
(299,-16,cs),
(114,-16,o),
(7,128,o),
(42,333,cs),
(83,575,o),
(197,682,o),
(416,682,cs),
(460,682,o),
(508,677,o),
(550,666,c),
(550,666,o),
(551,667,o),
(551,667,c),
(1003,667,l),
(978,517,l),
(715,517,l),
(696,409,l)
);
},
{
closed = 1;
nodes = (
(513,460,o),
(479,522,o),
(389,522,cs),
(312,522,o),
(272,467,o),
(249,332,cs),
(229,215,o),
(258,145,o),
(326,145,cs),
(426,145,o),
(469,193,o),
(492,334,cs)
);
}
);
width = 1002;
},
{
layerId = "9C97EF7B-4204-4453-A40E-5E225C581DA5";
shapes = (
{
closed = 1;
nodes = (
(926,373,l),
(914,297,l),
(631,297,l),
(594,74,l),
(919,74,l),
(906,0,l),
(502,0,l),
(516,83,l),
(458,17,o),
(389,-10,o),
(288,-10,cs),
(117,-10,o),
(30,124,o),
(65,333,cs),
(105,575,o),
(205,676,o),
(404,676,cs),
(503,676,o),
(565,649,o),
(599,584,c),
(603,611,o),
(609,640,o),
(614,667,c),
(1018,667,l),
(1006,594,l),
(681,594,l),
(644,373,l)
);
},
{
closed = 1;
nodes = (
(586,506,o),
(525,602,o),
(391,602,cs),
(246,602,o),
(180,529,o),
(147,333,cs),
(118,158,o),
(172,64,o),
(301,64,cs),
(457,64,o),
(522,133,o),
(556,333,cs)
);
}
);
width = 1030;
},
{
layerId = "4611C1FA-12BE-43C5-8830-F68BB93ACC2D";
shapes = (
{
closed = 1;
nodes = (
(927,366,l),
(917,304,l),
(623,304,l),
(582,59,l),
(919,59,l),
(909,0,l),
(514,0,l),
(531,99,l),
(471,22,o),
(399,-9,o),
(286,-9,cs),
(117,-9,o),
(34,123,o),
(69,333,cs),
(109,575,o),
(206,675,o),
(401,675,cs),
(512,675,o),
(576,643,o),
(609,567,c),
(614,600,o),
(620,634,o),
(626,667,c),
(1021,667,l),
(1011,609,l),
(674,609,l),
(633,366,l)
);
},
{
closed = 1;
nodes = (
(600,515,o),
(534,618,o),
(391,618,cs),
(233,618,o),
(162,541,o),
(127,333,cs),
(96,147,o),
(155,48,o),
(296,48,cs),
(463,48,o),
(533,121,o),
(569,333,cs)
);
}
);
width = 1036;
}
);
leftKerningGroup = _C;
unicode = 338;
},
{
glyphname = P;
layers = (
{
layerId = "A4A8100D-CD7C-4210-8FBB-9BAC01333E3B";
shapes = (
{
closed = 1;
nodes = (
(127,667,l),
(454,667,ls),
(619,667,o),
(701,594,o),
(676,445,cs),
(651,291,o),
(537,203,o),
(376,203,cs),
(250,203,l),
(216,0,l),
(15,0,l)
);
},
{
closed = 1;
nodes = (
(464,488,o),
(440,519,o),
(404,519,cs),
(303,519,l),
(274,348,l),
(335,348,ls),
(374,348,o),
(439,342,o),
(454,429,cs)
);
}
);
width = 686;
},
{
layerId = "9C97EF7B-4204-4453-A40E-5E225C581DA5";
shapes = (
{
closed = 1;
nodes = (
(145,667,l),
(389,667,ls),
(537,667,o),
(609,593,o),
(587,460,cs),
(564,324,o),
(468,251,o),
(319,251,cs),
(157,251,l),
(114,0,l),
(33,0,l)
);
},
{
closed = 1;
nodes = (
(519,544,o),
(487,592,o),
(367,592,cs),
(214,592,l),
(169,326,l),
(315,326,ls),
(433,326,o),
(489,366,o),
(505,459,cs)
);
}
);
width = 619;
},
{
layerId = "4611C1FA-12BE-43C5-8830-F68BB93ACC2D";
shapes = (
{
closed = 1;
nodes = (
(149,667,l),
(376,667,ls),
(521,667,o),
(591,593,o),
(569,463,cs),
(547,331,o),
(454,261,o),
(308,261,cs),
(138,261,l),
(94,0,l),
(37,0,l)
);
},
{
closed = 1;
nodes = (
(530,555,o),
(496,607,o),
(359,607,cs),
(196,607,l),
(148,321,l),
(311,321,ls),
(445,321,o),
(499,371,o),
(515,465,cs)
);
}
);
width = 605;
}
);
unicode = 80;
},
{
glyphname = Thorn;
layers = (
{
layerId = "2C0B2ACE-7C1A-4B57-8C98-FB1544B085A1";
name = "#instance";
width = 560;
},
{
layerId = "A4A8100D-CD7C-4210-8FBB-9BAC01333E3B";
shapes = (
{
closed = 1;
nodes = (
(303,567,l),
(389,567,ls),
(548,567,o),
(630,481,o),
(606,335,cs),
(580,182,o),
(473,99,o),
(311,99,cs),
(225,99,l),
(208,0,l),
(36,0,l),
(148,667,l),
(320,667,l)
);
},
{
closed = 1;
nodes = (
(442,389,o),
(413,427,o),
(349,427,cs),
(279,427,l),
(248,241,l),
(301,241,ls),
(376,241,o),
(422,267,o),
(433,335,cs)
);
}
);
width = 653;
},
{
layerId = "9C97EF7B-4204-4453-A40E-5E225C581DA5";
shapes = (
{
closed = 1;
nodes = (
(210,566,l),
(337,566,ls),
(485,566,o),
(556,491,o),
(534,358,cs),
(511,222,o),
(416,149,o),
(268,149,cs),
(140,149,l),
(115,0,l),
(36,0,l),
(148,667,l),
(227,667,l)
);
},
{
closed = 1;
nodes = (
(469,442,o),
(435,491,o),
(313,491,cs),
(197,491,l),
(152,224,l),
(266,224,ls),
(389,224,o),
(440,269,o),
(455,358,cs)
);
}
);
width = 576;
},
{
layerId = "4611C1FA-12BE-43C5-8830-F68BB93ACC2D";
shapes = (
{
closed = 1;
nodes = (
(191,566,l),
(327,566,ls),
(472,566,o),
(541,493,o),
(520,362,cs),
(497,230,o),
(404,159,o),
(259,159,cs),
(123,159,l),
(96,0,l),
(36,0,l),
(148,667,l),
(208,667,l)
);
},
{
closed = 1;
nodes = (
(474,453,o),
(439,504,o),
(306,504,cs),
(180,504,l),
(133,220,l),
(259,220,ls),
(391,220,o),
(443,269,o),
(459,362,cs)
);
}
);
width = 560;
}
);
unicode = 222;
},
{
glyphname = Q;
layers = (
{
layerId = "A4A8100D-CD7C-4210-8FBB-9BAC01333E3B";
shapes = (
{
closed = 1;
nodes = (
(681,-126,l),
(635,-137,o),
(598,-142,o),
(568,-142,cs),
(478,-142,o),
(397,-88,o),
(353,-3,c),
(508,41,l),
(529,13,o),
(551,-1,o),
(588,-1,cs),
(614,-1,o),
(653,9,o),
(679,15,c)
);
},
{
closed = 1;
nodes = (
(83,577,o),
(201,682,o),
(436,682,cs),
(633,682,o),
(749,537,o),
(715,334,cs),
(674,91,o),
(554,-16,o),
(319,-16,cs),
(124,-16,o),
(8,130,o),
(42,333,cs)
);
},
{
closed = 1;
nodes = (
(529,458,o),
(495,522,o),
(409,522,cs),
(315,522,o),
(272,471,o),
(249,332,cs),
(229,213,o),
(264,145,o),
(346,145,cs),
(440,145,o),
(485,197,o),
(508,334,cs)
);
}
);
width = 745;
},
{
layerId = "9C97EF7B-4204-4453-A40E-5E225C581DA5";
shapes = (
{
closed = 1;
nodes = (
(651,-88,l),
(613,-96,o),
(582,-101,o),
(557,-101,cs),
(486,-101,o),
(437,-66,o),
(394,17,c),
(469,39,l),
(490,-5,o),
(517,-35,o),
(570,-35,cs),
(589,-35,o),
(616,-29,o),
(647,-22,c)
);
},
{
closed = 1;
nodes = (
(106,578,o),
(209,676,o),
(424,676,cs),
(606,676,o),
(703,540,o),
(668,333,cs),
(627,89,o),
(524,-10,o),
(308,-10,cs),
(126,-10,o),
(30,124,o),
(65,333,cs)
);
},
{
closed = 1;
nodes = (
(614,506,o),
(551,602,o),
(411,602,cs),
(249,602,o),
(180,532,o),
(147,333,cs),
(118,159,o),
(179,64,o),
(321,64,cs),
(484,64,o),
(552,134,o),
(586,333,cs)
);
}
);
width = 721;
},
{
layerId = "4611C1FA-12BE-43C5-8830-F68BB93ACC2D";
shapes = (
{
closed = 1;
nodes = (
(645,-80,l),
(609,-88,o),
(579,-93,o),
(555,-93,cs),
(488,-93,o),
(445,-62,o),
(402,21,c),
(461,39,l),
(482,-9,o),
(510,-42,o),
(566,-42,cs),
(584,-42,o),
(609,-37,o),
(640,-29,c)
);
},
{
closed = 1;
nodes = (
(110,578,o),
(210,675,o),
(421,675,cs),
(601,675,o),
(694,541,o),
(659,333,cs),
(618,88,o),
(518,-9,o),
(306,-9,cs),
(126,-9,o),
(34,123,o),
(69,333,cs)
);
},
{
closed = 1;
nodes = (
(631,516,o),
(562,618,o),
(411,618,cs),
(236,618,o),
(162,544,o),
(127,333,cs),
(96,148,o),
(162,48,o),
(316,48,cs),
(493,48,o),
(565,121,o),
(601,333,cs)
);
}
);
width = 716;
}
);
leftKerningGroup = _C;
rightKerningGroup = _D;
unicode = 81;
},
{
glyphname = R;
layers = (
{
layerId = "2C0B2ACE-7C1A-4B57-8C98-FB1544B085A1";
name = "#instance";
width = 618;
},
{
layerId = "A4A8100D-CD7C-4210-8FBB-9BAC01333E3B";
shapes = (
{
closed = 1;
nodes = (
(473.618,667,ls),
(636.618,667,o),
(721.904,597,o),
(697.137,449,cs),
(683.247,366,o),
(619.358,283,o),
(532.338,253,c),
(658,0,l),
(414,0,l),
(334.644,213,l),
(251.644,213,l),
(216,0,l),
(15,0,l),
(126.618,667,l)
);
},
{
closed = 1;
nodes = (
(483.496,487,o),
(464.516,517,o),
(423.516,517,cs),
(302.516,517,l),
(275.239,354,l),
(356.239,354,ls),
(406.239,354,o),
(460.235,348,o),
(475.463,439,cs)
);
}
);
width = 743;
},
{
layerId = "9C97EF7B-4204-4453-A40E-5E225C581DA5";
shapes = (
{
closed = 1;
nodes = (
(424.618,667,ls),
(554.618,667,o),
(615.406,600,o),
(593.986,472,cs),
(576.749,369,o),
(504.199,294,o),
(410.187,276,c),
(545,0,l),
(448,0,l),
(323.513,266,l),
(158.513,266,l),
(114,0,l),
(33,0,l),
(144.618,667,l)
);
},
{
closed = 1;
nodes = (
(524.038,550,o),
(494.402,594,o),
(403.402,594,cs),
(213.402,594,l),
(170.562,338,l),
(330.562,338,ls),
(432.562,338,o),
(494.251,372,o),
(509.982,466,cs)
);
}
);
width = 639;
},
{
layerId = "4611C1FA-12BE-43C5-8830-F68BB93ACC2D";
shapes = (
{
closed = 1;
nodes = (
(414.618,667,ls),
(538.618,667,o),
(593.406,600,o),
(572.655,476,cs),
(554.917,370,o),
(481.533,296,o),
(385.856,280,c),
(522,0,l),
(455,0,l),
(321.187,276,l),
(140.187,276,l),
(94,0,l),
(37,0,l),
(148.618,667,l)
);
},
{
closed = 1;
nodes = (
(532.047,562,o),
(499.912,609,o),
(398.912,609,cs),
(195.912,609,l),
(150.06,335,l),
(325.06,335,ls),
(438.06,335,o),
(501.088,377,o),
(516.818,471,cs)
);
}
);
width = 618;
}
);
unicode = 82;
},
{
glyphname = S;
layers = (
{
layerId = "A4A8100D-CD7C-4210-8FBB-9BAC01333E3B";
shapes = (
{
closed = 1;
nodes = (
(514.041,60,o),
(409.323,-16,o),
(222.323,-16,cs),
(145.323,-16,o),
(61.669,4,o),
(-2.478,33,c),
(76.62,177,l),
(139.767,148,o),
(198.591,135,o),
(247.591,135,cs),
(298.591,135,o),
(323.269,151,o),
(329.293,187,cs),
(335.15,222,o),
(288.321,229,o),
(223.17,252,c),
(129.191,282,o),
(47.554,326,o),
(65.974,454,c),
(91.744,608,o),
(194.462,684,o),
(373.462,684,cs),
(450.462,684,o),
(534.115,664,o),
(598.263,635,c),
(519.667,494,l),
(466.683,518,o),
(410.194,533,o),
(348.194,533,cs),
(303.194,533,o),
(281.516,517,o),
(275.157,479,cs),
(263.945,412,o),
(350.957,430,o),
(454.921,376,cs),
(523.729,339,o),
(551.86,286,o),
(539.477,212,cs)
);
}
);
width = 587;
},
{
layerId = "9C97EF7B-4204-4453-A40E-5E225C581DA5";
shapes = (
{
closed = 1;
nodes = (
(466.204,55,o),
(377.327,-10,o),
(221.327,-10,cs),
(154.327,-10,o),
(84.171,7,o),
(14.526,39,c),
(55.408,110,l),
(110.387,80,o),
(174.543,63,o),
(233.543,63,cs),
(334.543,63,o),
(392.567,99,o),
(404.783,172,cs),
(416.999,245,o),
(362.346,265,o),
(263.542,308,c),
(148.57,350,o),
(79.925,382,o),
(99.006,502,c),
(116.744,608,o),
(220.458,678,o),
(359.458,678,cs),
(425.458,678,o),
(496.613,661,o),
(565.259,629,c),
(524.545,559,l),
(469.397,588,o),
(405.242,605,o),
(347.242,605,cs),
(257.242,605,o),
(192.883,567,o),
(183.177,509,cs),
(164.937,400,o),
(263.782,417,o),
(412.227,336,cs),
(462.542,308,o),
(500.342,259,o),
(487.289,181,cs)
);
}
);
width = 557;
},
{
layerId = "4611C1FA-12BE-43C5-8830-F68BB93ACC2D";
shapes = (
{
closed = 1;
nodes = (
(457.037,54,o),
(370.494,-9,o),
(220.494,-9,cs),
(155.494,-9,o),
(88.171,7,o),
(17.694,40,c),
(51.232,97,l),
(104.045,66,o),
(169.2,49,o),
(230.2,49,cs),
(342.2,49,o),
(405.893,89,o),
(419.281,169,cs),
(432.836,250,o),
(377.517,272,o),
(271.382,319,c),
(152.745,363,o),
(85.766,393,o),
(105.679,512,cs),
(121.744,608,o),
(225.291,677,o),
(356.291,677,cs),
(420.291,677,o),
(488.446,660,o),
(559.091,628,c),
(525.72,572,l),
(469.74,602,o),
(403.585,619,o),
(346.585,619,cs),
(247.585,619,o),
(174.557,577,o),
(164.181,515,cs),
(144.435,397,o),
(246.28,414,o),
(403.888,328,cs),
(450.537,302,o),
(490.338,253,o),
(477.285,175,cs)
);
}
);
width = 551;
}
);
unicode = 83;
},
{
glyphname = uni1E9E;
layers = (
{
layerId = "2C0B2ACE-7C1A-4B57-8C98-FB1544B085A1";
name = "#instance";
shapes = (
{
closed = 1;
nodes = (
(571,404,l),
(656,371,o),
(693,301,o),
(677,205,cs),
(653,61,o),
(550,-16,o),
(383,-16,cs),
(344,-16,o),
(269,-2,o),
(255,3,c),
(319,151,l),
(330,148,o),
(355,140,o),
(395,140,cs),
(435,140,o),
(474,176,o),
(482,218,cs),
(491,266,o),
(469,296,o),
(424,296,cs),
(409,296,o),
(392,294,o),
(373,289,c),
(359,384,l),
(522,524,l),
(484,533,o),
(450,538,o),
(417,538,cs),
(346,538,o),
(291,498,o),
(281,438,cs),
(257,292,o),
(231,146,o),
(207,0,c),
(24,0,l),
(94,405,ls),
(128,604,o),
(233,689,o),
(442,689,cs),
(525,689,o),
(613,669,o),
(683,640,c),
(672,574,ls),
(667,541,o),
(660,509,o),
(655,476,c),
(636,460,o),
(617,444,o),
(599,428,cs)
);
}
);
width = 748;
},
{
layerId = "A4A8100D-CD7C-4210-8FBB-9BAC01333E3B";
shapes = (
{
closed = 1;
nodes = (
(571,404,l),
(656,371,o),
(693,301,o),
(677,205,cs),
(653,61,o),
(550,-16,o),
(383,-16,cs),
(344,-16,o),
(269,-2,o),
(255,3,c),
(319,151,l),
(330,148,o),
(355,140,o),
(395,140,cs),
(435,140,o),
(474,176,o),
(482,218,cs),
(491,266,o),
(469,296,o),
(424,296,cs),
(409,296,o),
(392,294,o),
(373,289,c),
(359,384,l),
(522,524,l),
(484,533,o),
(450,538,o),
(417,538,cs),
(346,538,o),
(291,498,o),
(281,438,cs),
(257,292,o),
(231,146,o),
(207,0,c),
(24,0,l),
(94,405,ls),
(128,604,o),
(233,689,o),
(442,689,cs),
(525,689,o),
(613,669,o),
(683,640,c),
(672,574,l),
(667,541,o),
(660,509,o),
(655,476,c),
(636,460,o),
(617,444,o),
(599,428,cs)
);
}
);
width = 748;
},
{
layerId = "9C97EF7B-4204-4453-A40E-5E225C581DA5";
shapes = (
{
closed = 1;
nodes = (
(451,397,l),
(551,391,o),
(626,297,o),
(609,196,cs),
(585,56,o),
(505,-10,o),
(359,-10,cs),
(307,-10,o),
(249,0,o),
(208,19,c),
(245,93,l),
(281,74,o),
(323,64,o),
(371,64,cs),
(465,64,o),
(511,104,o),
(527,196,cs),
(539,261,o),
(502,315,o),
(437,326,cs),
(412,330,o),
(383,332,o),
(348,329,c),
(329,387,l),
(540,582,l),
(495,601,o),
(449,610,o),
(404,610,cs),
(269,610,o),
(214,564,o),
(192,435,cs),
(167,290,o),
(143,145,o),
(119,0,c),
(39,0,l),
(111,428,ls),
(142,614,o),
(225,683,o),
(416,683,cs),
(483,683,o),
(553,666,o),
(624,634,c),
(613,567,l),
(558,514,o),
(502,461,o),
(448,408,c),
(448,405,o),
(450,403,o),
(456,401,c)
);
}
);
width = 693;
},
{
layerId = "4611C1FA-12BE-43C5-8830-F68BB93ACC2D";
shapes = (
{
closed = 1;
nodes = (
(530,395,o),
(613,296,o),
(595,194,cs),
(571,55,o),
(496,-9,o),
(354,-9,cs),
(299,-9,o),
(245,0,o),
(199,22,c),
(230,81,l),
(271,59,o),
(316,49,o),
(366,49,cs),
(471,49,o),
(518,89,o),
(536,192,cs),
(548,260,o),
(508,319,o),
(439,332,cs),
(412,337,o),
(381,339,o),
(343,337,c),
(323,387,l),
(543,594,l),
(497,614,o),
(449,624,o),
(401,624,cs),
(253,624,o),
(199,577,o),
(174,434,cs),
(149,289,o),
(125,145,o),
(101,0,c),
(42,0,l),
(114,432,ls),
(145,616,o),
(223,682,o),
(411,682,cs),
(474,682,o),
(541,665,o),
(612,633,c),
(601,565,l),
(536,508,o),
(470,451,o),
(406,394,c),
(410,394,o),
(417,395,o),
(427,395,c)
);
}
);
width = 682;
}
);
unicode = 7838;
},
{
glyphname = T;
layers = (
{
layerId = "2C0B2ACE-7C1A-4B57-8C98-FB1544B085A1";
name = "#instance";
width = 582;
},
{
layerId = "A4A8100D-CD7C-4210-8FBB-9BAC01333E3B";
shapes = (
{
closed = 1;
nodes = (
(62.516,517,l),
(87.618,667,l),
(624.618,667,l),
(599.516,517,l),
(429.516,517,l),
(343,0,l),
(142,0,l),
(228.516,517,l)
);
}
);
width = 589;
},
{
layerId = "9C97EF7B-4204-4453-A40E-5E225C581DA5";
shapes = (
{
closed = 1;
nodes = (
(69.402,594,l),
(81.618,667,l),
(624.618,667,l),
(612.402,594,l),
(382.402,594,l),
(283,0,l),
(202,0,l),
(301.402,594,l)
);
}
);
width = 583;
},
{
layerId = "4611C1FA-12BE-43C5-8830-F68BB93ACC2D";
shapes = (
{
closed = 1;
nodes = (
(70.912,609,l),
(80.618,667,l),
(624.618,667,l),
(614.912,609,l),
(372.912,609,l),
(271,0,l),
(214,0,l),
(315.912,609,l)
);
}
);
width = 582;
}
);
unicode = 84;
},
{
glyphname = U;
layers = (
{
layerId = "A4A8100D-CD7C-4210-8FBB-9BAC01333E3B";
shapes = (
{
closed = 1;
nodes = (
(126.618,667,l),
(332.618,667,l),
(273.044,311,ls),
(248.612,165,o),
(263.918,125,o),
(345.918,125,cs),
(417.918,125,o),
(457.444,164,o),
(472.003,251,cs),
(541.618,667,l),
(737.618,667,l),
(676.203,300,ls),
(634.534,51,o),
(554.649,-26,o),
(337.649,-26,cs),
(126.649,-26,o),
(26.379,68,o),
(54.995,239,c)
);
}
);
width = 741;
},
{
layerId = "9C97EF7B-4204-4453-A40E-5E225C581DA5";
shapes = (
{
closed = 1;
nodes = (
(144.618,667,l),
(225.618,667,l),
(160.354,277,ls),
(137.428,140,o),
(192.543,63,o),
(308.543,63,cs),
(440.543,63,o),
(503.081,120,o),
(527.68,267,cs),
(594.618,667,l),
(673.618,667,l),
(608.856,280,ls),
(574.551,75,o),
(482.159,-11,o),
(298.159,-11,cs),
(139.159,-11,o),
(50.404,104,o),
(78.183,270,cs)
);
}
);
width = 695;
},
{
layerId = "4611C1FA-12BE-43C5-8830-F68BB93ACC2D";
shapes = (
{
closed = 1;
nodes = (
(148.618,667,l),
(204.618,667,l),
(138.183,270,ls),
(115.591,135,o),
(178.367,50,o),
(300.367,50,cs),
(445.367,50,o),
(511.575,111,o),
(538.183,270,cs),
(604.618,667,l),
(660.618,667,l),
(595.187,276,ls),
(562.387,80,o),
(467.661,-8,o),
(289.661,-8,cs),
(141.661,-8,o),
(55.575,111,o),
(83.187,276,c)
);
}
);
width = 686;
}
);
unicode = 85;
},
{
glyphname = V;
layers = (
{
layerId = "A4A8100D-CD7C-4210-8FBB-9BAC01333E3B";
shapes = (
{
closed = 1;
nodes = (
(423,0,l),
(206,0,l),
(72,667,l),
(307,667,l),
(354,217,l),
(569,666,l),
(798,667,l)
);
}
);
width = 746;
},
{
layerId = "9C97EF7B-4204-4453-A40E-5E225C581DA5";
shapes = (
{
closed = 1;
nodes = (
(306,0,l),
(224,0,l),
(81,667,l),
(169,667,l),
(286,104,l),
(587,665,l),
(675,667,l)
);
}
);
width = 632;
},
{
layerId = "4611C1FA-12BE-43C5-8830-F68BB93ACC2D";
shapes = (
{
closed = 1;
nodes = (
(282,0,l),
(228,0,l),
(83,667,l),
(141,667,l),
(272,81,l),
(591,665,l),
(650,667,l)
);
}
);
width = 609;
}
);
leftKerningGroup = _V;
rightKerningGroup = _V;
unicode = 86;
},
{
glyphname = W;
layers = (
{
layerId = "2C0B2ACE-7C1A-4B57-8C98-FB1544B085A1";
name = "#instance";
width = 970;
},
{
layerId = "A4A8100D-CD7C-4210-8FBB-9BAC01333E3B";
shapes = (
{
closed = 1;
nodes = (
(775,0,l),
(577,0,l),
(525.758,381,l),
(348,0,l),
(150,0,l),
(86.618,667,l),
(307.618,667,l),
(309.166,246,l),
(499.618,667,l),
(647.618,667,l),
(695.832,244,l),
(840.618,667,l),
(1061.618,667,l)
);
}
);
width = 1025;
},
{
layerId = "9C97EF7B-4204-4453-A40E-5E225C581DA5";
shapes = (
{
closed = 1;
nodes = (
(693,0,l),
(610,0,l),
(530.532,541,l),
(269,0,l),
(187,0,l),
(86.618,667,l),
(172.618,667,l),
(252.24,109,l),
(512.618,667,l),
(590.618,667,l),
(666.073,108,l),
(929.618,667,l),
(1015.618,667,l)
);
}
);
width = 979;
},
{
layerId = "4611C1FA-12BE-43C5-8830-F68BB93ACC2D";
shapes = (
{
closed = 1;
nodes = (
(676,0,l),
(617,0,l),
(530.887,573,l),
(253,0,l),
(194,0,l),
(86.618,667,l),
(145.618,667,l),
(240.555,81,l),
(515.618,667,l),
(578.618,667,l),
(660.555,81,l),
(947.618,667,l),
(1006.618,667,l)
);
}
);
width = 970;
}
);
leftKerningGroup = _V;
rightKerningGroup = _V;
unicode = 87;
},
{
glyphname = X;
layers = (
{
layerId = "2C0B2ACE-7C1A-4B57-8C98-FB1544B085A1";
name = "#instance";
width = 574;
},
{
layerId = "A4A8100D-CD7C-4210-8FBB-9BAC01333E3B";
shapes = (
{
closed = 1;
nodes = (
(328,165,l),
(202,0,l),
(-27,0,l),
(243,329,l),
(71,667,l),
(322,667,l),
(403,494,l),
(530,667,l),
(763,667,l),
(493,330,l),
(659,0,l),
(408,0,l)
);
}
);
width = 718;
},
{
layerId = "9C97EF7B-4204-4453-A40E-5E225C581DA5";
shapes = (
{
closed = 1;
nodes = (
(291,268,l),
(60,0,l),
(-37,0,l),
(255,337,l),
(79,667,l),
(177,667,l),
(316,406,l),
(543,667,l),
(641,667,l),
(354,336,l),
(532,0,l),
(435,0,l)
);
}
);
width = 598;
},
{
layerId = "4611C1FA-12BE-43C5-8830-F68BB93ACC2D";
shapes = (
{
closed = 1;
nodes = (
(284,288,l),
(32,0,l),
(-39,0,l),
(257,339,l),
(81,667,l),
(148,667,l),
(299,388,l),
(545,667,l),
(616,667,l),
(326,337,l),
(507,0,l),
(440,0,l)
);
}
);
width = 574;
}
);
unicode = 88;
},
{
glyphname = Y;
layers = (
{
layerId = "2C0B2ACE-7C1A-4B57-8C98-FB1544B085A1";
name = "#instance";
width = 582;
},
{
layerId = "A4A8100D-CD7C-4210-8FBB-9BAC01333E3B";
shapes = (
{
closed = 1;
nodes = (
(431,0,l),
(230,0,l),
(272.338,253,l),
(86.618,667,l),
(333.618,667,l),
(397.125,431,l),
(546.618,667,l),
(768.618,667,l),
(472.668,249,l)
);
}
);
width = 733;
},
{
layerId = "9C97EF7B-4204-4453-A40E-5E225C581DA5";
shapes = (
{
closed = 1;
nodes = (
(294,0,l),
(213,0,l),
(263.537,302,l),
(74.618,667,l),
(172.618,667,l),
(315.423,379,l),
(554.618,667,l),
(651.618,667,l),
(344.537,302,l)
);
}
);
width = 607;
},
{
layerId = "4611C1FA-12BE-43C5-8830-F68BB93ACC2D";
shapes = (
{
closed = 1;
nodes = (
(266,0,l),
(209,0,l),
(261.211,312,l),
(72.618,667,l),
(140.618,667,l),
(298.749,369,l),
(556.618,667,l),
(627.618,667,l),
(318.378,313,l)
);
}
);
width = 582;
}
);
leftKerningGroup = _Y;
rightKerningGroup = _Y;
unicode = 89;
},
{
glyphname = Z;
layers = (
{
layerId = "2C0B2ACE-7C1A-4B57-8C98-FB1544B085A1";
name = "#instance";
width = 605;
},
{
layerId = "A4A8100D-CD7C-4210-8FBB-9BAC01333E3B";
shapes = (
{
closed = 1;
nodes = (
(279.269,151,l),
(570.269,151,l),
(545,0,l),
(0,0,l),
(23.763,142,l),
(387.014,514,l),
(88.014,514,l),
(113.618,667,l),
(656.618,667,l),
(633.19,527,l)
);
}
);
width = 645;
},
{
layerId = "9C97EF7B-4204-4453-A40E-5E225C581DA5";
shapes = (
{
closed = 1;
nodes = (
(126.383,74,l),
(505.383,74,l),
(493,0,l),
(13,0,l),
(24.547,69,l),
(496.234,593,l),
(122.234,593,l),
(134.618,667,l),
(604.618,667,l),
(593.406,600,l)
);
}
);
width = 612;
},
{
layerId = "4611C1FA-12BE-43C5-8830-F68BB93ACC2D";
shapes = (
{
closed = 1;
nodes = (
(95.706,58,l),
(492.706,58,l),
(483,0,l),
(16,0,l),
(25.037,54,l),
(517.912,609,l),
(128.912,609,l),
(138.618,667,l),
(594.618,667,l),
(585.916,615,l)
);
}
);
width = 605;
}
);
unicode = 90;
},
{
glyphname = a;
layers = (
{
layerId = "A4A8100D-CD7C-4210-8FBB-9BAC01333E3B";
shapes = (
{
closed = 1;
nodes = (
(473.522,33,l),
(441.51,15,o),
(300.49,-15,o),
(227.49,-15,cs),
(67.49,-15,o),
(-11.8,49,o),
(7.11,162,cs),
(24.178,264,o),
(99.044,311,o),
(244.044,311,cs),
(269.044,311,o),
(300.207,306,o),
(338.701,297,c),
(346.733,345,ls),
(351.084,371,o),
(330.264,390,o),
(295.264,390,cs),
(251.264,390,o),
(194.921,376,o),
(134.407,355,c),
(109.161,485,l),
(173.679,512,o),
(250.692,530,o),
(314.692,530,c),
(460.855,525,o),
(545.472,451,o),
(527.231,342,c)
);
},
{
closed = 1;
nodes = (
(216.648,219,o),
(194.803,202,o),
(188.612,165,cs),
(183.926,137,o),
(212.077,114,o),
(249.077,114,cs),
(271.077,114,o),
(291.579,117,o),
(309.75,124,c),
(323.64,207,l),
(315.975,209,o),
(291.648,219,o),
(259.648,219,cs)
);
}
);
width = 580;
},
{
layerId = "9C97EF7B-4204-4453-A40E-5E225C581DA5";
shapes = (
{
closed = 1;
nodes = (
(434.196,43,l),
(393.175,13,o),
(296.49,-15,o),
(210.49,-15,cs),
(87.49,-15,o),
(16.534,51,o),
(33.101,150,cs),
(50.338,253,o),
(125.039,305,o),
(251.039,305,cs),
(308.039,305,o),
(355.533,296,o),
(393.689,279,c),
(402.558,332,ls),
(413.77,399,o),
(376.129,437,o),
(300.129,437,cs),
(251.129,437,o),
(189.284,420,o),
(133.598,392,c),
(121.145,461,l),
(190.5,493,o),
(255.345,510,o),
(311.345,510,cs),
(435.177,509,o),
(502.802,447,o),
(486.235,348,cs)
);
},
{
closed = 1;
nodes = (
(166.497,242,o),
(123.309,211,o),
(113.101,150,cs),
(103.396,92,o),
(146.037,54,o),
(222.037,54,cs),
(280.037,54,o),
(326.71,64,o),
(361.224,85,c),
(382.979,215,l),
(350.823,232,o),
(303.497,242,o),
(243.497,242,cs)
);
}
);
width = 556;
},
{
layerId = "4611C1FA-12BE-43C5-8830-F68BB93ACC2D";
shapes = (
{
closed = 1;
nodes = (
(426.53,45,l),
(383.175,13,o),
(295.49,-15,o),
(206.49,-15,cs),
(91.49,-15,o),
(22.534,51,o),
(38.767,148,cs),
(56.003,251,o),
(129.872,304,o),
(252.872,304,cs),
(315.872,304,o),
(366.199,294,o),
(404.019,275,c),
(413.056,329,ls),
(425.774,405,o),
(385.635,446,o),
(300.635,446,cs),
(250.635,446,o),
(187.79,429,o),
(133.77,399,c),
(123.308,456,l),
(193.831,489,o),
(256.675,506,o),
(310.675,506,cs),
(429.675,506,o),
(493.635,446,o),
(477.403,349,c)
);
},
{
closed = 1;
nodes = (
(156.166,246,o),
(108.644,213,o),
(97.599,147,cs),
(86.889,83,o),
(133.028,42,o),
(216.028,42,cs),
(282.028,42,o),
(333.869,53,o),
(370.885,77,c),
(394.146,216,l),
(357.493,236,o),
(306.166,246,o),
(240.166,246,cs)
);
}
);
width = 551;
}
);
leftKerningGroup = _a1;
unicode = 97;
},
{
glyphname = ae;
layers = (
{
layerId = "2C0B2ACE-7C1A-4B57-8C98-FB1544B085A1";
name = "#instance";
shapes = (
{
closed = 1;
nodes = (
(459.33,241,l),
(438.579,117,o),
(475.53,45,o),
(580.53,45,cs),
(631.53,45,o),
(696.208,61,o),
(756.396,92,c),
(768.857,35,l),
(695.167,1,o),
(628.49,-15,o),
(570.49,-15,cs),
(504.49,-15,o),
(456.837,5,o),
(426.865,47,c),
(424.522,33,o),
(364.008,12,o),
(335.502,3,cs),
(295.494,-9,o),
(252.49,-15,o),
(206.49,-15,cs),
(90.49,-15,o),
(22.534,51,o),
(38.767,148,cs),
(56.003,251,o),
(130.872,304,o),
(252.872,304,cs),
(314.872,304,o),
(364.199,294,o),
(403.187,276,c),
(407.035,299,o),
(410.044,311,o),
(413.056,329,cs),
(426.61,410,o),
(393.635,446,o),
(300.635,446,cs),
(250.635,446,o),
(187.79,429,o),
(133.77,399,c),
(123.308,456,l),
(193.831,489,o),
(256.675,506,o),
(310.675,506,cs),
(400.675,506,o),
(454.324,480,o),
(473.79,429,c),
(518.324,480,o),
(578.675,506,o),
(654.675,506,cs),
(782.675,506,o),
(853.435,397,o),
(825.33,241,c)
);
},
{
closed = 1;
nodes = (
(771.537,302,l),
(779.431,391,o),
(730.969,448,o),
(645.969,448,cs),
(548.969,448,o),
(500.443,409,o),
(470.537,302,c)
);
},
{
closed = 1;
nodes = (
(392.473,206,l),
(356.497,242,o),
(293.166,246,o),
(240.166,246,cs),
(154.166,246,o),
(108.477,212,o),
(97.599,147,cs),
(86.722,82,o),
(132.028,42,o),
(216.028,42,cs),
(282.028,42,o),
(333.869,53,o),
(370.885,77,c)
);
}
);
width = 853;
},
{
layerId = "A4A8100D-CD7C-4210-8FBB-9BAC01333E3B";
shapes = (
{
closed = 1;
nodes = (
(509.305,205,l),
(498.607,159,o),
(525.918,125,o),
(581.918,125,cs),
(631.918,125,o),
(684.926,137,o),
(746.607,159,c),
(775.02,30,l),
(707.502,3,o),
(626.49,-15,o),
(558.49,-15,cs),
(507.49,-15,o),
(462.163,-5,o),
(424.51,15,c),
(395.171,7,o),
(359.833,-1,o),
(324.996,-6,cs),
(289.992,-12,o),
(255.49,-15,o),
(227.49,-15,cs),
(56.49,-15,o),
(-12.972,42,o),
(7.11,162,cs),
(23.676,261,o),
(110.044,311,o),
(244.044,311,cs),
(269.044,311,o),
(300.207,306,o),
(338.701,297,c),
(341.378,313,o),
(344.056,329,o),
(346.733,345,cs),
(352.088,377,o),
(325.264,390,o),
(295.264,390,cs),
(251.264,390,o),
(195.088,377,o),
(134.407,355,c),
(109.161,485,l),
(172.679,512,o),
(250.692,530,o),
(314.692,530,c),
(386.19,527,o),
(440.847,513,o),
(477.496,487,c),
(525.349,516,o),
(580.692,530,o),
(643.692,530,cs),
(807.692,530,o),
(868.953,424,o),
(830.305,205,c)
);
},
{
closed = 1;
nodes = (
(666.031,293,l),
(679.745,363,o),
(659.1,395,o),
(613.1,395,cs),
(566.1,395,o),
(526.905,352,o),
(521.031,293,c)
);
},
{
closed = 1;
nodes = (
(323.64,207,l),
(314.477,212,o),
(291.648,219,o),
(259.648,219,cs),
(219.648,219,o),
(193.966,197,o),
(188.612,165,cs),
(183.424,134,o),
(211.077,114,o),
(249.077,114,cs),
(271.077,114,o),
(291.579,117,o),
(309.75,124,c)
);
}
);
width = 877;
},
{
layerId = "9C97EF7B-4204-4453-A40E-5E225C581DA5";
shapes = (
{
closed = 1;
nodes = (
(467.326,235,l),
(448.75,124,o),
(483.706,58,o),
(580.706,58,cs),
(631.706,58,o),
(694.383,74,o),
(755.236,103,c),
(769.69,34,l),
(697.167,1,o),
(628.49,-15,o),
(568.49,-15,cs),
(505.49,-15,o),
(457.502,3,o),
(427.028,42,c),
(419.853,29,o),
(363.673,10,o),
(334.335,2,cs),
(294.327,-10,o),
(253.49,-15,o),
(210.49,-15,cs),
(84.49,-15,o),
(16.367,50,o),
(33.101,150,cs),
(50.338,253,o),
(127.039,305,o),
(251.039,305,cs),
(307.039,305,o),
(353.533,296,o),
(392.856,280,c),
(396.37,301,o),
(399.546,314,o),
(402.558,332,cs),
(414.774,405,o),
(382.129,437,o),
(300.129,437,cs),
(251.129,437,o),
(189.284,420,o),
(133.598,392,c),
(121.145,461,l),
(190.5,493,o),
(255.345,510,o),
(311.345,510,cs),
(398.345,510,o),
(452.329,486,o),
(474.463,439,c),
(519.329,486,o),
(579.345,510,o),
(653.345,510,cs),
(787.345,510,o),
(856.272,402,o),
(826.326,235,c)
);
},
{
closed = 1;
nodes = (
(754.37,301,l),
(762.594,386,o),
(719.463,439,o),
(640.463,439,cs),
(551.463,439,o),
(504.937,400,o),
(479.37,301,c)
);
},
{
closed = 1;
nodes = (
(381.473,206,l),
(349.66,237,o),
(293.497,242,o),
(243.497,242,cs),
(165.497,242,o),
(123.142,210,o),
(113.101,150,cs),
(103.228,91,o),
(145.037,54,o),
(222.037,54,cs),
(280.037,54,o),
(326.71,64,o),
(361.224,85,c)
);
}
);
width = 857;
},
{
layerId = "4611C1FA-12BE-43C5-8830-F68BB93ACC2D";
shapes = (
{
closed = 1;
nodes = (
(459.33,241,l),
(438.579,117,o),
(475.53,45,o),
(580.53,45,cs),
(631.53,45,o),
(696.208,61,o),
(756.396,92,c),
(768.857,35,l),
(695.167,1,o),
(628.49,-15,o),
(570.49,-15,cs),
(504.49,-15,o),
(456.837,5,o),
(426.865,47,c),
(424.522,33,o),
(364.008,12,o),
(335.502,3,cs),
(295.494,-9,o),
(252.49,-15,o),
(206.49,-15,cs),
(90.49,-15,o),
(22.534,51,o),
(38.767,148,cs),
(56.003,251,o),
(130.872,304,o),
(252.872,304,cs),
(314.872,304,o),
(364.199,294,o),
(403.187,276,c),
(407.035,299,o),
(410.044,311,o),
(413.056,329,cs),
(426.61,410,o),
(393.635,446,o),
(300.635,446,cs),
(250.635,446,o),
(187.79,429,o),
(133.77,399,c),
(123.308,456,l),
(193.831,489,o),
(256.675,506,o),
(310.675,506,cs),
(400.675,506,o),
(454.324,480,o),
(473.79,429,c),
(518.324,480,o),
(578.675,506,o),
(654.675,506,cs),
(782.675,506,o),
(853.435,397,o),
(825.33,241,c)
);
},
{
closed = 1;
nodes = (
(771.537,302,l),
(779.431,391,o),
(730.969,448,o),
(645.969,448,cs),
(548.969,448,o),
(500.443,409,o),
(470.537,302,c)
);
},
{
closed = 1;
nodes = (
(392.473,206,l),
(356.497,242,o),
(293.166,246,o),
(240.166,246,cs),
(154.166,246,o),
(108.477,212,o),
(97.599,147,cs),
(86.722,82,o),
(132.028,42,o),
(216.028,42,cs),
(282.028,42,o),
(333.869,53,o),
(370.885,77,c)
);
}
);
width = 853;
}
);
leftKerningGroup = _a1;
unicode = 230;
},
{
glyphname = b;
layers = (
{
layerId = "A4A8100D-CD7C-4210-8FBB-9BAC01333E3B";
shapes = (
{
closed = 1;
nodes = (
(14,24,l),
(125,689,l),
(303,689,l),
(273,505,l),
(306,520,o),
(349,526,o),
(394,526,cs),
(531,526,o),
(604,422,o),
(578,265,c),
(544,55,o),
(462,-15,o),
(253,-15,cs),
(175,-15,o),
(129,-9,o),
(60,11,c)
);
},
{
closed = 1;
nodes = (
(290,382,o),
(267,377,o),
(249,367,c),
(213,147,l),
(234,139,o),
(253,138,o),
(280,138,cs),
(349,138,o),
(383,172,o),
(397,252,cs),
(411,334,o),
(382,382,o),
(317,382,cs)
);
}
);
width = 615;
},
{
layerId = "9C97EF7B-4204-4453-A40E-5E225C581DA5";
shapes = (
{
closed = 1;
nodes = (
(32,24,l),
(147,709,l),
(226,709,l),
(188,480,l),
(228,495,o),
(282,509,o),
(317,509,cs),
(455,509,o),
(537,403,o),
(512,257,cs),
(479,55,o),
(401,-15,o),
(214,-15,cs),
(140,-15,o),
(101,-6,o),
(40,22,c)
);
},
{
closed = 1;
nodes = (
(260,437,o),
(219,425,o),
(176,404,c),
(121,74,l),
(154,62,o),
(190,57,o),
(229,57,cs),
(356,57,o),
(403,105,o),
(429,256,cs),
(447,362,o),
(394,437,o),
(301,437,cs)
);
}
);
width = 573;
},
{
layerId = "4611C1FA-12BE-43C5-8830-F68BB93ACC2D";
shapes = (
{
closed = 1;
nodes = (
(151,713,l),
(211,713,l),
(171,475,l),
(212,490,o),
(269,505,o),
(302,505,cs),
(440,505,o),
(523,399,o),
(499,255,cs),
(466,55,o),
(389,-15,o),
(206,-15,cs),
(133,-15,o),
(95,-5,o),
(36,24,c)
);
},
{
closed = 1;
nodes = (
(254,448,o),
(209,435,o),
(161,411,c),
(102,59,l),
(138,47,o),
(177,41,o),
(219,41,cs),
(357,41,o),
(407,91,o),
(435,257,cs),
(454,368,o),
(396,448,o),
(298,448,cs)
);
}
);
width = 564;
}
);
rightKerningGroup = _b;
unicode = 98;
},
{
glyphname = c;
layers = (
{
layerId = "A4A8100D-CD7C-4210-8FBB-9BAC01333E3B";
shapes = (
{
closed = 1;
nodes = (
(54.129,437,o),
(156.855,525,o),
(349.855,525,cs),
(414.855,525,o),
(489.508,505,o),
(544.655,476,c),
(474.725,333,l),
(430.741,357,o),
(376.586,374,o),
(324.586,374,cs),
(259.586,374,o),
(218.394,337,o),
(207.015,269,cs),
(193.293,187,o),
(222.759,136,o),
(285.759,136,cs),
(337.759,136,o),
(396.603,153,o),
(448.452,176,c),
(471.69,34,l),
(406.837,5,o),
(327.49,-15,o),
(260.49,-15,cs),
(109.49,-15,o),
(-1.429,105,o),
(21.832,244,cs)
);
}
);
width = 546;
},
{
layerId = "9C97EF7B-4204-4453-A40E-5E225C581DA5";
shapes = (
{
closed = 1;
nodes = (
(76.125,431,o),
(158.177,509,o),
(316.177,509,cs),
(369.177,509,o),
(425.5,493,o),
(480.145,461,c),
(443.1,395,l),
(395.451,421,o),
(349.961,436,o),
(303.961,436,cs),
(195.961,436,o),
(147.427,385,o),
(125.17,252,cs),
(105.257,133,o),
(146.877,65,o),
(241.877,65,cs),
(288.877,65,o),
(340.387,80,o),
(396.24,109,c),
(410.861,41,l),
(345.339,8,o),
(283.661,-8,o),
(229.661,-8,cs),
(94.661,-8,o),
(20.065,96,o),
(45.836,250,cs)
);
}
);
width = 503;
},
{
layerId = "4611C1FA-12BE-43C5-8830-F68BB93ACC2D";
shapes = (
{
closed = 1;
nodes = (
(79.957,430,o),
(157.675,506,o),
(309.675,506,cs),
(359.675,506,o),
(411.998,490,o),
(467.643,458,c),
(436.108,407,l),
(388.627,434,o),
(343.969,448,o),
(299.969,448,cs),
(182.969,448,o),
(133.1,395,o),
(108.501,248,cs),
(87.416,122,o),
(131.534,51,o),
(233.534,51,cs),
(278.534,51,o),
(328.877,65,o),
(385.898,95,c),
(398.028,42,l),
(332.506,9,o),
(274.829,-7,o),
(223.829,-7,cs),
(91.829,-7,o),
(23.73,94,o),
(50.003,251,cs)
);
}
);
width = 494;
}
);
leftKerningGroup = _c;
unicode = 99;
},
{
glyphname = ccedilla;
layers = (
{
layerId = "2C0B2ACE-7C1A-4B57-8C98-FB1544B085A1";
name = "#instance";
shapes = (
{
closed = 1;
nodes = (
(472,34,l),
(425,13,o),
(378,-1,o),
(327,-9,c),
(260,-139,l),
(101,-139,l),
(212,-12,l),
(87,5,o),
(2,120,o),
(22,244,cs),
(53,439,o),
(155,525,o),
(350,525,cs),
(415,525,o),
(490,505,o),
(545,476,c),
(475,333,l),
(431,357,o),
(377,374,o),
(325,374,cs),
(258,374,o),
(220,338,o),
(207,269,cs),
(192,188,o),
(223,136,o),
(286,136,cs),
(338,136,o),
(397,153,o),
(448,176,c)
);
}
);
width = 546;
},
{
layerId = "A4A8100D-CD7C-4210-8FBB-9BAC01333E3B";
shapes = (
{
closed = 1;
nodes = (
(472,34,l),
(425,13,o),
(378,-1,o),
(327,-9,c),
(260,-139,l),
(101,-139,l),
(212,-12,l),
(87,5,o),
(2,120,o),
(22,244,cs),
(53,439,o),
(155,525,o),
(350,525,cs),
(415,525,o),
(490,505,o),
(545,476,c),
(475,333,l),
(431,357,o),
(377,374,o),
(325,374,cs),
(258,374,o),
(220,338,o),
(207,269,cs),
(192,188,o),
(223,136,o),
(286,136,cs),
(338,136,o),
(397,153,o),
(448,176,c)
);
}
);
width = 546;
},
{
layerId = "9C97EF7B-4204-4453-A40E-5E225C581DA5";
shapes = (
{
closed = 1;
nodes = (
(410,41,l),
(353,12,o),
(301,-3,o),
(255,-7,c),
(177,-122,l),
(95,-122,l),
(193,-6,l),
(83,7,o),
(19,89,o),
(45,250,cs),
(76,434,o),
(178,509,o),
(317,509,cs),
(369,509,o),
(425,493,o),
(481,461,c),
(443,395,l),
(396,421,o),
(350,436,o),
(304,436,cs),
(201,436,o),
(146,377,o),
(125,252,cs),
(104,125,o),
(142,65,o),
(243,65,cs),
(289,65,o),
(340,80,o),
(396,109,c)
);
}
);
width = 503;
},
{
layerId = "4611C1FA-12BE-43C5-8830-F68BB93ACC2D";
shapes = (
{
closed = 1;
nodes = (
(398,42,l),
(339,12,o),
(286,-3,o),
(240,-6,c),
(160,-118,l),
(94,-118,l),
(189,-5,l),
(82,7,o),
(22,83,o),
(50,251,cs),
(80,433,o),
(183,506,o),
(310,506,cs),
(360,506,o),
(412,490,o),
(468,458,c),
(436,407,l),
(389,434,o),
(344,448,o),
(300,448,cs),
(189,448,o),
(131,385,o),
(109,248,cs),
(86,112,o),
(126,51,o),
(234,51,cs),
(279,51,o),
(329,65,o),
(386,95,c)
);
}
);
width = 494;
}
);
leftKerningGroup = _c;
unicode = 231;
},
{
glyphname = d;
layers = (
{
layerId = "A4A8100D-CD7C-4210-8FBB-9BAC01333E3B";
shapes = (
{
closed = 1;
nodes = (
(80.49,-15,o),
(-7.278,82,o),
(24.007,257,c),
(55.969,448,o),
(143.524,529,o),
(317.524,529,cs),
(362.524,529,o),
(396.688,524,o),
(420.512,511,c),
(454.817,716,l),
(635.817,716,l),
(519.682,22,l),
(466.833,-1,o),
(368.49,-15,o),
(265.49,-15,cs)
);
},
{
closed = 1;
nodes = (
(252.427,385,o),
(222.741,357,o),
(205.17,252,cs),
(192.954,179,o),
(226.759,136,o),
(297.759,136,cs),
(316.759,136,o),
(337.424,134,o),
(358.595,141,c),
(396.917,370,l),
(379.59,380,o),
(360.427,385,o),
(346.427,385,cs)
);
}
);
width = 626;
},
{
layerId = "9C97EF7B-4204-4453-A40E-5E225C581DA5";
shapes = (
{
closed = 1;
nodes = (
(92.49,-15,o),
(18.396,92,o),
(46.84,256,c),
(76.459,433,o),
(158.177,509,o),
(318.177,509,cs),
(351.177,509,o),
(407.002,496,o),
(445.324,480,c),
(483.813,710,l),
(562.813,710,l),
(453.037,54,l),
(402.008,12,o),
(321.49,-15,o),
(233.49,-15,cs)
);
},
{
closed = 1;
nodes = (
(203.296,438,o),
(151.26,384,o),
(129.84,256,cs),
(108.42,128,o),
(151.539,57,o),
(250.539,57,cs),
(298.539,57,o),
(342.379,68,o),
(380.563,93,c),
(432.439,403,l),
(397.953,424,o),
(349.296,438,o),
(309.296,438,cs)
);
}
);
width = 573;
},
{
layerId = "4611C1FA-12BE-43C5-8830-F68BB93ACC2D";
shapes = (
{
closed = 1;
nodes = (
(95.49,-15,o),
(23.73,94,o),
(50.84,256,cs),
(79.957,430,o),
(160.508,505,o),
(318.508,505,cs),
(348.508,505,o),
(408.998,490,o),
(450.32,474,c),
(489.646,709,l),
(548.646,709,l),
(440.041,60,l),
(388.343,14,o),
(311.49,-15,o),
(227.49,-15,cs)
);
},
{
closed = 1;
nodes = (
(193.969,448,o),
(137.096,389,o),
(115.007,257,cs),
(91.746,118,o),
(136.861,41,o),
(240.861,41,cs),
(294.861,41,o),
(343.204,55,o),
(384.889,83,c),
(439.61,410,l),
(401.459,433,o),
(346.969,448,o),
(301.969,448,cs)
);
}
);
width = 562;
}
);
leftKerningGroup = _c;
unicode = 100;
},
{
glyphname = eth;
layers = (
{
layerId = "2C0B2ACE-7C1A-4B57-8C98-FB1544B085A1";
name = "#instance";
shapes = (
{
closed = 1;
nodes = (
(511,61,o),
(432,-25,o),
(244,-25,cs),
(76,-25,o),
(-7,77,o),
(23,252,cs),
(55,440,o),
(131,525,o),
(265,525,cs),
(314,525,o),
(364,516,o),
(395,474,c),
(392,505,o),
(382,535,o),
(365,564,c),
(243,540,l),
(235,638,l),
(295,648,l),
(287,657,o),
(264,673,o),
(234,692,c),
(348,806,l),
(369,788,o),
(387,773,o),
(402,760,cs),
(437,729,ls),
(453,714,o),
(467,698,o),
(478,681,c),
(596,699,l),
(612,612,l),
(528,595,l),
(561,524,o),
(572,422,o),
(553,310,cs)
);
},
{
closed = 1;
nodes = (
(386,346,o),
(390,357,o),
(394,362,c),
(376,393,o),
(351,410,o),
(317,410,cs),
(254,410,o),
(221,365,o),
(202,252,cs),
(186,158,o),
(207,117,o),
(268,117,cs),
(331,117,o),
(349,161,o),
(383,331,cs)
);
}
);
width = 589;
},
{
layerId = "A4A8100D-CD7C-4210-8FBB-9BAC01333E3B";
shapes = (
{
closed = 1;
nodes = (
(511,61,o),
(432,-25,o),
(244,-25,cs),
(76,-25,o),
(-7,77,o),
(23,252,cs),
(55,440,o),
(131,525,o),
(265,525,cs),
(314,525,o),
(364,516,o),
(395,474,c),
(392,505,o),
(382,535,o),
(365,564,c),
(243,540,l),
(235,638,l),
(295,648,l),
(287,657,o),
(264,673,o),
(234,692,c),
(348,806,l),
(369,788,o),
(387,773,o),
(402,760,cs),
(437,729,ls),
(453,714,o),
(467,698,o),
(478,681,c),
(596,699,l),
(612,612,l),
(528,595,l),
(561,524,o),
(572,422,o),
(553,310,cs)
);
},
{
closed = 1;
nodes = (
(386,346,o),
(390,357,o),
(394,362,c),
(376,393,o),
(351,410,o),
(317,410,cs),
(254,410,o),
(221,365,o),
(202,252,cs),
(186,158,o),
(207,117,o),
(268,117,cs),
(331,117,o),
(349,161,o),
(383,331,cs)
);
}
);
width = 589;
},
{
layerId = "9C97EF7B-4204-4453-A40E-5E225C581DA5";
shapes = (
{
closed = 1;
nodes = (
(479,73,o),
(393,-16,o),
(234,-16,cs),
(90,-16,o),
(17,85,o),
(46,249,cs),
(78,435,o),
(154,509,o),
(315,509,cs),
(348,509,o),
(378,503,o),
(402,487,c),
(390,513,o),
(373,541,o),
(352,571,c),
(217,548,l),
(217,608,l),
(307,623,l),
(290,642,o),
(257,670,o),
(239,690,c),
(301,744,l),
(312,733,o),
(330,719,o),
(350,697,cs),
(380,665,ls),
(390,655,o),
(397,646,o),
(404,639,c),
(511,656,l),
(511,596,l),
(443,585,l),
(505,486,o),
(529,381,o),
(511,274,cs)
);
},
{
closed = 1;
nodes = (
(439,317,o),
(438,358,o),
(430,399,c),
(399,424,o),
(355,440,o),
(309,440,cs),
(198,440,o),
(148,388,o),
(125,249,cs),
(104,125,o),
(147,55,o),
(244,55,cs),
(359,55,o),
(402,107,o),
(431,275,cs)
);
}
);
width = 569;
},
{
layerId = "4611C1FA-12BE-43C5-8830-F68BB93ACC2D";
shapes = (
{
closed = 1;
nodes = (
(472,75,o),
(385,-14,o),
(232,-14,cs),
(93,-14,o),
(22,87,o),
(50,248,cs),
(82,434,o),
(158,506,o),
(325,506,cs),
(355,506,o),
(381,500,o),
(403,490,c),
(389,514,o),
(371,542,o),
(349,572,c),
(212,550,l),
(213,602,l),
(309,618,l),
(291,639,o),
(256,669,o),
(240,689,c),
(292,731,l),
(301,722,o),
(318,708,o),
(339,684,cs),
(368,652,ls),
(377,643,o),
(383,636,o),
(389,630,c),
(494,647,l),
(491,593,l),
(426,583,l),
(494,478,o),
(520,373,o),
(503,267,cs)
);
},
{
closed = 1;
nodes = (
(449,311,o),
(447,358,o),
(437,406,c),
(403,430,o),
(356,446,o),
(307,446,cs),
(187,446,o),
(133,392,o),
(109,248,cs),
(87,118,o),
(135,43,o),
(239,43,cs),
(364,43,o),
(412,96,o),
(441,264,cs)
);
}
);
width = 565;
}
);
unicode = 240;
},
{
glyphname = e;
layers = (
{
layerId = "A4A8100D-CD7C-4210-8FBB-9BAC01333E3B";
shapes = (
{
closed = 1;
nodes = (
(54.631,440,o),
(152.692,530,o),
(335.692,530,cs),
(488.692,530,o),
(557.61,410,o),
(522.305,205,c),
(201.305,205,l),
(190.11,162,o),
(222.918,125,o),
(272.918,125,cs),
(320.918,125,o),
(374.759,136,o),
(438.607,159,c),
(467.02,30,l),
(399.502,3,o),
(318.49,-15,o),
(249.49,-15,cs),
(103.49,-15,o),
(-1.596,104,o),
(21.832,244,cs)
);
},
{
closed = 1;
nodes = (
(255.1,395,o),
(218.072,353,o),
(213.031,293,c),
(358.031,293,l),
(370.741,357,o),
(350.1,395,o),
(304.1,395,cs)
);
}
);
width = 569;
},
{
layerId = "9C97EF7B-4204-4453-A40E-5E225C581DA5";
shapes = (
{
closed = 1;
nodes = (
(76.125,431,o),
(156.345,510,o),
(310.345,510,cs),
(443.345,510,o),
(513.77,399,o),
(485.326,235,c),
(124.326,235,l),
(105.922,131,o),
(153.706,58,o),
(239.706,58,cs),
(289.706,58,o),
(352.383,74,o),
(413.236,103,c),
(428.69,34,l),
(356.167,1,o),
(286.49,-15,o),
(227.49,-15,cs),
(95.49,-15,o),
(19.898,95,o),
(45.836,250,cs)
);
},
{
closed = 1;
nodes = (
(202.463,439,o),
(164.941,406,o),
(137.37,301,c),
(412.37,301,l),
(421.427,385,o),
(376.463,439,o),
(298.463,439,cs)
);
}
);
width = 549;
},
{
layerId = "4611C1FA-12BE-43C5-8830-F68BB93ACC2D";
shapes = (
{
closed = 1;
nodes = (
(79.79,429,o),
(156.675,506,o),
(305.675,506,cs),
(434.675,506,o),
(505.435,397,o),
(477.33,241,c),
(108.33,241,l),
(88.918,125,o),
(139.53,45,o),
(232.53,45,cs),
(283.53,45,o),
(348.208,61,o),
(408.396,92,c),
(420.857,35,l),
(347.167,1,o),
(280.49,-15,o),
(222.49,-15,cs),
(94.49,-15,o),
(23.563,93,o),
(50.003,251,cs)
);
},
{
closed = 1;
nodes = (
(191.969,448,o),
(153.615,416,o),
(121.537,302,c),
(423.537,302,l),
(431.431,391,o),
(381.969,448,o),
(296.969,448,cs)
);
}
);
width = 545;
}
);
leftKerningGroup = _c;
unicode = 101;
},
{
glyphname = f;
layers = (
{
layerId = "A4A8100D-CD7C-4210-8FBB-9BAC01333E3B";
shapes = (
{
closed = 1;
nodes = (
(60,499,l),
(130,499,l),
(136,540,ls),
(159,675,o),
(242,726,o),
(374,726,cs),
(393,726,o),
(458,710,o),
(484,694,c),
(418,566,l),
(398,578,o),
(386,584,o),
(363,584,cs),
(346,584,o),
(323,568,o),
(318,540,cs),
(312,499,l),
(411,499,l),
(387,358,l),
(287,358,l),
(227,0,l),
(44,0,l),
(104,358,l),
(36,358,l)
);
}
);
width = 402;
},
{
layerId = "9C97EF7B-4204-4453-A40E-5E225C581DA5";
shapes = (
{
closed = 1;
nodes = (
(73,499,l),
(158,499,l),
(163,527,ls),
(182,643,o),
(238,710,o),
(357,710,cs),
(386,710,o),
(420,701,o),
(446,688,c),
(414,622,l),
(397,631,o),
(369,639,o),
(347,639,cs),
(291,639,o),
(255,605,o),
(242,528,c),
(238,499,l),
(372,499,l),
(360,428,l),
(225,428,l),
(154,0,l),
(74,0,l),
(146,428,l),
(61,428,l)
);
}
);
width = 377;
},
{
layerId = "4611C1FA-12BE-43C5-8830-F68BB93ACC2D";
shapes = (
{
closed = 1;
nodes = (
(76,499,l),
(164,499,l),
(168,524,ls),
(187,637,o),
(237,707,o),
(353,707,cs),
(384,707,o),
(412,699,o),
(438,687,c),
(413,633,l),
(397,641,o),
(366,650,o),
(344,650,cs),
(280,650,o),
(241,612,o),
(227,526,cs),
(223,499,l),
(364,499,l),
(354,442,l),
(213,442,l),
(139,0,l),
(80,0,l),
(154,442,l),
(66,442,l)
);
}
);
width = 372;
}
);
rightKerningGroup = _f;
unicode = 102;
},
{
glyphname = g;
layers = (
{
layerId = "A4A8100D-CD7C-4210-8FBB-9BAC01333E3B";
shapes = (
{
closed = 1;
nodes = (
(50.637,-44,l),
(107.286,-70,o),
(158.111,-83,o),
(208.111,-83,cs),
(286.111,-83,o),
(314.959,-60,o),
(326.506,9,cs),
(331.024,36,l),
(299.008,12,o),
(256.502,3,o),
(200.502,3,cs),
(77.502,3,o),
(-1.262,106,o),
(20.66,237,cs),
(58.145,461,o),
(137.022,526,o),
(369.022,526,cs),
(421.022,526,o),
(479.679,512,o),
(586.329,486,c),
(559.219,324,o),
(531.277,163,o),
(504.167,1,cs),
(477.058,-161,o),
(374.842,-234,o),
(178.842,-234,cs),
(110.842,-234,o),
(32.189,-214,o),
(-21.958,-185,c)
);
},
{
closed = 1;
nodes = (
(386.08,365,l),
(368.419,373,o),
(350.753,375,o),
(322.753,375,cs),
(249.753,375,o),
(217.064,341,o),
(201.836,250,cs),
(190.456,182,o),
(221.587,129,o),
(274.587,129,c),
(307.587,129,o),
(326.257,133,o),
(351.44,158,c)
);
}
);
width = 603;
},
{
layerId = "9C97EF7B-4204-4453-A40E-5E225C581DA5";
shapes = (
{
closed = 1;
nodes = (
(43.278,-82,l),
(93.425,-111,o),
(149.747,-127,o),
(203.747,-127,cs),
(302.747,-127,o),
(348.27,-94,o),
(361.992,-12,cs),
(368.016,24,l),
(326.339,8,o),
(263.163,-5,o),
(230.163,-5,cs),
(82.163,-5,o),
(18.893,89,o),
(43.493,236,cs),
(76.125,431,o),
(159.177,509,o),
(335.177,509,cs),
(411.177,509,o),
(456.002,496,o),
(521.818,471,c),
(497.721,327,o),
(474.624,183,o),
(450.526,39,cs),
(418.899,-150,o),
(362.364,-201,o),
(190.364,-201,cs),
(130.364,-201,o),
(66.376,-183,o),
(5.564,-152,c)
);
},
{
closed = 1;
nodes = (
(434.451,421,l),
(410.623,428,o),
(368.129,437,o),
(327.129,437,cs),
(202.129,437,o),
(151.594,386,o),
(126.66,237,cs),
(108.587,129,o),
(146.543,63,o),
(245.543,63,cs),
(291.543,63,o),
(337.383,74,o),
(380.4,98,c)
);
}
);
width = 571;
},
{
layerId = "4611C1FA-12BE-43C5-8830-F68BB93ACC2D";
shapes = (
{
closed = 1;
nodes = (
(42.107,-89,l),
(91.086,-119,o),
(148.241,-136,o),
(202.241,-136,cs),
(306.241,-136,o),
(355.098,-101,o),
(369.323,-16,cs),
(375.682,22,l),
(331.171,7,o),
(263.996,-6,o),
(235.996,-6,cs),
(82.996,-6,o),
(22.224,85,o),
(47.493,236,cs),
(79.121,425,o),
(162.508,505,o),
(328.508,505,cs),
(409.508,505,o),
(451.5,493,o),
(509.316,468,c),
(485.721,327,o),
(463.293,187,o),
(439.698,46,cs),
(407.233,-148,o),
(359.536,-194,o),
(192.536,-194,cs),
(134.536,-194,o),
(73.38,-177,o),
(10.735,-145,c)
);
},
{
closed = 1;
nodes = (
(444.292,432,l),
(418.463,439,o),
(371.137,449,o),
(328.137,449,cs),
(192.137,449,o),
(138.1,395,o),
(111.158,234,cs),
(91.746,118,o),
(131.367,50,o),
(239.367,50,cs),
(288.367,50,o),
(339.375,62,o),
(386.391,86,c)
);
}
);
width = 565;
}
);
unicode = 103;
},
{
glyphname = h;
layers = (
{
layerId = "2C0B2ACE-7C1A-4B57-8C98-FB1544B085A1";
name = "#instance";
shapes = (
{
closed = 1;
nodes = (
(450,0,l),
(371,0,l),
(418.86,286,ls),
(434.59,380,o),
(406.129,437,o),
(318.129,437,cs),
(274.129,437,o),
(224.953,424,o),
(174.77,399,c),
(152.513,266,o),
(131.257,133,o),
(109,0,c),
(28,0,l),
(148.152,718,l),
(228.152,718,l),
(186.484,469,l),
(235.5,493,o),
(295.177,509,o),
(343.177,509,cs),
(469.177,509,o),
(523.631,440,o),
(500.203,300,cs)
);
}
);
width = 579;
},
{
layerId = "A4A8100D-CD7C-4210-8FBB-9BAC01333E3B";
shapes = (
{
closed = 1;
nodes = (
(517,0,l),
(334,0,l),
(374.497,242,ls),
(390.394,337,o),
(398.251,372,o),
(314.251,372,cs),
(290.251,372,o),
(257.578,362,o),
(253.407,355,c),
(232.66,237,o),
(211.746,118,o),
(191,0,c),
(10,0,l),
(127.14,700,l),
(311.14,700,l),
(278.508,505,l),
(326.851,519,o),
(355.855,525,o),
(405.855,525,cs),
(527.855,525,o),
(595.316,468,o),
(575.235,348,c)
);
}
);
width = 627;
},
{
layerId = "9C97EF7B-4204-4453-A40E-5E225C581DA5";
shapes = (
{
closed = 1;
nodes = (
(450,0,l),
(371,0,l),
(418.86,286,ls),
(434.59,380,o),
(406.129,437,o),
(318.129,437,cs),
(274.129,437,o),
(224.953,424,o),
(174.77,399,c),
(152.513,266,o),
(131.257,133,o),
(109,0,c),
(28,0,l),
(148.152,718,l),
(228.152,718,l),
(186.484,469,l),
(235.5,493,o),
(295.177,509,o),
(343.177,509,cs),
(469.177,509,o),
(523.631,440,o),
(500.203,300,cs)
);
}
);
width = 579;
},
{
layerId = "4611C1FA-12BE-43C5-8830-F68BB93ACC2D";
shapes = (
{
closed = 1;
nodes = (
(437,0,l),
(378,0,l),
(427.366,295,ls),
(442.929,388,o),
(407.304,450,o),
(319.304,450,cs),
(271.304,450,o),
(217.961,436,o),
(159.276,408,c),
(136.517,272,o),
(114.759,136,o),
(92,0,c),
(32,0,l),
(152.821,722,l),
(211.821,722,l),
(168.312,462,l),
(217.663,488,o),
(282.675,506,o),
(330.675,506,cs),
(457.675,506,o),
(509.627,434,o),
(485.529,290,c)
);
}
);
width = 569;
}
);
unicode = 104;
},
{
glyphname = i;
layers = (
{
layerId = "A4A8100D-CD7C-4210-8FBB-9BAC01333E3B";
shapes = (
{
closed = 1;
nodes = (
(322.678,757,l),
(293.728,584,l),
(107.728,584,l),
(136.678,757,l)
);
},
{
closed = 1;
nodes = (
(278.504,499,l),
(196,0,l),
(13,0,l),
(96.504,499,l)
);
}
);
width = 306;
},
{
layerId = "9C97EF7B-4204-4453-A40E-5E225C581DA5";
shapes = (
{
closed = 1;
nodes = (
(228.789,674,l),
(214.397,588,l),
(126.397,588,l),
(140.789,674,l)
);
},
{
closed = 1;
nodes = (
(196.504,499,l),
(113,0,l),
(33,0,l),
(116.504,499,l)
);
}
);
width = 244;
},
{
layerId = "4611C1FA-12BE-43C5-8830-F68BB93ACC2D";
shapes = (
{
closed = 1;
nodes = (
(209.944,657,l),
(198.565,589,l),
(130.565,589,l),
(141.944,657,l)
);
},
{
closed = 1;
nodes = (
(179.504,499,l),
(96,0,l),
(37,0,l),
(120.504,499,l)
);
}
);
width = 232;
}
);
unicode = 105;
},
{
glyphname = dotlessi;
layers = (
{
layerId = "2C0B2ACE-7C1A-4B57-8C98-FB1544B085A1";
name = "#instance";
width = 224;
},
{
layerId = "A4A8100D-CD7C-4210-8FBB-9BAC01333E3B";
shapes = (
{
closed = 1;
nodes = (
(275.504,499,l),
(194,0,l),
(10,0,l),
(93.504,499,l)
);
}
);
width = 304;
},
{
layerId = "9C97EF7B-4204-4453-A40E-5E225C581DA5";
shapes = (
{
closed = 1;
nodes = (
(192.504,499,l),
(108,0,l),
(28,0,l),
(111.504,499,l)
);
}
);
width = 237;
},
{
layerId = "4611C1FA-12BE-43C5-8830-F68BB93ACC2D";
shapes = (
{
closed = 1;
nodes = (
(175.504,499,l),
(91,0,l),
(32,0,l),
(115.504,499,l)
);
}
);
width = 224;
}
);
unicode = 305;
},
{
glyphname = j;
layers = (
{
layerId = "A4A8100D-CD7C-4210-8FBB-9BAC01333E3B";
shapes = (
{
closed = 1;
nodes = (
(338.352,767,l),
(309.402,594,l),
(123.402,594,l),
(152.352,767,l)
);
},
{
closed = 1;
nodes = (
(31.024,36,o),
(35.71,64,o),
(40.396,92,cs),
(110.177,509,l),
(292.177,509,l),
(264.896,340,o),
(237.448,170,o),
(210.167,1,c),
(190.421,-117,o),
(101.703,-193,o),
(-19.297,-193,cs),
(-48.297,-193,o),
(-77.46,-188,o),
(-107.954,-179,c),
(-52.02,-30,l),
(-42.522,-33,o),
(-32.857,-35,o),
(-23.857,-35,cs),
(1.143,-35,o),
(21.151,-23,o),
(26.339,8,cs)
);
}
);
width = 320;
},
{
layerId = "9C97EF7B-4204-4453-A40E-5E225C581DA5";
shapes = (
{
closed = 1;
nodes = (
(255.789,674,l),
(241.397,588,l),
(154.397,588,l),
(168.789,674,l)
);
},
{
closed = 1;
nodes = (
(24.768,-97,o),
(49.127,-59,o),
(59,0,cs),
(142.671,500,l),
(223.671,500,l),
(197.399,343,o),
(170.293,187,o),
(143.853,29,cs),
(122.433,-99,o),
(78.544,-182,o),
(-19.456,-182,cs),
(-39.456,-182,o),
(-61.787,-178,o),
(-84.448,-170,c),
(-50.902,-101,l),
(-40.738,-106,o),
(-28.073,-108,o),
(-17.073,-108,c),
(-23.073,-108,o),
(-14.738,-106,o),
(-8.902,-101,c)
);
}
);
width = 272;
},
{
layerId = "4611C1FA-12BE-43C5-8830-F68BB93ACC2D";
shapes = (
{
closed = 1;
nodes = (
(239.609,655,l),
(228.23,587,l),
(160.23,587,l),
(171.609,655,l)
);
},
{
closed = 1;
nodes = (
(23.417,-123,o),
(52.111,-83,o),
(62.988,-18,cs),
(149.337,498,l),
(209.337,498,l),
(183.399,343,o),
(156.795,190,o),
(130.857,35,cs),
(109.102,-95,o),
(73.878,-180,o),
(-20.122,-180,cs),
(-38.122,-180,o),
(-58.452,-176,o),
(-80.114,-168,c),
(-51.244,-115,l),
(-40.081,-120,o),
(-27.583,-123,o),
(-15.583,-123,c),
(-27.583,-123,o),
(-21.583,-123,o),
(-15.583,-123,cs)
);
}
);
width = 262;
}
);
unicode = 106;
},
{
glyphname = k;
layers = (
{
layerId = "A4A8100D-CD7C-4210-8FBB-9BAC01333E3B";
shapes = (
{
closed = 1;
nodes = (
(228.313,217,l),
(191,0,l),
(10,0,l),
(127.14,700,l),
(311.14,700,l),
(245.215,318,l),
(389.177,509,l),
(620.177,509,l),
(402.525,284,l),
(547,0,l),
(318,0,l)
);
}
);
width = 621;
},
{
layerId = "9C97EF7B-4204-4453-A40E-5E225C581DA5";
shapes = (
{
closed = 1;
nodes = (
(146.485,224,l),
(109,0,l),
(28,0,l),
(143.466,690,l),
(223.466,690,l),
(157.362,289,l),
(395.671,500,l),
(506.671,500,l),
(225.509,260,l),
(440,0,l),
(334,0,l)
);
}
);
width = 519;
},
{
layerId = "4611C1FA-12BE-43C5-8830-F68BB93ACC2D";
shapes = (
{
closed = 1;
nodes = (
(129.652,225,l),
(92,0,l),
(32,0,l),
(147.132,688,l),
(206.132,688,l),
(139.358,283,l),
(397.337,498,l),
(484.337,498,l),
(189.672,255,l),
(418,0,l),
(337,0,l)
);
}
);
width = 498;
}
);
unicode = 107;
},
{
glyphname = l;
layers = (
{
layerId = "A4A8100D-CD7C-4210-8FBB-9BAC01333E3B";
shapes = (
{
closed = 1;
nodes = (
(127.14,700,l),
(308.14,700,l),
(191,0,l),
(10,0,l)
);
}
);
width = 301;
},
{
layerId = "9C97EF7B-4204-4453-A40E-5E225C581DA5";
shapes = (
{
closed = 1;
nodes = (
(143.466,690,l),
(224.466,690,l),
(109,0,l),
(28,0,l)
);
}
);
width = 237;
},
{
layerId = "4611C1FA-12BE-43C5-8830-F68BB93ACC2D";
shapes = (
{
closed = 1;
nodes = (
(147.132,688,l),
(207.132,688,l),
(92,0,l),
(32,0,l)
);
}
);
width = 224;
}
);
unicode = 108;
},
{
glyphname = m;
layers = (
{
layerId = "2C0B2ACE-7C1A-4B57-8C98-FB1544B085A1";
name = "#instance";
shapes = (
{
closed = 1;
nodes = (
(758,0,l),
(678,0,l),
(732,324,ls),
(745,401,o),
(707,439,o),
(621,439,cs),
(579,439,o),
(539,427,o),
(499,406,c),
(504,385,o),
(504,358,o),
(498,327,c),
(444,0,l),
(364,0,l),
(418,324,ls),
(431,401,o),
(393,439,o),
(307,439,cs),
(265,439,o),
(209,426,o),
(177,410,c),
(109,0,l),
(28,0,l),
(105,457,l),
(174,491,o),
(251,509,o),
(330,509,cs),
(395,509,o),
(442,496,o),
(469,469,c),
(524,495,o),
(584,509,o),
(644,509,cs),
(782,509,o),
(833,450,o),
(812,327,cs)
);
}
);
width = 887;
},
{
layerId = "A4A8100D-CD7C-4210-8FBB-9BAC01333E3B";
shapes = (
{
closed = 1;
nodes = (
(820,0,l),
(638,0,l),
(689,304,ls),
(697,353,o),
(674,377,o),
(619,377,cs),
(598,377,o),
(581,373,o),
(570,365,c),
(568,359,o),
(566,353,o),
(564,347,c),
(506,0,l),
(324,0,l),
(375,304,ls),
(383,353,o),
(360,377,o),
(305,377,cs),
(281,377,o),
(260,367,o),
(253,363,c),
(192,0,l),
(10,0,l),
(88,466,l),
(136,489,o),
(299,525,o),
(382,525,cs),
(451,525,o),
(499,514,o),
(526,491,c),
(583,512,o),
(647,525,o),
(696,525,cs),
(843,525,o),
(900,477,o),
(878,347,c)
);
}
);
width = 930;
},
{
layerId = "9C97EF7B-4204-4453-A40E-5E225C581DA5";
shapes = (
{
closed = 1;
nodes = (
(758,0,l),
(678,0,l),
(732,324,ls),
(745,401,o),
(707,439,o),
(621,439,cs),
(579,439,o),
(539,427,o),
(499,406,c),
(504,385,o),
(504,358,o),
(498,327,c),
(444,0,l),
(364,0,l),
(418,324,ls),
(431,401,o),
(393,439,o),
(307,439,cs),
(265,439,o),
(209,426,o),
(177,410,c),
(109,0,l),
(28,0,l),
(105,457,l),
(174,491,o),
(251,509,o),
(330,509,cs),
(395,509,o),
(442,496,o),
(469,469,c),
(524,495,o),
(584,509,o),
(644,509,cs),
(782,509,o),
(833,450,o),
(812,327,cs)
);
}
);
width = 887;
},
{
layerId = "4611C1FA-12BE-43C5-8830-F68BB93ACC2D";
shapes = (
{
closed = 1;
nodes = (
(745,0,l),
(686,0,l),
(741,328,ls),
(755,410,o),
(714,451,o),
(621,451,cs),
(575,451,o),
(530,438,o),
(485,414,c),
(491,390,o),
(491,359,o),
(485,323,cs),
(431,0,l),
(372,0,l),
(427,328,ls),
(441,410,o),
(400,451,o),
(307,451,cs),
(262,451,o),
(199,438,o),
(162,419,c),
(92,0,l),
(32,0,l),
(108,455,l),
(181,491,o),
(241,506,o),
(320,506,cs),
(384,506,o),
(430,492,o),
(458,464,c),
(512,492,o),
(571,506,o),
(634,506,cs),
(770,506,o),
(819,445,o),
(799,323,c)
);
}
);
width = 878;
}
);
leftKerningGroup = _m;
unicode = 109;
},
{
glyphname = n;
layers = (
{
layerId = "A4A8100D-CD7C-4210-8FBB-9BAC01333E3B";
shapes = (
{
closed = 1;
nodes = (
(527.855,525,o),
(595.99,478,o),
(574.068,347,cs),
(516,0,l),
(334,0,l),
(383.868,298,ls),
(391.901,346,o),
(369.084,371,o),
(328.084,371,cs),
(310.084,371,o),
(260.411,361,o),
(251.574,356,c),
(192,0,l),
(10,0,l),
(90.492,481,l),
(145.006,502,o),
(255.855,525,o),
(338.855,525,cs)
);
}
);
width = 626;
},
{
layerId = "9C97EF7B-4204-4453-A40E-5E225C581DA5";
shapes = (
{
closed = 1;
nodes = (
(468.177,509,o),
(519.304,450,o),
(498.721,327,cs),
(444,0,l),
(365,0,l),
(419.052,323,ls),
(431.77,399,o),
(393.296,438,o),
(308.296,438,cs),
(271.296,438,o),
(223.121,425,o),
(176.606,404,c),
(109,0,l),
(28,0,l),
(104.308,456,l),
(171.998,490,o),
(252.177,509,o),
(327.177,509,cs)
);
}
);
width = 573;
},
{
layerId = "4611C1FA-12BE-43C5-8830-F68BB93ACC2D";
shapes = (
{
closed = 1;
nodes = (
(456.675,506,o),
(504.3,444,o),
(484.052,323,cs),
(430,0,l),
(371,0,l),
(425.888,328,ls),
(439.61,410,o),
(398.472,451,o),
(304.472,451,cs),
(263.472,451,o),
(215.296,438,o),
(161.28,414,c),
(92,0,l),
(32,0,l),
(107.472,451,l),
(177.496,487,o),
(251.675,506,o),
(324.675,506,cs)
);
}
);
width = 562;
}
);
leftKerningGroup = _m;
unicode = 110;
},
{
glyphname = o;
layers = (
{
layerId = "A4A8100D-CD7C-4210-8FBB-9BAC01333E3B";
shapes = (
{
closed = 1;
nodes = (
(58.48,463,o),
(134.692,530,o),
(337.692,530,cs),
(507.692,530,o),
(591.623,428,o),
(563.174,258,cs),
(530.543,63,o),
(441.49,-15,o),
(245.49,-15,cs),
(83.49,-15,o),
(-3.604,92,o),
(24.174,258,cs)
);
},
{
closed = 1;
nodes = (
(397.235,348,o),
(375.096,389,o),
(313.096,389,cs),
(245.096,389,o),
(220.243,360,o),
(203.174,258,cs),
(188.783,172,o),
(212.253,127,o),
(269.253,127,cs),
(332.253,127,o),
(367.114,168,o),
(382.174,258,cs)
);
}
);
width = 599;
},
{
layerId = "9C97EF7B-4204-4453-A40E-5E225C581DA5";
shapes = (
{
closed = 1;
nodes = (
(76.627,434,o),
(155.345,510,o),
(319.345,510,cs),
(459.345,510,o),
(535.606,404,o),
(509.668,249,cs),
(479.547,69,o),
(393.49,-15,o),
(233.49,-15,cs),
(93.49,-15,o),
(19.061,90,o),
(45.668,249,cs)
);
},
{
closed = 1;
nodes = (
(449.582,368,o),
(405.296,438,o),
(308.296,438,cs),
(198.296,438,o),
(147.594,386,o),
(124.668,249,cs),
(104.587,129,o),
(148.371,56,o),
(244.371,56,cs),
(352.371,56,o),
(406.742,112,o),
(429.668,249,cs)
);
}
);
width = 572;
},
{
layerId = "4611C1FA-12BE-43C5-8830-F68BB93ACC2D";
shapes = (
{
closed = 1;
nodes = (
(79.623,428,o),
(159.675,506,o),
(315.675,506,cs),
(449.675,506,o),
(524.77,399,o),
(499.334,247,cs),
(469.714,70,o),
(384.49,-15,o),
(231.49,-15,cs),
(95.49,-15,o),
(22.893,89,o),
(49.334,247,cs)
);
},
{
closed = 1;
nodes = (
(460.251,372,o),
(410.969,448,o),
(306.969,448,cs),
(188.969,448,o),
(132.431,391,o),
(108.334,247,cs),
(87.081,120,o),
(136.028,42,o),
(239.028,42,cs),
(357.028,42,o),
(414.902,101,o),
(439.334,247,cs)
);
}
);
width = 566;
}
);
leftKerningGroup = _c;
rightKerningGroup = _b;
unicode = 111;
},
{
glyphname = oslash;
layers = (
{
layerId = "2C0B2ACE-7C1A-4B57-8C98-FB1544B085A1";
name = "#instance";
shapes = (
{
closed = 1;
nodes = (
(573.051,568,l),
(505.079,610,l),
(16.804,-43,l),
(84.776,-85,l)
);
},
{
closed = 1;
nodes = (
(-3.604,92,o),
(83.49,-15,o),
(245.49,-15,cs),
(441.49,-15,o),
(530.543,63,o),
(563.174,258,cs),
(591.623,428,o),
(507.692,530,o),
(337.692,530,cs),
(134.692,530,o),
(58.48,463,o),
(24.174,258,cs)
);
},
{
closed = 1;
nodes = (
(367.114,168,o),
(332.253,127,o),
(269.253,127,cs),
(212.253,127,o),
(188.783,172,o),
(203.174,258,cs),
(220.243,360,o),
(245.096,389,o),
(313.096,389,cs),
(375.096,389,o),
(397.235,348,o),
(382.174,258,cs)
);
}
);
width = 599;
},
{
layerId = "A4A8100D-CD7C-4210-8FBB-9BAC01333E3B";
shapes = (
{
closed = 1;
nodes = (
(573.051,568,l),
(505.079,610,l),
(16.804,-43,l),
(84.776,-85,l)
);
},
{
closed = 1;
nodes = (
(-3.604,92,o),
(83.49,-15,o),
(245.49,-15,cs),
(441.49,-15,o),
(530.543,63,o),
(563.174,258,cs),
(591.623,428,o),
(507.692,530,o),
(337.692,530,cs),
(134.692,530,o),
(58.48,463,o),
(24.174,258,cs)
);
},
{
closed = 1;
nodes = (
(367.114,168,o),
(332.253,127,o),
(269.253,127,cs),
(212.253,127,o),
(188.783,172,o),
(203.174,258,cs),
(220.243,360,o),
(245.096,389,o),
(313.096,389,cs),
(375.096,389,o),
(397.235,348,o),
(382.174,258,cs)
);
}
);
width = 599;
},
{
layerId = "9C97EF7B-4204-4453-A40E-5E225C581DA5";
shapes = (
{
closed = 1;
nodes = (
(538.034,544,l),
(484.724,578,l),
(20.637,-44,l),
(73.947,-78,l)
);
},
{
closed = 1;
nodes = (
(19.061,90,o),
(93.49,-15,o),
(233.49,-15,cs),
(393.49,-15,o),
(479.547,69,o),
(509.668,249,cs),
(535.606,404,o),
(459.345,510,o),
(319.345,510,cs),
(155.345,510,o),
(76.627,434,o),
(45.668,249,cs)
);
},
{
closed = 1;
nodes = (
(406.742,112,o),
(352.371,56,o),
(244.371,56,cs),
(148.371,56,o),
(104.587,129,o),
(124.668,249,cs),
(147.594,386,o),
(198.296,438,o),
(308.296,438,cs),
(405.296,438,o),
(449.582,368,o),
(429.668,249,cs)
);
}
);
width = 572;
},
{
layerId = "4611C1FA-12BE-43C5-8830-F68BB93ACC2D";
shapes = (
{
closed = 1;
nodes = (
(531.198,539,l),
(480.72,572,l),
(21.637,-44,l),
(72.115,-77,l)
);
},
{
closed = 1;
nodes = (
(22.893,89,o),
(95.49,-15,o),
(231.49,-15,cs),
(384.49,-15,o),
(469.714,70,o),
(499.334,247,cs),
(524.77,399,o),
(449.675,506,o),
(315.675,506,cs),
(159.675,506,o),
(79.623,428,o),
(49.334,247,cs)
);
},
{
closed = 1;
nodes = (
(414.902,101,o),
(357.028,42,o),
(239.028,42,cs),
(136.028,42,o),
(87.081,120,o),
(108.334,247,cs),
(132.431,391,o),
(188.969,448,o),
(306.969,448,cs),
(410.969,448,o),
(460.251,372,o),
(439.334,247,cs)
);
}
);
width = 566;
}
);
unicode = 248;
},
{
glyphname = oe;
layers = (
{
layerId = "2C0B2ACE-7C1A-4B57-8C98-FB1544B085A1";
name = "#instance";
shapes = (
{
closed = 1;
nodes = (
(559,205,l),
(557,195,o),
(557,186,o),
(558,178,cs),
(563,143,o),
(589,125,o),
(631,125,cs),
(679,125,o),
(733,136,o),
(797,159,c),
(824,30,l),
(757,3,o),
(676,-15,o),
(607,-15,cs),
(539,-15,o),
(481,3,o),
(439,38,c),
(390,3,o),
(322,-15,o),
(245,-15,cs),
(80,-15,o),
(-4,88,o),
(24,258,cs),
(58,468,o),
(133,530,o),
(338,530,cs),
(419,530,o),
(478,513,o),
(516,480,c),
(570,515,o),
(627,530,o),
(694,530,cs),
(848,530,o),
(917,413,o),
(880,205,c)
);
},
{
closed = 1;
nodes = (
(379,243,o),
(382,266,o),
(385,272,c),
(396,358,o),
(373,389,o),
(313,389,cs),
(242,389,o),
(220,363,o),
(203,258,cs),
(189,170,o),
(211,127,o),
(269,127,cs),
(322,127,o),
(360,164,o),
(377,235,cs)
);
},
{
closed = 1;
nodes = (
(715,293,l),
(727,358,o),
(708,395,o),
(662,395,cs),
(620,395,o),
(577,355,o),
(571,293,c)
);
}
);
width = 926;
},
{
layerId = "A4A8100D-CD7C-4210-8FBB-9BAC01333E3B";
shapes = (
{
closed = 1;
nodes = (
(559,205,l),
(557,195,o),
(557,186,o),
(558,178,c),
(563,143,o),
(589,125,o),
(631,125,cs),
(679,125,o),
(733,136,o),
(797,159,c),
(824,30,l),
(757,3,o),
(676,-15,o),
(607,-15,cs),
(539,-15,o),
(481,3,o),
(439,38,c),
(390,3,o),
(322,-15,o),
(245,-15,cs),
(80,-15,o),
(-4,88,o),
(24,258,cs),
(58,468,o),
(133,530,o),
(338,530,cs),
(419,530,o),
(478,513,o),
(516,480,c),
(570,515,o),
(627,530,o),
(694,530,cs),
(848,530,o),
(917,413,o),
(880,205,c)
);
},
{
closed = 1;
nodes = (
(379,243,o),
(382,266,o),
(385,272,c),
(396,358,o),
(373,389,o),
(313,389,cs),
(242,389,o),
(220,363,o),
(203,258,cs),
(189,170,o),
(211,127,o),
(269,127,cs),
(322,127,o),
(360,164,o),
(377,235,c)
);
},
{
closed = 1;
nodes = (
(715,293,l),
(727,358,o),
(708,395,o),
(662,395,cs),
(620,395,o),
(577,355,o),
(571,293,c)
);
}
);
width = 926;
},
{
layerId = "9C97EF7B-4204-4453-A40E-5E225C581DA5";
shapes = (
{
closed = 1;
nodes = (
(508,235,l),
(507,226,o),
(505,218,o),
(504,209,cs),
(497,119,o),
(544,58,o),
(623,58,cs),
(673,58,o),
(736,74,o),
(796,103,c),
(812,34,l),
(739,1,o),
(669,-15,o),
(610,-15,cs),
(534,-15,o),
(466,26,o),
(442,86,c),
(387,10,o),
(334,-15,o),
(233,-15,cs),
(90,-15,o),
(19,86,o),
(45,249,cs),
(76,436,o),
(153,510,o),
(320,510,cs),
(402,510,o),
(471,471,o),
(496,414,c),
(548,486,o),
(599,510,o),
(695,510,cs),
(830,510,o),
(898,402,o),
(868,235,c)
);
},
{
closed = 1;
nodes = (
(425,229,o),
(431,274,o),
(434,279,c),
(444,381,o),
(397,438,o),
(308,438,cs),
(196,438,o),
(147,387,o),
(124,249,cs),
(104,127,o),
(147,56,o),
(244,56,cs),
(346,56,o),
(396,101,o),
(424,220,c)
);
},
{
closed = 1;
nodes = (
(796,301,l),
(804,386,o),
(761,439,o),
(682,439,cs),
(586,439,o),
(549,408,o),
(521,301,c)
);
}
);
width = 932;
},
{
layerId = "4611C1FA-12BE-43C5-8830-F68BB93ACC2D";
shapes = (
{
closed = 1;
nodes = (
(498,241,l),
(497,232,o),
(494,224,o),
(493,215,c),
(484,114,o),
(535,45,o),
(621,45,cs),
(672,45,o),
(736,61,o),
(796,92,c),
(809,35,l),
(735,1,o),
(668,-15,o),
(610,-15,cs),
(533,-15,o),
(463,30,o),
(442,96,c),
(386,11,o),
(336,-15,o),
(231,-15,cs),
(92,-15,o),
(23,86,o),
(49,247,cs),
(79,430,o),
(157,506,o),
(316,506,cs),
(398,506,o),
(470,463,o),
(492,401,c),
(544,480,o),
(593,506,o),
(695,506,cs),
(826,506,o),
(894,400,o),
(865,241,c)
);
},
{
closed = 1;
nodes = (
(434,226,o),
(441,275,o),
(444,280,c),
(453,385,o),
(402,448,o),
(307,448,cs),
(187,448,o),
(132,392,o),
(108,247,cs),
(87,118,o),
(134,42,o),
(239,42,cs),
(351,42,o),
(403,88,o),
(433,217,c)
);
},
{
closed = 1;
nodes = (
(812,302,l),
(819,392,o),
(772,448,o),
(686,448,cs),
(579,448,o),
(543,419,o),
(511,302,c)
);
}
);
width = 933;
}
);
leftKerningGroup = _c;
unicode = 339;
},
{
glyphname = p;
layers = (
{
layerId = "A4A8100D-CD7C-4210-8FBB-9BAC01333E3B";
shapes = (
{
closed = 1;
nodes = (
(547,77,o),
(457,-15,o),
(313,-15,cs),
(264,-15,o),
(226,-8,o),
(189,8,c),
(160,-165,l),
(-18,-165,l),
(89,473,l),
(180,509,o),
(262,530,o),
(357,530,c),
(529,530,o),
(605,432,o),
(576,253,cs)
);
},
{
closed = 1;
nodes = (
(411,335,o),
(384,373,o),
(322,373,cs),
(288,373,o),
(270,372,o),
(249,364,c),
(212,143,l),
(225,133,o),
(246,128,o),
(274,128,cs),
(355,128,o),
(380,154,o),
(398,260,cs)
);
}
);
width = 615;
},
{
layerId = "9C97EF7B-4204-4453-A40E-5E225C581DA5";
shapes = (
{
closed = 1;
nodes = (
(480,64,o),
(393,-14,o),
(231,-14,cs),
(195,-14,o),
(145,-2,o),
(111,15,c),
(73,-213,l),
(-7,-213,l),
(107,466,l),
(167,489,o),
(245,508,o),
(320,510,c),
(461,510,o),
(536,401,o),
(509,238,cs)
);
},
{
closed = 1;
nodes = (
(447,367,o),
(404,437,o),
(306,437,cs),
(251,437,o),
(220,431,o),
(177,414,c),
(124,91,l),
(158,68,o),
(196,57,o),
(237,57,cs),
(347,57,o),
(405,113,o),
(426,238,cs)
);
}
);
width = 573;
},
{
layerId = "4611C1FA-12BE-43C5-8830-F68BB93ACC2D";
shapes = (
{
closed = 1;
nodes = (
(466,61,o),
(380,-14,o),
(214,-14,cs),
(181,-14,o),
(129,-1,o),
(95,16,c),
(55,-223,l),
(-5,-223,l),
(110,465,l),
(164,485,o),
(241,504,o),
(313,506,c),
(447,506,o),
(522,395,o),
(495,235,cs)
);
},
{
closed = 1;
nodes = (
(454,373,o),
(408,450,o),
(303,450,cs),
(243,450,o),
(210,443,o),
(163,424,c),
(106,81,l),
(144,55,o),
(186,43,o),
(230,43,cs),
(345,43,o),
(410,105,o),
(431,234,cs)
);
}
);
width = 564;
}
);
rightKerningGroup = _b;
unicode = 112;
},
{
glyphname = thorn;
layers = (
{
layerId = "2C0B2ACE-7C1A-4B57-8C98-FB1544B085A1";
name = "#instance";
shapes = (
{
closed = 1;
nodes = (
(537,64,o),
(447,-25,o),
(304,-25,cs),
(267,-25,o),
(223,-20,o),
(191,-1,c),
(161,-179,l),
(-20,-179,l),
(127,700,l),
(308,700,l),
(276,506,l),
(298,507,o),
(327,505,o),
(354,505,cs),
(515,505,o),
(594,405,o),
(565,233,cs)
);
},
{
closed = 1;
nodes = (
(399,316,o),
(376,355,o),
(320,355,cs),
(281,355,o),
(257,351,o),
(248,342,c),
(213,133,l),
(228,123,o),
(248,118,o),
(275,118,cs),
(345,118,o),
(370,145,o),
(386,240,cs)
);
}
);
width = 606;
},
{
layerId = "A4A8100D-CD7C-4210-8FBB-9BAC01333E3B";
shapes = (
{
closed = 1;
nodes = (
(537,64,o),
(447,-25,o),
(304,-25,cs),
(267,-25,o),
(223,-20,o),
(191,-1,c),
(161,-179,l),
(-20,-179,l),
(127,700,l),
(308,700,l),
(276,506,l),
(298,507,o),
(327,505,o),
(354,505,cs),
(515,505,o),
(594,405,o),
(565,233,cs)
);
},
{
closed = 1;
nodes = (
(399,316,o),
(376,355,o),
(320,355,cs),
(281,355,o),
(257,351,o),
(248,342,c),
(213,133,l),
(228,123,o),
(248,118,o),
(275,118,cs),
(345,118,o),
(370,145,o),
(386,240,cs)
);
}
);
width = 606;
},
{
layerId = "9C97EF7B-4204-4453-A40E-5E225C581DA5";
shapes = (
{
closed = 1;
nodes = (
(480,62,o),
(395,-15,o),
(230,-15,cs),
(199,-15,o),
(147,-3,o),
(111,14,c),
(75,-199,l),
(-5,-199,l),
(144,690,l),
(224,690,l),
(189,481,l),
(231,499,o),
(275,508,o),
(320,508,cs),
(458,508,o),
(535,398,o),
(508,237,cs)
);
},
{
closed = 1;
nodes = (
(447,364,o),
(404,436,o),
(307,436,cs),
(262,436,o),
(218,421,o),
(174,392,c),
(124,91,l),
(158,67,o),
(196,56,o),
(238,56,cs),
(347,56,o),
(404,112,o),
(425,238,cs)
);
}
);
width = 572;
},
{
layerId = "4611C1FA-12BE-43C5-8830-F68BB93ACC2D";
shapes = (
{
closed = 1;
nodes = (
(468,61,o),
(385,-13,o),
(215,-13,cs),
(185,-13,o),
(132,0,o),
(95,17,c),
(58,-203,l),
(-2,-203,l),
(147,688,l),
(207,688,l),
(172,476,l),
(217,497,o),
(265,508,o),
(313,508,cs),
(447,508,o),
(523,396,o),
(497,238,cs)
);
},
{
closed = 1;
nodes = (
(456,374,o),
(410,452,o),
(304,452,cs),
(258,452,o),
(210,435,o),
(159,402,c),
(106,82,l),
(144,56,o),
(186,44,o),
(230,44,cs),
(347,44,o),
(411,105,o),
(433,237,cs)
);
}
);
width = 565;
}
);
rightKerningGroup = _b;
unicode = 254;
},
{
glyphname = q;
layers = (
{
layerId = "A4A8100D-CD7C-4210-8FBB-9BAC01333E3B";
shapes = (
{
closed = 1;
nodes = (
(474,-185,l),
(296,-185,l),
(330,15,l),
(297,-7,o),
(258,-15,o),
(206,-15,cs),
(67,-15,o),
(-4,86,o),
(22,246,c),
(55,455,o),
(137,525,o),
(347,525,cs),
(444,525,o),
(489,514,o),
(586,486,c)
);
},
{
closed = 1;
nodes = (
(310,128,o),
(333,133,o),
(351,143,c),
(388,365,l),
(363,374,o),
(332,372,o),
(320,372,cs),
(251,372,o),
(216,338,o),
(203,259,cs),
(190,178,o),
(221,128,o),
(283,128,cs)
);
}
);
width = 615;
},
{
layerId = "9C97EF7B-4204-4453-A40E-5E225C581DA5";
shapes = (
{
closed = 1;
nodes = (
(407,-215,l),
(329,-215,l),
(368,15,l),
(325,-3,o),
(272,-14,o),
(239,-14,cs),
(98,-14,o),
(18,89,o),
(43,238,cs),
(77,438,o),
(156,509,o),
(341,509,cs),
(415,509,o),
(459,498,o),
(522,470,c)
);
},
{
closed = 1;
nodes = (
(295,57,o),
(336,68,o),
(380,91,c),
(435,421,l),
(399,432,o),
(360,437,o),
(325,437,cs),
(200,437,o),
(153,390,o),
(126,239,cs),
(108,131,o),
(159,57,o),
(254,57,cs)
);
}
);
width = 573;
},
{
layerId = "4611C1FA-12BE-43C5-8830-F68BB93ACC2D";
shapes = (
{
closed = 1;
nodes = (
(394,-221,l),
(335,-221,l),
(375,15,l),
(330,-2,o),
(275,-14,o),
(245,-14,cs),
(104,-14,o),
(22,90,o),
(47,236,cs),
(81,434,o),
(160,506,o),
(340,506,cs),
(409,506,o),
(453,495,o),
(509,467,c)
);
},
{
closed = 1;
nodes = (
(292,43,o),
(337,55,o),
(386,81,c),
(444,432,l),
(406,444,o),
(366,450,o),
(326,450,cs),
(190,450,o),
(140,400,o),
(111,235,cs),
(91,121,o),
(147,43,o),
(248,43,cs)
);
}
);
width = 564;
}
);
leftKerningGroup = _c;
unicode = 113;
},
{
glyphname = r;
layers = (
{
layerId = "A4A8100D-CD7C-4210-8FBB-9BAC01333E3B";
shapes = (
{
closed = 1;
nodes = (
(379.185,521,o),
(424.181,515,o),
(465.006,502,c),
(397.399,343,l),
(365.57,350,o),
(336.239,354,o),
(309.239,354,cs),
(294.239,354,o),
(275.072,353,o),
(250.57,350,c),
(192,0,l),
(10,0,l),
(88.484,469,l),
(156.839,501,o),
(245.185,521,o),
(330.185,521,cs)
);
}
);
width = 450;
},
{
layerId = "9C97EF7B-4204-4453-A40E-5E225C581DA5";
shapes = (
{
closed = 1;
nodes = (
(322.341,504,o),
(359.169,497,o),
(388.994,484,c),
(353.112,413,l),
(330.786,423,o),
(302.623,428,o),
(269.623,428,cs),
(232.623,428,o),
(201.619,422,o),
(177.945,412,c),
(109,0,l),
(28,0,l),
(105.312,462,l),
(154.831,489,o),
(214.341,504,o),
(278.341,504,cs)
);
}
);
width = 383;
},
{
layerId = "4611C1FA-12BE-43C5-8830-F68BB93ACC2D";
shapes = (
{
closed = 1;
nodes = (
(310.671,500,o),
(345.5,493,o),
(373.324,480,c),
(344.455,427,l),
(324.129,437,o),
(296.133,443,o),
(262.133,443,cs),
(220.133,443,o),
(186.961,436,o),
(162.953,424,c),
(92,0,l),
(32,0,l),
(109.145,461,l),
(154.496,487,o),
(207.671,500,o),
(267.671,500,cs)
);
}
);
width = 369;
}
);
rightKerningGroup = _f;
unicode = 114;
},
{
glyphname = s;
layers = (
{
layerId = "2C0B2ACE-7C1A-4B57-8C98-FB1544B085A1";
name = "#instance";
shapes = (
{
closed = 1;
nodes = (
(349.526,39,o),
(278.49,-15,o),
(163.49,-15,cs),
(113.49,-15,o),
(58.167,1,o),
(-1.143,35,c),
(36.893,89,l),
(75.543,63,o),
(130.53,45,o),
(173.53,45,cs),
(249.53,45,o),
(298.718,76,o),
(307.587,129,cs),
(315.787,178,o),
(295.134,198,o),
(218.317,223,cs),
(181.326,235,ls),
(101.509,260,o),
(56.362,289,o),
(69.582,368,cs),
(84.308,456,o),
(154.843,507,o),
(260.843,507,cs),
(308.843,507,o),
(363.998,490,o),
(425.476,457,c),
(387.774,405,l),
(347.623,428,o),
(292.635,446,o),
(250.635,446,cs),
(181.635,446,o),
(136.949,418,o),
(129.251,372,cs),
(118.542,308,o),
(190.366,295,o),
(237.358,283,c),
(324.836,250,o),
(380.652,225,o),
(365.926,137,cs)
);
}
);
width = 452;
},
{
layerId = "A4A8100D-CD7C-4210-8FBB-9BAC01333E3B";
shapes = (
{
closed = 1;
nodes = (
(424.359,38,o),
(336.49,-15,o),
(163.49,-15,cs),
(102.49,-15,o),
(34.335,2,o),
(-14.482,27,c),
(47.603,153,l),
(92.922,131,o),
(138.914,119,o),
(185.914,119,cs),
(225.914,119,o),
(240.085,126,o),
(243.934,149,cs),
(247.114,168,o),
(231.285,175,o),
(203.624,183,c),
(178.46,188,ls),
(99.138,204,o),
(37.836,250,o),
(53.566,344,cs),
(73.312,462,o),
(155.851,519,o),
(307.851,519,cs),
(368.851,519,o),
(436.006,502,o),
(486.99,478,c),
(423.57,350,l),
(384.917,370,o),
(332.594,386,o),
(285.594,386,cs),
(260.594,386,o),
(247.753,375,o),
(243.905,352,cs),
(239.219,324,o),
(257.215,318,o),
(305.709,309,c),
(385.199,294,o),
(459.668,249,o),
(443.603,153,cs)
);
}
);
width = 493;
},
{
layerId = "9C97EF7B-4204-4453-A40E-5E225C581DA5";
shapes = (
{
closed = 1;
nodes = (
(362.526,39,o),
(287.49,-15,o),
(163.49,-15,cs),
(111.49,-15,o),
(54.167,1,o),
(-3.31,34,c),
(38.734,100,l),
(78.383,74,o),
(131.539,57,o),
(175.539,57,cs),
(245.539,57,o),
(289.057,84,o),
(297.089,132,cs),
(304.452,176,o),
(284.464,194,o),
(216.146,216,cs),
(180.987,227,ls),
(101.003,251,o),
(53.358,283,o),
(66.913,364,cs),
(82.476,457,o),
(155.177,509,o),
(269.177,509,cs),
(319.177,509,o),
(376.333,492,o),
(436.145,461,c),
(394.268,396,l),
(353.949,418,o),
(298.961,436,o),
(256.961,436,cs),
(194.961,436,o),
(155.778,411,o),
(148.749,369,cs),
(139.044,311,o),
(202.035,299,o),
(249.027,287,c),
(335.007,257,o),
(394.321,229,o),
(379.428,140,cs)
);
}
);
width = 459;
},
{
layerId = "4611C1FA-12BE-43C5-8830-F68BB93ACC2D";
shapes = (
{
closed = 1;
nodes = (
(349.526,39,o),
(278.49,-15,o),
(163.49,-15,cs),
(113.49,-15,o),
(58.167,1,o),
(-1.143,35,c),
(36.893,89,l),
(75.543,63,o),
(130.53,45,o),
(173.53,45,cs),
(249.53,45,o),
(298.718,76,o),
(307.587,129,cs),
(315.787,178,o),
(295.134,198,o),
(218.317,223,cs),
(181.326,235,ls),
(101.509,260,o),
(56.362,289,o),
(69.582,368,cs),
(84.308,456,o),
(154.843,507,o),
(260.843,507,cs),
(308.843,507,o),
(363.998,490,o),
(425.476,457,c),
(387.774,405,l),
(347.623,428,o),
(292.635,446,o),
(250.635,446,cs),
(181.635,446,o),
(136.949,418,o),
(129.251,372,cs),
(118.542,308,o),
(190.366,295,o),
(237.358,283,c),
(324.836,250,o),
(380.652,225,o),
(365.926,137,cs)
);
}
);
width = 452;
}
);
unicode = 115;
},
{
glyphname = germandbls;
layers = (
{
layerId = "2C0B2ACE-7C1A-4B57-8C98-FB1544B085A1";
name = "#instance";
shapes = (
{
closed = 1;
nodes = (
(596,73,o),
(506,-1,o),
(336,-1,cs),
(302,-1,o),
(270,3,o),
(239,10,c),
(288,170,l),
(304,166,o),
(317,164,o),
(329,164,cs),
(383,164,o),
(415,188,o),
(423,235,cs),
(430,276,o),
(409,308,o),
(350,308,cs),
(339,308,o),
(323,306,o),
(305,303,c),
(304,441,l),
(363,454,o),
(399,482,o),
(406,528,cs),
(412,566,o),
(392,591,o),
(355,591,cs),
(317,591,o),
(290,570,o),
(283,533,cs),
(251,355,o),
(223,178,o),
(192,0,c),
(10,0,l),
(102,533,ls),
(124,663,o),
(220,734,o),
(379,734,cs),
(510,734,o),
(601,648,o),
(582,539,cs),
(573,487,o),
(535,439,o),
(498,427,c),
(559,418,o),
(642,347,o),
(623,235,cs)
);
}
);
width = 641;
},
{
layerId = "A4A8100D-CD7C-4210-8FBB-9BAC01333E3B";
shapes = (
{
closed = 1;
nodes = (
(596,73,o),
(506,-1,o),
(336,-1,cs),
(302,-1,o),
(270,3,o),
(239,10,c),
(288,170,l),
(304,166,o),
(317,164,o),
(329,164,cs),
(383,164,o),
(415,188,o),
(423,235,cs),
(430,276,o),
(409,308,o),
(350,308,cs),
(339,308,o),
(323,306,o),
(305,303,c),
(304,441,l),
(363,454,o),
(399,482,o),
(406,528,cs),
(412,566,o),
(392,591,o),
(355,591,cs),
(317,591,o),
(290,570,o),
(283,533,cs),
(251,355,o),
(223,178,o),
(192,0,c),
(10,0,l),
(102,533,ls),
(124,663,o),
(220,734,o),
(379,734,cs),
(510,734,o),
(601,648,o),
(582,539,cs),
(573,487,o),
(535,439,o),
(498,427,c),
(559,418,o),
(642,347,o),
(623,235,cs)
);
}
);
width = 641;
},
{
layerId = "9C97EF7B-4204-4453-A40E-5E225C581DA5";
shapes = (
{
closed = 1;
nodes = (
(509,66,o),
(431,-1,o),
(276,-1,cs),
(243,-1,o),
(211,2,o),
(181,10,c),
(206,82,l),
(230,75,o),
(253,72,o),
(276,72,cs),
(381,72,o),
(434,118,o),
(451,222,cs),
(464,299,o),
(417,343,o),
(331,343,cs),
(309,343,o),
(284,340,o),
(257,335,c),
(256,407,l),
(343,427,o),
(405,471,o),
(416,535,cs),
(425,581,o),
(380,625,o),
(329,625,cs),
(252,625,o),
(207,589,o),
(195,517,cs),
(165,345,o),
(138,172,o),
(109,0,c),
(28,0,l),
(115,517,ls),
(135,632,o),
(213,693,o),
(341,693,cs),
(438,693,o),
(511,621,o),
(496,536,cs),
(486,478,o),
(442,433,o),
(400,409,c),
(466,400,o),
(557,350,o),
(536,222,cs)
);
}
);
width = 600;
},
{
layerId = "4611C1FA-12BE-43C5-8830-F68BB93ACC2D";
shapes = (
{
closed = 1;
nodes = (
(492,65,o),
(416,-1,o),
(264,-1,cs),
(231,-1,o),
(199,2,o),
(169,10,c),
(190,64,l),
(215,57,o),
(240,54,o),
(265,54,cs),
(380,54,o),
(438,104,o),
(457,219,cs),
(471,304,o),
(419,350,o),
(327,350,cs),
(303,350,o),
(276,347,o),
(247,341,c),
(246,400,l),
(339,421,o),
(406,469,o),
(418,536,cs),
(427,584,o),
(377,632,o),
(324,632,cs),
(239,632,o),
(190,593,o),
(177,514,cs),
(148,343,o),
(121,171,o),
(92,0,c),
(32,0,l),
(118,514,ls),
(137,626,o),
(211,685,o),
(333,685,cs),
(423,685,o),
(493,615,o),
(479,535,cs),
(469,476,o),
(423,432,o),
(380,405,c),
(447,396,o),
(540,350,o),
(518,219,cs)
);
}
);
width = 592;
}
);
unicode = 223;
},
{
glyphname = t;
layers = (
{
layerId = "A4A8100D-CD7C-4210-8FBB-9BAC01333E3B";
shapes = (
{
closed = 1;
nodes = (
(105.586,374,l),
(37.586,374,l),
(60.177,509,l),
(128.177,509,l),
(151.271,647,l),
(344.271,647,l),
(321.177,509,l),
(424.177,509,l),
(401.586,374,l),
(298.586,374,l),
(264.95,173,ls),
(260.934,149,o),
(272.591,135,o),
(296.591,135,cs),
(315.591,135,o),
(336.595,141,o),
(357.603,153,c),
(387.518,27,l),
(350.841,11,l),
(297.327,-10,o),
(269.155,-17,o),
(233.155,-17,cs),
(137.155,-17,o),
(49.024,36,o),
(68.938,155,c)
);
}
);
width = 435;
},
{
layerId = "9C97EF7B-4204-4453-A40E-5E225C581DA5";
shapes = (
{
closed = 1;
nodes = (
(132.79,429,l),
(46.79,429,l),
(58.671,500,l),
(144.671,500,l),
(168.099,640,l),
(248.099,640,l),
(224.671,500,l),
(351.671,500,l),
(339.79,429,l),
(212.79,429,l),
(165.432,146,ls),
(156.396,92,o),
(170.379,68,o),
(212.379,68,cs),
(236.379,68,o),
(258.881,71,o),
(281.387,80,c),
(288.841,11,l),
(262.502,3,l),
(241.331,-4,o),
(219.829,-7,o),
(193.829,-7,cs),
(123.829,-7,o),
(66.69,34,o),
(81.583,123,cs)
);
}
);
width = 368;
},
{
layerId = "4611C1FA-12BE-43C5-8830-F68BB93ACC2D";
shapes = (
{
closed = 1;
nodes = (
(137.631,440,l),
(48.631,440,l),
(58.337,498,l),
(147.337,498,l),
(170.932,639,l),
(228.932,639,l),
(205.337,498,l),
(337.337,498,l),
(327.631,440,l),
(195.631,440,l),
(145.595,141,ls),
(135.555,81,o),
(150.037,54,o),
(195.037,54,cs),
(220.037,54,o),
(243.539,57,o),
(265.877,65,c),
(269.339,8,l),
(244.167,1,ls),
(229.498,-3,o),
(210.163,-5,o),
(186.163,-5,cs),
(121.163,-5,o),
(69.69,34,o),
(83.579,117,c)
);
}
);
width = 355;
}
);
unicode = 116;
},
{
glyphname = u;
layers = (
{
layerId = "A4A8100D-CD7C-4210-8FBB-9BAC01333E3B";
shapes = (
{
closed = 1;
nodes = (
(95.177,509,l),
(277.177,509,l),
(234.003,251,ls),
(220.448,170,o),
(235.591,135,o),
(284.591,135,cs),
(344.591,135,o),
(357.269,151,o),
(374.003,251,cs),
(417.177,509,l),
(586.177,509,l),
(533.966,197,ls),
(508.363,44,o),
(431.49,-15,o),
(258.49,-15,cs),
(108.49,-15,o),
(21.714,70,o),
(42.966,197,c)
);
}
);
width = 611;
},
{
layerId = "9C97EF7B-4204-4453-A40E-5E225C581DA5";
shapes = (
{
closed = 1;
nodes = (
(111.671,500,l),
(192.671,500,l),
(143.64,207,ls),
(127.24,109,o),
(164.706,58,o),
(249.706,58,cs),
(350.706,58,o),
(388.563,93,o),
(407.64,207,cs),
(456.671,500,l),
(535.671,500,l),
(482.791,184,ls),
(459.698,46,o),
(385.49,-15,o),
(238.49,-15,cs),
(114.49,-15,o),
(39.379,68,o),
(58.791,184,cs)
);
}
);
width = 580;
},
{
layerId = "4611C1FA-12BE-43C5-8830-F68BB93ACC2D";
shapes = (
{
closed = 1;
nodes = (
(115.337,498,l),
(175.337,498,l),
(125.134,198,ls),
(108.232,97,o),
(150.028,42,o),
(243.028,42,cs),
(352.028,42,o),
(394.555,81,o),
(414.134,198,cs),
(464.337,498,l),
(525.337,498,l),
(472.289,181,ls),
(449.698,46,o),
(376.49,-15,o),
(234.49,-15,cs),
(115.49,-15,o),
(43.212,67,o),
(62.289,181,c)
);
}
);
width = 574;
}
);
leftKerningGroup = _u;
unicode = 117;
},
{
glyphname = v;
layers = (
{
layerId = "A4A8100D-CD7C-4210-8FBB-9BAC01333E3B";
shapes = (
{
closed = 1;
nodes = (
(364,0,l),
(182,0,l),
(56,509,l),
(254,509,l),
(319,201,l),
(467,509,l),
(659,509,l)
);
}
);
width = 645;
},
{
layerId = "9C97EF7B-4204-4453-A40E-5E225C581DA5";
shapes = (
{
closed = 1;
nodes = (
(276,0,l),
(195,0,l),
(68,500,l),
(150,500,l),
(254,88,l),
(488,500,l),
(571,500,l)
);
}
);
width = 572;
},
{
layerId = "4611C1FA-12BE-43C5-8830-F68BB93ACC2D";
shapes = (
{
closed = 1;
nodes = (
(258,0,l),
(198,0,l),
(70,498,l),
(129,498,l),
(241,65,l),
(492,498,l),
(553,498,l)
);
}
);
width = 557;
}
);
leftKerningGroup = _v;
unicode = 118;
},
{
glyphname = w;
layers = (
{
layerId = "A4A8100D-CD7C-4210-8FBB-9BAC01333E3B";
shapes = (
{
closed = 1;
nodes = (
(601,0,l),
(439,0,l),
(407.154,228,l),
(303,0,l),
(141,0,l),
(56.177,509,l),
(253.177,509,l),
(277.154,228,l),
(391.177,509,l),
(519.177,509,l),
(540.313,217,l),
(661.177,509,l),
(855.177,509,l)
);
}
);
width = 840;
},
{
layerId = "9C97EF7B-4204-4453-A40E-5E225C581DA5";
shapes = (
{
closed = 1;
nodes = (
(549,0,l),
(470,0,l),
(414.104,401,l),
(230,0,l),
(150,0,l),
(67.671,500,l),
(151.671,500,l),
(208.396,92,l),
(395.671,500,l),
(468.671,500,l),
(522.061,90,l),
(717.671,500,l),
(798.671,500,l)
);
}
);
width = 799;
},
{
layerId = "4611C1FA-12BE-43C5-8830-F68BB93ACC2D";
shapes = (
{
closed = 1;
nodes = (
(539,0,l),
(476,0,l),
(415.961,436,l),
(215,0,l),
(152,0,l),
(70.337,498,l),
(131.337,498,l),
(194.877,65,l),
(396.337,498,l),
(458.337,498,l),
(517.877,65,l),
(729.337,498,l),
(787.337,498,l)
);
}
);
width = 791;
}
);
leftKerningGroup = _w;
rightKerningGroup = _w;
unicode = 119;
},
{
glyphname = x;
layers = (
{
layerId = "A4A8100D-CD7C-4210-8FBB-9BAC01333E3B";
shapes = (
{
closed = 1;
nodes = (
(186,261,l),
(55,509,l),
(268,509,l),
(340,375,l),
(450,509,l),
(640,509,l),
(412,241,l),
(543,0,l),
(331,0,l),
(261,131,l),
(155,0,l),
(-35,0,l)
);
}
);
width = 621;
},
{
layerId = "9C97EF7B-4204-4453-A40E-5E225C581DA5";
shapes = (
{
closed = 1;
nodes = (
(211,252,l),
(72,500,l),
(171,500,l),
(277,315,l),
(446,500,l),
(536,500,l),
(311,251,l),
(454,0,l),
(354,0,l),
(247,191,l),
(73,0,l),
(-17,0,l)
);
}
);
width = 539;
},
{
layerId = "4611C1FA-12BE-43C5-8830-F68BB93ACC2D";
shapes = (
{
closed = 1;
nodes = (
(216,250,l),
(75,498,l),
(152,498,l),
(264,303,l),
(445,498,l),
(515,498,l),
(291,253,l),
(436,0,l),
(358,0,l),
(244,203,l),
(56,0,l),
(-13,0,l)
);
}
);
width = 522;
}
);
unicode = 120;
},
{
glyphname = y;
layers = (
{
layerId = "A4A8100D-CD7C-4210-8FBB-9BAC01333E3B";
shapes = (
{
closed = 1;
nodes = (
(79.205,-190,o),
(45.042,-185,o),
(6.715,-175,c),
(65.318,-22,l),
(80.649,-26,o),
(94.314,-28,o),
(107.314,-28,cs),
(139.314,-28,o),
(164.323,-16,o),
(172.837,5,c),
(56.177,509,l),
(265.177,509,l),
(300.142,210,l),
(434.177,509,l),
(632.177,509,l),
(358.673,10,ls),
(280.576,-134,o),
(207.205,-190,o),
(110.205,-190,cs)
);
}
);
width = 616;
},
{
layerId = "9C97EF7B-4204-4453-A40E-5E225C581DA5";
shapes = (
{
closed = 1;
nodes = (
(41.038,-191,o),
(23.54,-188,o),
(6.376,-183,c),
(34.592,-110,l),
(46.923,-114,o),
(57.588,-116,o),
(66.588,-116,cs),
(112.588,-116,o),
(145.78,-79,o),
(188.837,5,c),
(67.671,500,l),
(156.671,500,l),
(242.734,100,l),
(462.671,500,l),
(544.671,500,l),
(274.175,13,ls),
(198.25,-124,o),
(145.038,-191,o),
(58.038,-191,cs)
);
}
);
width = 545;
},
{
layerId = "4611C1FA-12BE-43C5-8830-F68BB93ACC2D";
shapes = (
{
closed = 1;
nodes = (
(33.038,-191,o),
(19.372,-189,o),
(6.042,-185,c),
(28.58,-128,l),
(40.078,-131,o),
(49.743,-133,o),
(58.743,-133,cs),
(107.743,-133,o),
(141.604,-92,o),
(191.837,5,c),
(70.337,498,l),
(135.337,498,l),
(231.053,78,l),
(468.337,498,l),
(527.337,498,l),
(257.175,13,ls),
(181.584,-122,o),
(132.038,-191,o),
(48.038,-191,cs)
);
}
);
width = 531;
}
);
leftKerningGroup = _v;
rightKerningGroup = _y;
unicode = 121;
},
{
glyphname = z;
layers = (
{
layerId = "A4A8100D-CD7C-4210-8FBB-9BAC01333E3B";
shapes = (
{
closed = 1;
nodes = (
(241.93,143,l),
(436.93,143,l),
(413,0,l),
(-5,0,l),
(18.595,141,l),
(287.753,375,l),
(63.753,375,l),
(86.177,509,l),
(498.177,509,l),
(474.917,370,l)
);
}
);
width = 508;
},
{
layerId = "9C97EF7B-4204-4453-A40E-5E225C581DA5";
shapes = (
{
closed = 1;
nodes = (
(99.714,70,l),
(375.714,70,l),
(364,0,l),
(-5,0,l),
(6.714,70,l),
(343.459,433,l),
(74.459,433,l),
(85.671,500,l),
(447.671,500,l),
(436.292,432,l)
);
}
);
width = 459;
},
{
layerId = "4611C1FA-12BE-43C5-8830-F68BB93ACC2D";
shapes = (
{
closed = 1;
nodes = (
(71.204,55,l),
(363.204,55,l),
(354,0,l),
(-5,0,l),
(4.371,56,l),
(354.3,444,l),
(76.3,444,l),
(85.337,498,l),
(437.337,498,l),
(428.3,444,l)
);
}
);
width = 449;
}
);
unicode = 122;
},
{
glyphname = i.ss01;
layers = (
{
layerId = "2C0B2ACE-7C1A-4B57-8C98-FB1544B085A1";
name = "#instance";
width = 232;
},
{
layerId = "A4A8100D-CD7C-4210-8FBB-9BAC01333E3B";
shapes = (
{
closed = 1;
nodes = (
(121.16,730,o),
(179.025,777,o),
(234.025,777,cs),
(289.025,777,o),
(328.825,728,o),
(319.789,674,cs),
(310.418,618,o),
(255.385,570,o),
(199.385,570,cs),
(142.385,570,o),
(101.916,615,o),
(111.789,674,cs)
);
},
{
closed = 1;
nodes = (
(278.504,499,l),
(250.725,333,o),
(223.779,166,o),
(196,0,c),
(13,0,l),
(96.504,499,l)
);
}
);
width = 306;
},
{
layerId = "9C97EF7B-4204-4453-A40E-5E225C581DA5";
shapes = (
{
closed = 1;
nodes = (
(127.781,662,o),
(155.132,688,o),
(186.132,688,cs),
(214.132,688,o),
(235.781,662,o),
(231.095,634,cs),
(226.242,605,o),
(196.059,580,o),
(168.059,580,cs),
(137.059,580,o),
(118.242,605,o),
(123.095,634,cs)
);
},
{
closed = 1;
nodes = (
(196.504,499,l),
(168.725,333,o),
(140.779,166,o),
(113,0,c),
(33,0,l),
(116.504,499,l)
);
}
);
width = 244;
},
{
layerId = "4611C1FA-12BE-43C5-8830-F68BB93ACC2D";
shapes = (
{
closed = 1;
nodes = (
(128.438,648,o),
(150.12,670,o),
(176.12,670,cs),
(199.12,670,o),
(216.605,649,o),
(212.756,626,cs),
(208.74,602,o),
(184.393,582,o),
(161.393,582,cs),
(136.393,582,o),
(120.908,603,o),
(124.756,626,cs)
);
},
{
closed = 1;
nodes = (
(179.504,499,l),
(151.725,333,o),
(123.779,166,o),
(96,0,c),
(37,0,l),
(120.504,499,l)
);
}
);
width = 232;
}
);
},
{
glyphname = j.ss01;
layers = (
{
layerId = "2C0B2ACE-7C1A-4B57-8C98-FB1544B085A1";
name = "#instance";
width = 262;
},
{
layerId = "A4A8100D-CD7C-4210-8FBB-9BAC01333E3B";
shapes = (
{
closed = 1;
nodes = (
(135.16,730,o),
(193.025,777,o),
(248.025,777,cs),
(303.025,777,o),
(342.825,728,o),
(333.789,674,cs),
(324.418,618,o),
(269.385,570,o),
(213.385,570,cs),
(156.385,570,o),
(115.916,615,o),
(125.789,674,cs)
);
},
{
closed = 1;
nodes = (
(31.024,36,o),
(35.71,64,o),
(40.396,92,cs),
(110.177,509,l),
(292.177,509,l),
(264.896,340,o),
(237.448,170,o),
(210.167,1,c),
(190.421,-117,o),
(101.703,-193,o),
(-19.297,-193,cs),
(-48.297,-193,o),
(-77.46,-188,o),
(-107.954,-179,c),
(-52.02,-30,l),
(-42.522,-33,o),
(-32.857,-35,o),
(-23.857,-35,cs),
(1.143,-35,o),
(21.151,-23,o),
(26.339,8,cs)
);
}
);
width = 320;
},
{
layerId = "9C97EF7B-4204-4453-A40E-5E225C581DA5";
shapes = (
{
closed = 1;
nodes = (
(156.781,662,o),
(185.132,688,o),
(216.132,688,cs),
(244.132,688,o),
(264.781,662,o),
(260.095,634,cs),
(255.242,605,o),
(226.059,580,o),
(198.059,580,cs),
(167.059,580,o),
(147.242,605,o),
(152.095,634,cs)
);
},
{
closed = 1;
nodes = (
(24.768,-97,o),
(49.127,-59,o),
(59,0,cs),
(142.671,500,l),
(223.671,500,l),
(197.399,343,o),
(170.293,187,o),
(143.853,29,cs),
(122.433,-99,o),
(78.544,-182,o),
(-19.456,-182,cs),
(-39.456,-182,o),
(-61.787,-178,o),
(-84.448,-170,c),
(-50.902,-101,l),
(-40.738,-106,o),
(-28.073,-108,o),
(-17.073,-108,c),
(-23.073,-108,o),
(-14.738,-106,o),
(-8.902,-101,c)
);
}
);
width = 272;
},
{
layerId = "4611C1FA-12BE-43C5-8830-F68BB93ACC2D";
shapes = (
{
closed = 1;
nodes = (
(161.438,648,o),
(183.12,670,o),
(209.12,670,cs),
(232.12,670,o),
(249.605,649,o),
(245.756,626,cs),
(241.74,602,o),
(217.393,582,o),
(194.393,582,cs),
(169.393,582,o),
(153.908,603,o),
(157.756,626,cs)
);
},
{
closed = 1;
nodes = (
(23.417,-123,o),
(52.111,-83,o),
(62.988,-18,cs),
(149.337,498,l),
(209.337,498,l),
(183.399,343,o),
(156.795,190,o),
(130.857,35,cs),
(109.102,-95,o),
(73.878,-180,o),
(-20.122,-180,cs),
(-38.122,-180,o),
(-58.452,-176,o),
(-80.114,-168,c),
(-51.244,-115,l),
(-40.081,-120,o),
(-27.583,-123,o),
(-15.583,-123,c),
(-27.583,-123,o),
(-21.583,-123,o),
(-15.583,-123,cs)
);
}
);
width = 262;
}
);
},
{
glyphname = X_X_I_I_space_A_v_e_n;
layers = (
{
layerId = "2C0B2ACE-7C1A-4B57-8C98-FB1544B085A1";
name = "#instance";
width = 2357;
},
{
background = {
shapes = (
{
closed = 1;
nodes = (
(132,0,l),
(68,0,l),
(337,667,l),
(391,667,l),
(661,0,l),
(597,0,l),
(511,219,l),
(217,219,l)
);
},
{
closed = 1;
nodes = (
(-141,477,l),
(189,477,l),
(235,606,l),
(-141,606,l)
);
},
{
closed = 1;
nodes = (
(242,279,l),
(487,279,l),
(364,593,l)
);
},
{
closed = 1;
nodes = (
(-77,503,l),
(-86,503,l),
(-58,542,l),
(-85,580,l),
(-77,580,l),
(-54,548,l),
(-31,580,l),
(-23,580,l),
(-50,542,l),
(-22,503,l),
(-30,503,l),
(-54,536,l)
);
},
{
closed = 1;
nodes = (
(3,503,l),
(-6,503,l),
(22,542,l),
(-5,580,l),
(3,580,l),
(26,548,l),
(49,580,l),
(57,580,l),
(30,542,l),
(58,503,l),
(50,503,l),
(26,536,l)
);
},
{
closed = 1;
nodes = (
(92,503,l),
(85,503,l),
(85,580,l),
(92,580,l)
);
},
{
closed = 1;
nodes = (
(127,503,l),
(121,503,l),
(121,580,l),
(127,580,l)
);
},
{
closed = 1;
nodes = (
(1278,376,o),
(1389,506,o),
(1491,506,q),
(1601,506,o),
(1709,363,o),
(1706,241,q),
(1337,241,l),
(1338,146,o),
(1421,45,o),
(1495,45,q),
(1534,45,o),
(1623,69,o),
(1663,92,q),
(1685,35,l),
(1583,-15,o),
(1495,-15,q),
(1392,-15,o),
(1278,122,o),
(1278,251,q)
);
},
{
closed = 1;
nodes = (
(2183,506,o),
(2274,415,o),
(2274,323,q),
(2274,0,l),
(2215,0,l),
(2215,328,l),
(2215,451,o),
(2073,451,q),
(2012,451,o),
(1936,414,q),
(1936,0,l),
(1877,0,l),
(1877,451,l),
(1974,506,o),
(2084,506,q)
);
},
{
closed = 1;
nodes = (
(895,0,l),
(684,498,l),
(743,498,l),
(927,65,l),
(1106,498,l),
(1167,498,l),
(955,0,l)
);
},
{
closed = 1;
nodes = (
(1420,448,o),
(1350,383,o),
(1341,302,q),
(1642,302,l),
(1637,375,o),
(1564,448,o),
(1492,448,q)
);
}
);
};
layerId = "A4A8100D-CD7C-4210-8FBB-9BAC01333E3B";
shapes = (
{
closed = 1;
nodes = (
(351,667,l),
(602,667,l),
(699,0,l),
(503,0,l),
(487,116,l),
(255,116,l),
(202,0,l),
(7,0,l)
);
},
{
closed = 1;
nodes = (
(256,638,l),
(213,555,l),
(3,555,l),
(17,638,l)
);
},
{
closed = 1;
nodes = (
(121,572,l),
(140,572,l),
(127,596,l),
(147,621,l),
(130,621,l),
(120,608,l),
(114,621,l),
(79,621,l),
(69,608,l),
(63,621,l),
(44,621,l),
(57,596,l),
(38,572,l),
(54,572,l),
(64,584,l),
(70,572,l),
(88,572,l),
(76,596,l),
(96,621,l),
(109,596,l),
(89,572,l),
(106,572,l),
(115,584,l)
);
},
{
closed = 1;
nodes = (
(158,572,l),
(166,621,l),
(152,621,l),
(144,572,l)
);
},
{
closed = 1;
nodes = (
(181,572,l),
(189,621,l),
(174,621,l),
(166,572,l)
);
},
{
closed = 1;
nodes = (
(1453,205,l),
(1442,157,o),
(1472,125,o),
(1525,125,cs),
(1570,125,o),
(1626,136,o),
(1691,159,c),
(1718,30,l),
(1651,3,o),
(1569,-15,o),
(1501,-15,cs),
(1348,-15,o),
(1245,79,o),
(1273,244,cs),
(1303,424,o),
(1417,530,o),
(1588,530,cs),
(1749,530,o),
(1812,426,o),
(1774,205,c)
);
},
{
closed = 1;
nodes = (
(2328,0,l),
(2146,0,l),
(2196,298,ls),
(2204,346,o),
(2181,371,o),
(2140,371,cs),
(2129,371,o),
(2115,369,o),
(2097,365,cs),
(2080,362,o),
(2069,359,o),
(2064,356,c),
(2004,0,l),
(1822,0,l),
(1902,481,l),
(1931,492,o),
(1969,502,o),
(2017,511,cs),
(2065,520,o),
(2110,525,o),
(2151,525,cs),
(2340,525,o),
(2408,477,o),
(2386,347,c)
);
},
{
closed = 1;
nodes = (
(1125,509,l),
(1317,509,l),
(1022,0,l),
(840,0,l),
(714,509,l),
(912,509,l),
(977,201,l)
);
},
{
closed = 1;
nodes = (
(317,243,l),
(472,243,l),
(435,500,l)
);
},
{
closed = 1;
nodes = (
(1515,395,o),
(1471,356,o),
(1465,293,c),
(1609,293,l),
(1624,365,o),
(1601,395,o),
(1556,395,cs)
);
}
);
width = 2438;
},
{
layerId = "9C97EF7B-4204-4453-A40E-5E225C581DA5";
shapes = (
{
closed = 1;
nodes = (
(351,667,l),
(602,667,l),
(699,0,l),
(503,0,l),
(487,116,l),
(255,116,l),
(202,0,l),
(7,0,l)
);
},
{
closed = 1;
nodes = (
(256,638,l),
(213,555,l),
(3,555,l),
(17,638,l)
);
},
{
closed = 1;
nodes = (
(121,572,l),
(140,572,l),
(127,596,l),
(147,621,l),
(130,621,l),
(120,608,l),
(114,621,l),
(79,621,l),
(69,608,l),
(63,621,l),
(44,621,l),
(57,596,l),
(38,572,l),
(54,572,l),
(64,584,l),
(70,572,l),
(88,572,l),
(76,596,l),
(96,621,l),
(109,596,l),
(89,572,l),
(106,572,l),
(115,584,l)
);
},
{
closed = 1;
nodes = (
(158,572,l),
(166,621,l),
(152,621,l),
(144,572,l)
);
},
{
closed = 1;
nodes = (
(181,572,l),
(189,621,l),
(174,621,l),
(166,572,l)
);
},
{
closed = 1;
nodes = (
(1453,205,l),
(1442,157,o),
(1472,125,o),
(1525,125,cs),
(1570,125,o),
(1626,136,o),
(1691,159,c),
(1718,30,l),
(1651,3,o),
(1569,-15,o),
(1501,-15,cs),
(1348,-15,o),
(1245,79,o),
(1273,244,cs),
(1303,424,o),
(1417,530,o),
(1588,530,cs),
(1749,530,o),
(1812,426,o),
(1774,205,c)
);
},
{
closed = 1;
nodes = (
(2328,0,l),
(2146,0,l),
(2196,298,ls),
(2204,346,o),
(2181,371,o),
(2140,371,cs),
(2129,371,o),
(2115,369,o),
(2097,365,cs),
(2080,362,o),
(2069,359,o),
(2064,356,c),
(2004,0,l),
(1822,0,l),
(1902,481,l),
(1931,492,o),
(1969,502,o),
(2017,511,cs),
(2065,520,o),
(2110,525,o),
(2151,525,cs),
(2340,525,o),
(2408,477,o),
(2386,347,cs)
);
},
{
closed = 1;
nodes = (
(1125,509,l),
(1317,509,l),
(1022,0,l),
(840,0,l),
(714,509,l),
(912,509,l),
(977,201,l)
);
},
{
closed = 1;
nodes = (
(317,243,l),
(472,243,l),
(435,500,l)
);
},
{
closed = 1;
nodes = (
(1515,395,o),
(1471,356,o),
(1465,293,c),
(1609,293,l),
(1624,365,o),
(1601,395,o),
(1556,395,cs)
);
}
);
width = 2371;
},
{
layerId = "4611C1FA-12BE-43C5-8830-F68BB93ACC2D";
shapes = (
{
closed = 1;
nodes = (
(351,667,l),
(602,667,l),
(699,0,l),
(503,0,l),
(487,116,l),
(255,116,l),
(202,0,l),
(7,0,l)
);
},
{
closed = 1;
nodes = (
(256,638,l),
(213,555,l),
(3,555,l),
(17,638,l)
);
},
{
closed = 1;
nodes = (
(121,572,l),
(140,572,l),
(127,596,l),
(147,621,l),
(130,621,l),
(120,608,l),
(114,621,l),
(79,621,l),
(69,608,l),
(63,621,l),
(44,621,l),
(57,596,l),
(38,572,l),
(54,572,l),
(64,584,l),
(70,572,l),
(88,572,l),
(76,596,l),
(96,621,l),
(109,596,l),
(89,572,l),
(106,572,l),
(115,584,l)
);
},
{
closed = 1;
nodes = (
(158,572,l),
(166,621,l),
(152,621,l),
(144,572,l)
);
},
{
closed = 1;
nodes = (
(181,572,l),
(189,621,l),
(174,621,l),
(166,572,l)
);
},
{
closed = 1;
nodes = (
(1453,205,l),
(1442,157,o),
(1472,125,o),
(1525,125,cs),
(1570,125,o),
(1626,136,o),
(1691,159,c),
(1718,30,l),
(1651,3,o),
(1569,-15,o),
(1501,-15,cs),
(1348,-15,o),
(1245,79,o),
(1273,244,cs),
(1303,424,o),
(1417,530,o),
(1588,530,cs),
(1749,530,o),
(1812,426,o),
(1774,205,c)
);
},
{
closed = 1;
nodes = (
(2328,0,l),
(2146,0,l),
(2196,298,ls),
(2204,346,o),
(2181,371,o),
(2140,371,cs),
(2129,371,o),
(2115,369,o),
(2097,365,cs),
(2080,362,o),
(2069,359,o),
(2064,356,c),
(2004,0,l),
(1822,0,l),
(1902,481,l),
(1931,492,o),
(1969,502,o),
(2017,511,cs),
(2065,520,o),
(2110,525,o),
(2151,525,cs),
(2340,525,o),
(2408,477,o),
(2386,347,c)
);
},
{
closed = 1;
nodes = (
(1125,509,l),
(1317,509,l),
(1022,0,l),
(840,0,l),
(714,509,l),
(912,509,l),
(977,201,l)
);
},
{
closed = 1;
nodes = (
(317,243,l),
(472,243,l),
(435,500,l)
);
},
{
closed = 1;
nodes = (
(1515,395,o),
(1471,356,o),
(1465,293,c),
(1609,293,l),
(1624,365,o),
(1601,395,o),
(1556,395,cs)
);
}
);
width = 2357;
}
);
},
{
glyphname = f_f_i;
layers = (
{
layerId = "2C0B2ACE-7C1A-4B57-8C98-FB1544B085A1";
name = "#instance";
width = 946;
},
{
layerId = "A4A8100D-CD7C-4210-8FBB-9BAC01333E3B";
shapes = (
{
closed = 1;
nodes = (
(711,0,l),
(770,351,l),
(620,351,l),
(561,0,l),
(379,0,l),
(438,351,l),
(286,351,l),
(227,0,l),
(44,0,l),
(103,351,l),
(35,351,l),
(60,499,l),
(130,499,l),
(136,540,ls),
(156,659,o),
(238,724,o),
(350,738,cs),
(367,740,o),
(384,741,o),
(401,741,cs),
(431,741,o),
(466,732,o),
(509,714,c),
(443,583,l),
(420,592,o),
(408,596,o),
(384,596,cs),
(359,596,o),
(324,576,o),
(318,540,cs),
(312,499,l),
(464,499,l),
(468,526,ls),
(497,697,o),
(641,768,o),
(799,768,cs),
(894,768,o),
(977,747,o),
(1019,724,c),
(944,569,l),
(903,588,o),
(821,609,o),
(772,609,cs),
(713,609,o),
(660,579,o),
(651,526,cs),
(647,499,l),
(977,499,l),
(949,333,o),
(922,166,o),
(894,0,c)
);
}
);
width = 1008;
},
{
layerId = "9C97EF7B-4204-4453-A40E-5E225C581DA5";
shapes = (
{
closed = 1;
nodes = (
(743,0,l),
(814,428,l),
(570,428,l),
(499,0,l),
(419,0,l),
(491,428,l),
(225,428,l),
(154,0,l),
(74,0,l),
(146,428,l),
(61,428,l),
(73,499,l),
(158,499,l),
(163,527,ls),
(182,643,o),
(237,708,o),
(360,711,cs),
(370,711,o),
(381,710,o),
(391,709,cs),
(419,707,o),
(447,700,o),
(467,690,c),
(435,623,l),
(419,630,o),
(379,640,o),
(358,640,cs),
(292,640,o),
(255,606,o),
(242,528,c),
(238,499,l),
(503,499,l),
(507,526,ls),
(529,653,o),
(619,732,o),
(749,732,cs),
(834,732,o),
(909,709,o),
(943,692,c),
(911,624,l),
(886,636,o),
(804,659,o),
(738,659,cs),
(669,659,o),
(602,615,o),
(587,527,c),
(583,499,l),
(906,499,l),
(878,333,o),
(850,166,o),
(822,0,c)
);
}
);
width = 956;
},
{
layerId = "4611C1FA-12BE-43C5-8830-F68BB93ACC2D";
shapes = (
{
closed = 1;
nodes = (
(749,0,l),
(823,443,l),
(560,443,l),
(486,0,l),
(427,0,l),
(501,443,l),
(213,443,l),
(139,0,l),
(80,0,l),
(154,443,l),
(66,443,l),
(76,499,l),
(164,499,l),
(168,524,ls),
(187,640,o),
(237,705,o),
(362,705,cs),
(371,705,o),
(380,704,o),
(389,703,cs),
(416,700,o),
(443,694,o),
(458,685,c),
(433,631,l),
(419,638,o),
(373,649,o),
(353,649,cs),
(279,649,o),
(241,612,o),
(227,526,cs),
(223,499,l),
(511,499,l),
(515,526,ls),
(535,644,o),
(614,725,o),
(739,725,cs),
(822,725,o),
(895,701,o),
(928,686,c),
(904,635,l),
(882,646,o),
(800,669,o),
(731,669,cs),
(660,669,o),
(590,622,o),
(574,527,cs),
(570,499,l),
(892,499,l),
(864,333,o),
(836,166,o),
(808,0,c)
);
}
);
width = 946;
}
);
},
{
glyphname = fi;
layers = (
{
layerId = "2C0B2ACE-7C1A-4B57-8C98-FB1544B085A1";
name = "#instance";
width = 596;
},
{
layerId = "A4A8100D-CD7C-4210-8FBB-9BAC01333E3B";
shapes = (
{
closed = 1;
nodes = (
(560,0,l),
(376,0,l),
(435,351,l),
(286,351,l),
(227,0,l),
(44,0,l),
(103,351,l),
(35,351,l),
(60,499,l),
(130,499,l),
(134,526,ls),
(162,696,o),
(304,768,o),
(465,768,cs),
(559,768,o),
(646,747,o),
(684,724,c),
(609,569,l),
(568,588,o),
(486,609,o),
(437,609,cs),
(380,609,o),
(325,580,o),
(316,526,cs),
(312,499,l),
(642,499,l)
);
}
);
width = 681;
},
{
layerId = "9C97EF7B-4204-4453-A40E-5E225C581DA5";
shapes = (
{
closed = 1;
nodes = (
(478,0,l),
(398,0,l),
(469,428,l),
(225,428,l),
(154,0,l),
(74,0,l),
(146,428,l),
(61,428,l),
(73,499,l),
(158,499,l),
(162,526,ls),
(184,653,o),
(273,732,o),
(403,732,cs),
(488,732,o),
(563,709,o),
(598,692,c),
(565,624,l),
(540,636,o),
(460,659,o),
(392,659,cs),
(320,659,o),
(256,611,o),
(242,527,cs),
(238,499,l),
(561,499,l)
);
}
);
width = 610;
},
{
layerId = "4611C1FA-12BE-43C5-8830-F68BB93ACC2D";
shapes = (
{
closed = 1;
nodes = (
(461,0,l),
(402,0,l),
(476,443,l),
(213,443,l),
(139,0,l),
(80,0,l),
(154,443,l),
(66,443,l),
(76,499,l),
(164,499,l),
(168,526,ls),
(188,644,o),
(267,725,o),
(391,725,cs),
(474,725,o),
(546,701,o),
(581,686,c),
(556,635,l),
(534,646,o),
(455,669,o),
(383,669,cs),
(308,669,o),
(242,617,o),
(227,527,cs),
(223,499,l),
(545,499,l)
);
}
);
width = 596;
}
);
unicode = 64257;
},
{
glyphname = fl;
layers = (
{
layerId = "2C0B2ACE-7C1A-4B57-8C98-FB1544B085A1";
name = "#instance";
width = 596;
},
{
layerId = "A4A8100D-CD7C-4210-8FBB-9BAC01333E3B";
shapes = (
{
closed = 1;
nodes = (
(593,0,l),
(412,0,l),
(511,594,l),
(478,602,o),
(447,606,o),
(421,606,cs),
(369,606,o),
(326,584,o),
(318,540,cs),
(312,499,l),
(411,499,l),
(388,364,l),
(288,364,l),
(227,0,l),
(44,0,l),
(105,364,l),
(37,364,l),
(60,499,l),
(130,499,l),
(136,540,ls),
(161,688,o),
(292,748,o),
(432,748,cs),
(524,748,o),
(603,718,o),
(710,700,c)
);
}
);
width = 703;
},
{
layerId = "9C97EF7B-4204-4453-A40E-5E225C581DA5";
shapes = (
{
closed = 1;
nodes = (
(486,0,l),
(405,0,l),
(512,639,l),
(466,650,o),
(425,655,o),
(389,655,cs),
(316,655,o),
(256,609,o),
(242,528,c),
(238,499,l),
(372,499,l),
(360,428,l),
(226,428,l),
(154,0,l),
(74,0,l),
(146,428,l),
(61,428,l),
(73,499,l),
(158,499,l),
(163,527,ls),
(183,646,o),
(265,726,o),
(401,726,cs),
(477,726,o),
(552,710,o),
(601,690,c)
);
}
);
width = 614;
},
{
layerId = "4611C1FA-12BE-43C5-8830-F68BB93ACC2D";
shapes = (
{
closed = 1;
nodes = (
(464,0,l),
(404,0,l),
(512,648,l),
(463,659,o),
(420,665,o),
(383,665,cs),
(305,665,o),
(242,614,o),
(227,526,cs),
(223,499,l),
(364,499,l),
(354,441,l),
(213,441,l),
(139,0,l),
(80,0,l),
(154,441,l),
(66,441,l),
(76,499,l),
(164,499,l),
(168,524,ls),
(187,637,o),
(260,722,o),
(395,722,cs),
(468,722,o),
(542,708,o),
(579,688,c)
);
}
);
width = 596;
}
);
unicode = 64258;
},
{
glyphname = ordfeminine;
layers = (
{
layerId = "A4A8100D-CD7C-4210-8FBB-9BAC01333E3B";
shapes = (
{
closed = 1;
nodes = (
(304,408,l),
(287,399,o),
(209,382,o),
(168,382,cs),
(74,382,o),
(35,412,o),
(46,479,cs),
(55,533,o),
(102,561,o),
(177,561,cs),
(193,561,o),
(210,558,o),
(230,553,c),
(234,580,ls),
(237,596,o),
(223,604,o),
(207,604,cs),
(178,604,o),
(146,596,o),
(117,585,c),
(103,657,l),
(144,673,o),
(181,681,o),
(216,681,cs),
(292,680,o),
(345,650,o),
(333,578,c)
);
},
{
closed = 1;
nodes = (
(166,510,o),
(150,502,o),
(146,481,cs),
(144,464,o),
(158,452,o),
(180,452,cs),
(199,452,o),
(211,458,o),
(214,458,c),
(221,504,l),
(209,507,o),
(199,510,o),
(185,510,cs)
);
}
);
width = 319;
},
{
layerId = "9C97EF7B-4204-4453-A40E-5E225C581DA5";
shapes = (
{
closed = 1;
nodes = (
(282,414,l),
(258,397,o),
(207,382,o),
(158,382,cs),
(87,382,o),
(51,412,o),
(61,472,cs),
(70,526,o),
(116,558,o),
(181,558,cs),
(213,558,o),
(238,552,o),
(259,543,c),
(264,573,ls),
(271,615,o),
(248,630,o),
(208,630,cs),
(177,630,o),
(147,621,o),
(116,605,c),
(109,644,l),
(149,661,o),
(184,670,o),
(214,670,cs),
(285,670,o),
(320,641,o),
(310,581,cs)
);
},
{
closed = 1;
nodes = (
(136,523,o),
(110,504,o),
(105,473,cs),
(99,435,o),
(121,420,o),
(164,420,cs),
(197,420,o),
(223,426,o),
(241,436,c),
(253,508,l),
(234,517,o),
(209,523,o),
(177,523,cs)
);
}
);
width = 306;
},
{
layerId = "4611C1FA-12BE-43C5-8830-F68BB93ACC2D";
shapes = (
{
closed = 1;
nodes = (
(277,415,l),
(252,397,o),
(207,382,o),
(156,382,cs),
(89,382,o),
(54,412,o),
(64,471,cs),
(73,525,o),
(119,557,o),
(182,557,cs),
(217,557,o),
(244,551,o),
(265,541,c),
(270,571,ls),
(278,619,o),
(253,635,o),
(208,635,cs),
(177,635,o),
(147,626,o),
(116,609,c),
(110,641,l),
(150,659,o),
(185,668,o),
(214,668,cs),
(284,668,o),
(315,639,o),
(305,582,c)
);
},
{
closed = 1;
nodes = (
(130,525,o),
(102,504,o),
(97,471,cs),
(90,429,o),
(114,413,o),
(161,413,cs),
(197,413,o),
(225,419,o),
(246,432,c),
(259,509,l),
(239,519,o),
(211,525,o),
(175,525,c)
);
}
);
width = 303;
}
);
unicode = 170;
},
{
glyphname = ordmasculine;
layers = (
{
layerId = "A4A8100D-CD7C-4210-8FBB-9BAC01333E3B";
shapes = (
{
closed = 1;
nodes = (
(73,635,o),
(126,681,o),
(228,681,cs),
(329,681,o),
(369,636,o),
(352,532,cs),
(336,434,o),
(276,382,o),
(178,382,cs),
(82,382,o),
(39,430,o),
(56,532,cs)
);
},
{
closed = 1;
nodes = (
(262,584,o),
(250,604,o),
(215,604,cs),
(179,604,o),
(164,586,o),
(155,532,cs),
(146,480,o),
(158,460,o),
(191,460,cs),
(225,460,o),
(245,487,o),
(253,532,cs)
);
}
);
width = 330;
},
{
layerId = "9C97EF7B-4204-4453-A40E-5E225C581DA5";
shapes = (
{
closed = 1;
nodes = (
(84,622,o),
(134,670,o),
(219,670,cs),
(304,670,o),
(338,618,o),
(323,527,cs),
(308,434,o),
(250,382,o),
(171,382,cs),
(85,382,o),
(52,433,o),
(68,527,cs)
);
},
{
closed = 1;
nodes = (
(290,595,o),
(269,631,o),
(212,631,cs),
(156,631,o),
(123,597,o),
(112,527,cs),
(99,455,o),
(121,421,o),
(177,421,cs),
(233,421,o),
(267,456,o),
(279,527,cs)
);
}
);
width = 314;
},
{
layerId = "4611C1FA-12BE-43C5-8830-F68BB93ACC2D";
shapes = (
{
closed = 1;
nodes = (
(86,619,o),
(136,668,o),
(217,668,cs),
(299,668,o),
(332,614,o),
(317,526,cs),
(302,434,o),
(245,382,o),
(170,382,cs),
(86,382,o),
(54,433,o),
(70,526,cs)
);
},
{
closed = 1;
nodes = (
(296,597,o),
(273,636,o),
(211,636,cs),
(151,636,o),
(115,599,o),
(103,526,cs),
(90,450,o),
(114,413,o),
(174,413,cs),
(234,413,o),
(271,450,o),
(284,526,cs)
);
}
);
width = 311;
}
);
unicode = 186;
},
{
glyphname = pi;
layers = (
{
layerId = "2C0B2ACE-7C1A-4B57-8C98-FB1544B085A1";
name = "#instance";
width = 621;
},
{
layerId = "A4A8100D-CD7C-4210-8FBB-9BAC01333E3B";
shapes = (
{
closed = 1;
nodes = (
(47,374,l),
(68,499,l),
(632,499,l),
(611,374,l),
(512,374,l),
(449,0,l),
(324,0,l),
(387,374,l),
(271,374,l),
(208,0,l),
(81,0,l),
(144,374,l)
);
}
);
width = 633;
},
{
layerId = "9C97EF7B-4204-4453-A40E-5E225C581DA5";
shapes = (
{
closed = 1;
nodes = (
(55,429,l),
(67,499,l),
(624,499,l),
(612,429,l),
(504,429,l),
(432,0,l),
(362,0,l),
(434,429,l),
(234,429,l),
(161,0,l),
(91,0,l),
(163,429,l)
);
}
);
width = 623;
},
{
layerId = "4611C1FA-12BE-43C5-8830-F68BB93ACC2D";
shapes = (
{
closed = 1;
nodes = (
(57,440,l),
(67,499,l),
(622,499,l),
(612,440,l),
(502,440,l),
(428,0,l),
(369,0,l),
(443,440,l),
(226,440,l),
(152,0,l),
(93,0,l),
(167,440,l)
);
}
);
width = 621;
}
);
unicode = 960;
},
{
glyphname = zero;
layers = (
{
layerId = "2C0B2ACE-7C1A-4B57-8C98-FB1544B085A1";
name = "#instance";
shapes = (
{
closed = 1;
nodes = (
(108.72,572,o),
(201.454,672,o),
(383.454,672,cs),
(544.454,672,o),
(620.7,542,o),
(585.39,331,cs),
(544.726,88,o),
(453.159,-11,o),
(269.159,-11,cs),
(110.159,-11,o),
(32.914,119,o),
(68.39,331,cs)
);
},
{
closed = 1;
nodes = (
(559.349,516,o),
(505.25,617,o),
(374.25,617,cs),
(226.25,617,o),
(159.532,541,o),
(124.39,331,cs),
(92.93,143,o),
(145.53,45,o),
(278.53,45,cs),
(426.53,45,o),
(493.081,120,o),
(528.39,331,cs)
);
}
);
width = 643;
},
{
layerId = "A4A8100D-CD7C-4210-8FBB-9BAC01333E3B";
shapes = (
{
closed = 1;
nodes = (
(81.218,569,o),
(191.128,682,o),
(401.128,682,cs),
(591.128,682,o),
(682.54,553,o),
(645.892,334,cs),
(606.567,99,o),
(493.657,-14,o),
(284.657,-14,cs),
(93.657,-14,o),
(5.077,114,o),
(41.892,334,cs)
);
},
{
closed = 1;
nodes = (
(461.81,459,o),
(439.353,522,o),
(374.353,522,cs),
(314.353,522,o),
(270.488,475,o),
(246.892,334,cs),
(225.64,207,o),
(247.265,145,o),
(311.265,145,cs),
(376.265,145,o),
(417.13,192,o),
(440.892,334,cs)
);
}
);
width = 675;
},
{
layerId = "9C97EF7B-4204-4453-A40E-5E225C581DA5";
shapes = (
{
closed = 1;
nodes = (
(104.72,572,o),
(199.789,674,o),
(386.789,674,cs),
(551.789,674,o),
(631.034,544,o),
(595.558,332,cs),
(555.061,90,o),
(459.992,-12,o),
(271.992,-12,cs),
(106.992,-12,o),
(28.746,118,o),
(64.558,332,cs)
);
},
{
closed = 1;
nodes = (
(542.843,507,o),
(493.573,601,o),
(374.573,601,cs),
(240.573,601,o),
(177.692,530,o),
(144.558,332,cs),
(114.771,154,o),
(163.375,62,o),
(284.375,62,cs),
(418.375,62,o),
(480.089,132,o),
(513.558,332,cs)
);
}
);
width = 648;
},
{
layerId = "4611C1FA-12BE-43C5-8830-F68BB93ACC2D";
shapes = (
{
closed = 1;
nodes = (
(108.72,572,o),
(201.454,672,o),
(383.454,672,cs),
(544.454,672,o),
(620.7,542,o),
(585.39,331,cs),
(544.726,88,o),
(453.159,-11,o),
(269.159,-11,cs),
(110.159,-11,o),
(32.914,119,o),
(68.39,331,cs)
);
},
{
closed = 1;
nodes = (
(559.349,516,o),
(505.25,617,o),
(374.25,617,cs),
(226.25,617,o),
(159.532,541,o),
(124.39,331,cs),
(92.93,143,o),
(145.53,45,o),
(278.53,45,cs),
(426.53,45,o),
(493.081,120,o),
(528.39,331,cs)
);
}
);
width = 643;
}
);
unicode = 48;
},
{
glyphname = one;
layers = (
{
layerId = "A4A8100D-CD7C-4210-8FBB-9BAC01333E3B";
shapes = (
{
closed = 1;
nodes = (
(101,448,l),
(76,590,l),
(256,667,l),
(430,667,l),
(318,0,l),
(117,0,l),
(198,486,l)
);
}
);
width = 478;
},
{
layerId = "9C97EF7B-4204-4453-A40E-5E225C581DA5";
shapes = (
{
closed = 1;
nodes = (
(169,537,l),
(149,608,l),
(295,667,l),
(374,667,l),
(262,0,l),
(181,0,l),
(279,584,l)
);
}
);
width = 453;
},
{
layerId = "4611C1FA-12BE-43C5-8830-F68BB93ACC2D";
shapes = (
{
closed = 1;
nodes = (
(182,555,l),
(164,611,l),
(303,667,l),
(363,667,l),
(251,0,l),
(194,0,l),
(295,604,l)
);
}
);
width = 448;
}
);
unicode = 49;
},
{
glyphname = two;
layers = (
{
layerId = "2C0B2ACE-7C1A-4B57-8C98-FB1544B085A1";
name = "#instance";
shapes = (
{
closed = 1;
nodes = (
(442,0,l),
(28,0,l),
(36.702,52,l),
(223.624,183,o),
(434.909,358,o),
(457.333,492,cs),
(469.381,564,o),
(421.25,617,o),
(342.25,617,cs),
(288.25,617,o),
(221.406,600,o),
(166.553,571,c),
(153.756,626,l),
(227.111,658,o),
(293.956,675,o),
(351.956,675,cs),
(456.956,675,o),
(530.899,591,o),
(513.998,490,cs),
(494.419,373,o),
(336.142,210,o),
(135.208,61,c),
(452.208,61,l)
);
}
);
width = 577;
},
{
layerId = "A4A8100D-CD7C-4210-8FBB-9BAC01333E3B";
shapes = (
{
closed = 1;
nodes = (
(504,0,l),
(17,0,l),
(43.105,156,l),
(157.975,209,o),
(351.231,342,o),
(364.974,454,c),
(372.002,496,o),
(348.859,531,o),
(311.859,531,cs),
(267.859,531,o),
(210.181,515,o),
(145.831,489,c),
(118.928,633,l),
(193.45,666,o),
(266.128,682,o),
(337.128,682,cs),
(491.128,682,o),
(589.067,592,o),
(568.484,469,cs),
(549.741,357,o),
(467.174,258,o),
(330.281,169,c),
(532.281,169,l)
);
}
);
width = 620;
},
{
layerId = "9C97EF7B-4204-4453-A40E-5E225C581DA5";
shapes = (
{
closed = 1;
nodes = (
(452,0,l),
(26,0,l),
(37.547,69,l),
(212.293,187,o),
(421.407,355,o),
(442.329,486,cs),
(453.54,553,o),
(408.908,603,o),
(336.908,603,cs),
(284.908,603,o),
(220.063,586,o),
(163.21,557,c),
(147.924,627,l),
(221.279,659,o),
(289.124,676,o),
(349.124,676,cs),
(463.124,676,o),
(540.899,591,o),
(523.496,487,cs),
(503.917,370,o),
(358.481,218,o),
(168.22,79,c),
(465.22,79,l)
);
}
);
width = 584;
},
{
layerId = "4611C1FA-12BE-43C5-8830-F68BB93ACC2D";
shapes = (
{
closed = 1;
nodes = (
(442,0,l),
(28,0,l),
(36.702,52,l),
(223.624,183,o),
(434.909,358,o),
(457.333,492,cs),
(469.381,564,o),
(421.25,617,o),
(342.25,617,cs),
(288.25,617,o),
(221.406,600,o),
(166.553,571,c),
(153.756,626,l),
(227.111,658,o),
(293.956,675,o),
(351.956,675,cs),
(456.956,675,o),
(530.899,591,o),
(513.998,490,cs),
(494.419,373,o),
(336.142,210,o),
(135.208,61,c),
(452.208,61,l)
);
}
);
width = 577;
}
);
unicode = 50;
},
{
glyphname = three;
layers = (
{
layerId = "A4A8100D-CD7C-4210-8FBB-9BAC01333E3B";
shapes = (
{
closed = 1;
nodes = (
(516.379,68,o),
(398.661,-8,o),
(215.661,-8,cs),
(141.661,-8,o),
(65.175,13,o),
(1.861,41,c),
(79.456,182,l),
(135.105,156,o),
(189.93,143,o),
(240.93,143,cs),
(303.93,143,o),
(341.612,165,o),
(348.473,206,cs),
(355.836,250,o),
(325.848,268,o),
(264.848,268,cs),
(154.848,268,l),
(179.112,413,l),
(291.112,413,ls),
(331.112,413,o),
(359.129,437,o),
(364.986,472,cs),
(369.337,498,o),
(345.855,525,o),
(318.855,525,cs),
(263.855,525,o),
(198.01,508,o),
(144.329,486,c),
(113.924,627,l),
(185.944,657,o),
(273.124,676,o),
(344.124,676,cs),
(480.124,676,o),
(577.402,594,o),
(560.5,493,cs),
(550.627,434,o),
(489.921,376,o),
(445.578,362,c),
(519.227,336,o),
(551.856,280,o),
(538.636,201,cs)
);
}
);
width = 600;
},
{
layerId = "9C97EF7B-4204-4453-A40E-5E225C581DA5";
shapes = (
{
closed = 1;
nodes = (
(484.208,61,o),
(380.661,-8,o),
(206.661,-8,cs),
(139.661,-8,o),
(69.008,12,o),
(10.861,41,c),
(50.575,111,l),
(100.555,81,o),
(165.045,66,o),
(219.045,66,cs),
(342.045,66,o),
(412.073,108,o),
(426.297,193,cs),
(439.685,273,o),
(382.88,316,o),
(265.88,316,cs),
(190.88,316,l),
(203.431,391,l),
(281.431,391,ls),
(372.431,391,o),
(431.121,425,o),
(442.835,495,cs),
(453.042,556,o),
(395.908,603,o),
(309.908,603,cs),
(254.908,603,o),
(183.895,585,o),
(126.21,557,c),
(111.924,627,l),
(178.609,655,o),
(257.124,676,o),
(322.124,676,cs),
(457.124,676,o),
(541.406,600,o),
(524.002,496,cs),
(513.627,434,o),
(448.586,374,o),
(414.411,361,c),
(469.729,339,o),
(523.031,293,o),
(505.962,191,cs)
);
}
);
width = 584;
},
{
layerId = "4611C1FA-12BE-43C5-8830-F68BB93ACC2D";
shapes = (
{
closed = 1;
nodes = (
(477.873,59,o),
(376.661,-8,o),
(204.661,-8,cs),
(139.661,-8,o),
(70.008,12,o),
(12.861,41,c),
(44.232,97,l),
(93.045,66,o),
(159.367,50,o),
(214.367,50,cs),
(350.367,50,o),
(426.232,97,o),
(441.795,190,cs),
(456.354,277,o),
(394.554,326,o),
(266.554,326,cs),
(198.554,326,l),
(208.594,386,l),
(279.594,386,ls),
(380.594,386,o),
(445.786,423,o),
(458.504,499,cs),
(470.051,568,o),
(406.418,618,o),
(308.418,618,cs),
(252.418,618,o),
(181.406,600,o),
(122.553,571,c),
(110.924,627,l),
(177.442,654,o),
(254.124,676,o),
(318.124,676,cs),
(452.124,676,o),
(533.573,601,o),
(516.002,496,cs),
(505.627,434,o),
(440.586,374,o),
(408.411,361,c),
(459.729,339,o),
(517.533,296,o),
(499.628,189,cs)
);
}
);
width = 581;
}
);
unicode = 51;
},
{
glyphname = four;
layers = (
{
layerId = "2C0B2ACE-7C1A-4B57-8C98-FB1544B085A1";
name = "#instance";
width = 588;
},
{
layerId = "A4A8100D-CD7C-4210-8FBB-9BAC01333E3B";
shapes = (
{
closed = 1;
nodes = (
(3.253,127,l),
(25.509,260,l),
(328.618,667,l),
(595.618,667,l),
(527.174,258,l),
(607.174,258,l),
(585.253,127,l),
(505.253,127,l),
(484,0,l),
(285,0,l),
(306.253,127,l)
);
},
{
closed = 1;
nodes = (
(368.337,498,l),
(198.174,258,l),
(328.174,258,l)
);
}
);
width = 640;
},
{
layerId = "9C97EF7B-4204-4453-A40E-5E225C581DA5";
shapes = (
{
closed = 1;
nodes = (
(19.13,192,l),
(32.685,273,l),
(411.618,667,l),
(504.618,667,l),
(436.844,262,l),
(530.844,262,l),
(519.13,192,l),
(425.13,192,l),
(393,0,l),
(313,0,l),
(345.13,192,l)
);
},
{
closed = 1;
nodes = (
(408.385,570,l),
(107.844,262,l),
(356.844,262,l)
);
}
);
width = 597;
},
{
layerId = "4611C1FA-12BE-43C5-8830-F68BB93ACC2D";
shapes = (
{
closed = 1;
nodes = (
(22.305,205,l),
(34.187,276,l),
(427.618,667,l),
(486.618,667,l),
(419.011,263,l),
(516.011,263,l),
(506.305,205,l),
(409.305,205,l),
(375,0,l),
(318,0,l),
(352.305,205,l)
);
},
{
closed = 1;
nodes = (
(415.728,584,l),
(90.011,263,l),
(362.011,263,l)
);
}
);
width = 588;
}
);
unicode = 52;
},
{
glyphname = five;
layers = (
{
layerId = "2C0B2ACE-7C1A-4B57-8C98-FB1544B085A1";
name = "#instance";
shapes = (
{
closed = 1;
nodes = (
(537.873,59,o),
(439.657,-14,o),
(229.657,-14,cs),
(158.657,-14,o),
(81.004,6,o),
(20.857,35,c),
(96.452,176,l),
(151.934,149,o),
(204.926,137,o),
(254.926,137,cs),
(310.926,137,o),
(350.114,168,o),
(358.815,220,cs),
(366.178,264,o),
(312.191,282,o),
(275.191,282,cs),
(227.191,282,o),
(176.68,267,o),
(154.003,251,c),
(85.901,346,l),
(185.785,668,l),
(579.785,668,l),
(551.169,497,l),
(292.169,497,l),
(268.941,406,l),
(300.949,418,o),
(335.619,422,o),
(369.619,422,cs),
(487.619,422,o),
(588.745,363,o),
(567.66,237,cs)
);
}
);
width = 612;
},
{
layerId = "A4A8100D-CD7C-4210-8FBB-9BAC01333E3B";
shapes = (
{
closed = 1;
nodes = (
(537.873,59,o),
(439.657,-14,o),
(229.657,-14,cs),
(158.657,-14,o),
(81.004,6,o),
(20.857,35,c),
(96.452,176,l),
(151.934,149,o),
(204.926,137,o),
(254.926,137,cs),
(310.926,137,o),
(350.114,168,o),
(358.815,220,cs),
(366.178,264,o),
(312.191,282,o),
(275.191,282,cs),
(227.191,282,o),
(176.68,267,o),
(154.003,251,c),
(85.901,346,l),
(185.785,668,l),
(579.785,668,l),
(551.169,497,l),
(292.169,497,l),
(268.941,406,l),
(300.949,418,o),
(335.619,422,o),
(369.619,422,cs),
(487.619,422,o),
(588.745,363,o),
(567.66,237,cs)
);
}
);
width = 612;
},
{
layerId = "9C97EF7B-4204-4453-A40E-5E225C581DA5";
shapes = (
{
closed = 1;
nodes = (
(470.873,59,o),
(384.661,-8,o),
(218.661,-8,cs),
(152.661,-8,o),
(82.506,9,o),
(13.861,41,c),
(53.575,111,l),
(107.555,81,o),
(173.877,65,o),
(230.877,65,cs),
(345.877,65,o),
(397.738,106,o),
(414.305,205,cs),
(431.542,308,o),
(384.733,345,o),
(295.733,345,cs),
(249.733,345,o),
(176.386,325,o),
(136.709,309,c),
(96.076,359,l),
(183.618,667,l),
(529.618,667,l),
(516.732,590,l),
(236.732,590,l),
(179.431,391,l),
(221.272,402,o),
(287.615,416,o),
(319.615,416,cs),
(454.615,416,o),
(518.901,346,o),
(495.473,206,cs)
);
}
);
width = 570;
},
{
layerId = "4611C1FA-12BE-43C5-8830-F68BB93ACC2D";
shapes = (
{
closed = 1;
nodes = (
(457.873,59,o),
(372.829,-7,o),
(216.829,-7,cs),
(150.829,-7,o),
(82.506,9,o),
(12.028,42,c),
(45.4,98,l),
(98.212,67,o),
(167.534,51,o),
(226.534,51,cs),
(352.534,51,o),
(407.563,93,o),
(425.803,202,cs),
(445.048,317,o),
(398.741,357,o),
(299.741,357,cs),
(253.741,357,o),
(176.394,337,o),
(132.55,320,c),
(98.411,361,l),
(182.618,667,l),
(519.618,667,l),
(509.744,608,l),
(225.744,608,l),
(161.929,388,l),
(204.77,399,o),
(278.447,415,o),
(309.447,415,cs),
(447.447,415,o),
(505.399,343,o),
(481.469,200,cs)
);
}
);
width = 561;
}
);
unicode = 53;
},
{
glyphname = six;
layers = (
{
layerId = "2C0B2ACE-7C1A-4B57-8C98-FB1544B085A1";
name = "#instance";
shapes = (
{
closed = 1;
nodes = (
(568.041,60,o),
(458.657,-14,o),
(259.657,-14,cs),
(88.657,-14,o),
(3.575,111,o),
(36.709,309,cs),
(82.059,580,o),
(187.128,682,o),
(423.128,682,cs),
(488.128,682,o),
(560.948,663,o),
(612.761,632,c),
(531.835,495,l),
(485.851,519,o),
(437.859,531,o),
(397.859,531,cs),
(314.859,531,o),
(260.488,475,o),
(249.758,381,c),
(284.615,416,o),
(353.798,441,o),
(395.798,441,cs),
(543.798,441,o),
(617.574,356,o),
(593.644,213,cs)
);
},
{
closed = 1;
nodes = (
(399.513,266,o),
(377.37,301,o),
(335.37,301,cs),
(290.37,301,o),
(255.019,275,o),
(231.823,232,c),
(232.783,172,o),
(254.265,145,o),
(299.265,145,cs),
(353.265,145,o),
(383.281,169,o),
(391.313,217,cs)
);
}
);
width = 643;
},
{
layerId = "A4A8100D-CD7C-4210-8FBB-9BAC01333E3B";
shapes = (
{
closed = 1;
nodes = (
(568.041,60,o),
(458.657,-14,o),
(259.657,-14,cs),
(88.657,-14,o),
(3.575,111,o),
(36.709,309,cs),
(82.059,580,o),
(187.128,682,o),
(423.128,682,cs),
(488.128,682,o),
(560.948,663,o),
(612.761,632,c),
(531.835,495,l),
(485.851,519,o),
(437.859,531,o),
(397.859,531,cs),
(314.859,531,o),
(260.488,475,o),
(249.758,381,c),
(284.615,416,o),
(353.798,441,o),
(395.798,441,cs),
(543.798,441,o),
(617.574,356,o),
(593.644,213,cs)
);
},
{
closed = 1;
nodes = (
(399.513,266,o),
(377.37,301,o),
(335.37,301,cs),
(290.37,301,o),
(255.019,275,o),
(231.823,232,c),
(232.783,172,o),
(254.265,145,o),
(299.265,145,cs),
(353.265,145,o),
(383.281,169,o),
(391.313,217,cs)
);
}
);
width = 643;
},
{
layerId = "9C97EF7B-4204-4453-A40E-5E225C581DA5";
shapes = (
{
closed = 1;
nodes = (
(487.547,69,o),
(394.661,-8,o),
(242.661,-8,cs),
(97.661,-8,o),
(31.408,110,o),
(64.207,306,cs),
(105.875,555,o),
(210.124,676,o),
(385.124,676,cs),
(440.124,676,o),
(499.446,660,o),
(559.426,630,c),
(522.545,559,l),
(475.23,587,o),
(418.908,603,o),
(372.908,603,cs),
(272.908,603,o),
(186.679,512,o),
(159.256,378,c),
(206.276,408,o),
(277.623,428,o),
(329.623,428,cs),
(448.623,428,o),
(531.558,332,o),
(512.313,217,cs)
);
},
{
closed = 1;
nodes = (
(444.035,299,o),
(391.574,356,o),
(304.574,356,cs),
(247.574,356,o),
(187.558,332,o),
(145.035,299,c),
(120.763,142,o),
(156.045,66,o),
(255.045,66,cs),
(360.045,66,o),
(412.742,112,o),
(430.481,218,cs)
);
}
);
width = 587;
},
{
layerId = "4611C1FA-12BE-43C5-8830-F68BB93ACC2D";
shapes = (
{
closed = 1;
nodes = (
(470.881,71,o),
(381.829,-7,o),
(238.829,-7,cs),
(99.829,-7,o),
(37.408,110,o),
(70.039,305,cs),
(111.038,550,o),
(214.956,675,o),
(376.956,675,cs),
(429.956,675,o),
(487.279,659,o),
(548.259,629,c),
(520.72,572,l),
(472.406,600,o),
(415.25,617,o),
(367.25,617,cs),
(265.25,617,o),
(171.851,519,o),
(141.088,377,c),
(190.941,406,o),
(262.121,425,o),
(316.121,425,cs),
(430.121,425,o),
(513.721,327,o),
(495.481,218,cs)
);
},
{
closed = 1;
nodes = (
(453.039,305,o),
(394.415,367,o),
(298.415,367,cs),
(238.415,367,o),
(173.399,343,o),
(127.211,312,c),
(97.759,136,o),
(136.367,50,o),
(246.367,50,cs),
(361.367,50,o),
(418.902,101,o),
(438.481,218,cs)
);
}
);
width = 576;
}
);
unicode = 54;
},
{
glyphname = seven;
layers = (
{
layerId = "2C0B2ACE-7C1A-4B57-8C98-FB1544B085A1";
name = "#instance";
width = 571;
},
{
layerId = "A4A8100D-CD7C-4210-8FBB-9BAC01333E3B";
shapes = (
{
closed = 1;
nodes = (
(600.879,561,l),
(292,0,l),
(73,0,l),
(363.329,486,l),
(97.329,486,l),
(127.618,667,l),
(618.618,667,l)
);
}
);
width = 600;
},
{
layerId = "9C97EF7B-4204-4453-A40E-5E225C581DA5";
shapes = (
{
closed = 1;
nodes = (
(577.071,598,l),
(194,0,l),
(104,0,l),
(484.397,588,l),
(118.397,588,l),
(131.618,667,l),
(588.618,667,l)
);
}
);
width = 576;
},
{
layerId = "4611C1FA-12BE-43C5-8830-F68BB93ACC2D";
shapes = (
{
closed = 1;
nodes = (
(572.242,605,l),
(174,0,l),
(110,0,l),
(508.744,608,l),
(122.744,608,l),
(132.618,667,l),
(582.618,667,l)
);
}
);
width = 571;
}
);
unicode = 55;
},
{
glyphname = eight;
layers = (
{
layerId = "2C0B2ACE-7C1A-4B57-8C98-FB1544B085A1";
name = "#instance";
shapes = (
{
closed = 1;
nodes = (
(60.856,280,o),
(106.558,332,o),
(189.745,363,c),
(149.088,377,o),
(115.639,452,o),
(124.675,506,cs),
(143.418,618,o),
(219.956,675,o),
(350.956,675,cs),
(460.956,675,o),
(536.238,599,o),
(520.675,506,cs),
(509.129,437,o),
(458.084,371,o),
(410.913,364,c),
(468.227,336,o),
(506.011,263,o),
(495.469,200,cs),
(472.543,63,o),
(384.829,-7,o),
(236.829,-7,cs),
(113.829,-7,o),
(28.391,86,o),
(47.469,200,cs)
);
},
{
closed = 1;
nodes = (
(475.887,573,o),
(428.581,613,o),
(340.581,613,cs),
(237.581,613,o),
(193.728,584,o),
(181.01,508,cs),
(169.296,438,o),
(219.929,388,o),
(302.929,388,cs),
(400.929,388,o),
(451.121,425,o),
(465.01,508,cs)
);
},
{
closed = 1;
nodes = (
(452.685,273,o),
(394.386,325,o),
(292.386,325,cs),
(175.386,325,o),
(117.86,286,o),
(102.799,196,cs),
(88.575,111,o),
(147.702,52,o),
(246.702,52,cs),
(361.702,52,o),
(423.4,98,o),
(439.799,196,cs)
);
}
);
width = 574;
},
{
layerId = "A4A8100D-CD7C-4210-8FBB-9BAC01333E3B";
shapes = (
{
closed = 1;
nodes = (
(25.676,261,o),
(62.37,301,o),
(153.729,339,c),
(102.084,371,o),
(73.623,428,o),
(82.659,482,cs),
(105.752,620,o),
(202.128,682,o),
(390.128,682,cs),
(553.128,682,o),
(651.406,600,o),
(631.659,482,cs),
(619.945,412,o),
(592.758,381,o),
(510.896,340,c),
(571.542,308,o),
(610.664,243,o),
(600.791,184,cs),
(578.032,48,o),
(475.657,-14,o),
(273.657,-14,cs),
(97.657,-14,o),
(-7.123,65,o),
(12.791,184,cs)
);
},
{
closed = 1;
nodes = (
(427.169,497,o),
(398.696,536,o),
(365.696,536,cs),
(324.696,536,o),
(292.508,505,o),
(284.81,459,cs),
(279.455,427,o),
(309.929,388,o),
(340.929,388,cs),
(380.929,388,o),
(413.949,418,o),
(420.81,459,cs)
);
},
{
closed = 1;
nodes = (
(395.836,250,o),
(359.868,298,o),
(325.868,298,cs),
(284.868,298,o),
(242.509,260,o),
(234.979,215,cs),
(226.946,167,o),
(253.089,132,o),
(298.089,132,cs),
(351.089,132,o),
(380.44,158,o),
(389.979,215,cs)
);
}
);
width = 652;
},
{
layerId = "9C97EF7B-4204-4453-A40E-5E225C581DA5";
shapes = (
{
closed = 1;
nodes = (
(55.354,277,o),
(99.721,327,o),
(184.076,359,c),
(140.921,376,o),
(108.969,448,o),
(118.006,502,cs),
(137.418,618,o),
(217.124,676,o),
(357.124,676,cs),
(476.124,676,o),
(555.238,599,o),
(539.006,502,cs),
(527.459,433,o),
(480.419,373,o),
(427.243,360,c),
(485.39,331,o),
(523.509,260,o),
(512.966,197,cs),
(490.208,61,o),
(399.661,-8,o),
(242.661,-8,cs),
(111.661,-8,o),
(22.889,83,o),
(41.966,197,cs)
);
},
{
closed = 1;
nodes = (
(467.712,560,o),
(423.406,600,o),
(344.406,600,cs),
(252.406,600,o),
(210.553,571,o),
(198.671,500,cs),
(187.961,436,o),
(234.929,388,o),
(308.929,388,cs),
(397.929,388,o),
(444.953,424,o),
(457.671,500,cs)
);
},
{
closed = 1;
nodes = (
(443.015,269,o),
(388.717,321,o),
(297.717,321,cs),
(193.717,321,o),
(139.191,282,o),
(125.301,199,cs),
(112.081,120,o),
(164.877,65,o),
(254.877,65,cs),
(359.877,65,o),
(416.073,108,o),
(431.301,199,cs)
);
}
);
width = 587;
},
{
layerId = "4611C1FA-12BE-43C5-8830-F68BB93ACC2D";
shapes = (
{
closed = 1;
nodes = (
(60.856,280,o),
(106.558,332,o),
(189.745,363,c),
(149.088,377,o),
(115.639,452,o),
(124.675,506,cs),
(143.418,618,o),
(219.956,675,o),
(350.956,675,cs),
(460.956,675,o),
(536.238,599,o),
(520.675,506,cs),
(509.129,437,o),
(458.084,371,o),
(410.913,364,c),
(468.227,336,o),
(506.011,263,o),
(495.469,200,cs),
(472.543,63,o),
(384.829,-7,o),
(236.829,-7,cs),
(113.829,-7,o),
(28.391,86,o),
(47.469,200,cs)
);
},
{
closed = 1;
nodes = (
(475.887,573,o),
(428.581,613,o),
(340.581,613,cs),
(237.581,613,o),
(193.728,584,o),
(181.01,508,cs),
(169.296,438,o),
(219.929,388,o),
(302.929,388,cs),
(400.929,388,o),
(451.121,425,o),
(465.01,508,cs)
);
},
{
closed = 1;
nodes = (
(452.685,273,o),
(394.386,325,o),
(292.386,325,cs),
(175.386,325,o),
(117.86,286,o),
(102.799,196,cs),
(88.575,111,o),
(147.702,52,o),
(246.702,52,cs),
(361.702,52,o),
(423.4,98,o),
(439.799,196,cs)
);
}
);
width = 574;
}
);
unicode = 56;
},
{
glyphname = nine;
layers = (
{
layerId = "2C0B2ACE-7C1A-4B57-8C98-FB1544B085A1";
name = "#instance";
shapes = (
{
closed = 1;
nodes = (
(478.077,114,o),
(380.829,-7,o),
(219.829,-7,cs),
(149.829,-7,o),
(110.171,7,o),
(47.028,42,c),
(80.734,100,l),
(136.71,64,o),
(167.534,51,o),
(229.534,51,cs),
(325.534,51,o),
(393.918,125,o),
(445.86,286,c),
(385.84,256,o),
(336.664,243,o),
(275.664,243,cs),
(158.664,243,o),
(75.729,339,o),
(94.304,450,cs),
(119.238,599,o),
(206.956,675,o),
(352.956,675,cs),
(487.956,675,o),
(552.042,556,o),
(519.913,364,cs)
);
},
{
closed = 1;
nodes = (
(488.026,532,o),
(450.418,618,o),
(343.418,618,cs),
(228.418,618,o),
(170.051,568,o),
(150.304,450,cs),
(135.745,363,o),
(193.37,301,o),
(290.37,301,cs),
(343.37,301,o),
(400.382,319,o),
(462.407,355,c)
);
}
);
width = 580;
},
{
layerId = "A4A8100D-CD7C-4210-8FBB-9BAC01333E3B";
shapes = (
{
closed = 1;
nodes = (
(574.065,96,o),
(458.657,-14,o),
(228.657,-14,cs),
(154.657,-14,o),
(69.171,7,o),
(8.857,35,c),
(86.122,180,l),
(146.269,151,o),
(204.926,137,o),
(253.926,137,cs),
(346.926,137,o),
(397.628,189,o),
(405.529,290,c),
(363.501,248,o),
(292.987,227,o),
(238.987,227,cs),
(100.987,227,o),
(37.211,312,o),
(61.476,457,cs),
(86.242,605,o),
(194.128,682,o),
(375.128,682,cs),
(561.128,682,o),
(651.712,560,o),
(618.076,359,cs)
);
},
{
closed = 1;
nodes = (
(417.843,507,o),
(402.353,522,o),
(348.353,522,cs),
(300.353,522,o),
(272.504,499,o),
(264.472,451,cs),
(256.104,401,o),
(276.415,367,o),
(320.415,367,cs),
(373.415,367,o),
(405.096,389,o),
(424.3,444,c)
);
}
);
width = 646;
},
{
layerId = "9C97EF7B-4204-4453-A40E-5E225C581DA5";
shapes = (
{
closed = 1;
nodes = (
(494.575,111,o),
(393.661,-8,o),
(221.661,-8,cs),
(150.661,-8,o),
(103.171,7,o),
(40.861,41,c),
(81.91,113,l),
(138.22,79,o),
(173.877,65,o),
(233.877,65,cs),
(329.877,65,o),
(394.759,136,o),
(439.027,287,c),
(382.672,255,o),
(329.162,240,o),
(269.162,240,cs),
(149.162,240,o),
(69.06,335,o),
(88.472,451,cs),
(113.406,600,o),
(205.124,676,o),
(357.124,676,cs),
(500.124,676,o),
(569.21,557,o),
(536.745,363,cs)
);
},
{
closed = 1;
nodes = (
(476.357,528,o),
(441.74,602,o),
(344.74,602,cs),
(240.74,602,o),
(187.21,557,o),
(169.304,450,cs),
(155.749,369,o),
(207.211,312,o),
(295.211,312,cs),
(348.211,312,o),
(401.39,331,o),
(455.917,370,c)
);
}
);
width = 591;
},
{
layerId = "4611C1FA-12BE-43C5-8830-F68BB93ACC2D";
shapes = (
{
closed = 1;
nodes = (
(478.077,114,o),
(380.829,-7,o),
(219.829,-7,cs),
(149.829,-7,o),
(110.171,7,o),
(47.028,42,c),
(80.734,100,l),
(136.71,64,o),
(167.534,51,o),
(229.534,51,cs),
(325.534,51,o),
(393.918,125,o),
(445.86,286,c),
(385.84,256,o),
(336.664,243,o),
(275.664,243,cs),
(158.664,243,o),
(75.729,339,o),
(94.304,450,cs),
(119.238,599,o),
(206.956,675,o),
(352.956,675,cs),
(487.956,675,o),
(552.042,556,o),
(519.913,364,cs)
);
},
{
closed = 1;
nodes = (
(488.026,532,o),
(450.418,618,o),
(343.418,618,cs),
(228.418,618,o),
(170.051,568,o),
(150.304,450,cs),
(135.745,363,o),
(193.37,301,o),
(290.37,301,cs),
(343.37,301,o),
(400.382,319,o),
(462.407,355,c)
);
}
);
width = 580;
}
);
unicode = 57;
},
{
glyphname = zero.zero;
layers = (
{
layerId = "A4A8100D-CD7C-4210-8FBB-9BAC01333E3B";
shapes = (
{
closed = 1;
nodes = (
(268,139,l),
(231,214,l),
(426,524,l),
(457,442,l)
);
},
{
alignment = -1;
ref = zero;
}
);
width = 675;
},
{
layerId = "9C97EF7B-4204-4453-A40E-5E225C581DA5";
shapes = (
{
closed = 1;
nodes = (
(186,71,l),
(146,118,l),
(477,590,l),
(515,540,l)
);
},
{
alignment = -1;
ref = zero;
}
);
width = 648;
},
{
layerId = "4611C1FA-12BE-43C5-8830-F68BB93ACC2D";
shapes = (
{
closed = 1;
nodes = (
(169,57,l),
(129,99,l),
(487,603,l),
(526,560,l)
);
},
{
alignment = -1;
ref = zero;
}
);
width = 643;
}
);
},
{
glyphname = one.tf;
layers = (
{
layerId = "A4A8100D-CD7C-4210-8FBB-9BAC01333E3B";
shapes = (
{
closed = 1;
nodes = (
(425,169,l),
(555,169,l),
(527,0,l),
(42,0,l),
(70,169,l),
(224,169,l),
(277,486,l),
(137,431,l),
(112,573,l),
(335,667,l),
(509,667,l)
);
}
);
width = 650;
},
{
layerId = "9C97EF7B-4204-4453-A40E-5E225C581DA5";
shapes = (
{
closed = 1;
nodes = (
(343,79,l),
(526,79,l),
(513,0,l),
(59,0,l),
(72,79,l),
(262,79,l),
(347,584,l),
(175,512,l),
(157,582,l),
(363,667,l),
(442,667,l)
);
}
);
width = 650;
},
{
layerId = "4611C1FA-12BE-43C5-8830-F68BB93ACC2D";
shapes = (
{
closed = 1;
nodes = (
(327,61,l),
(520,61,l),
(510,0,l),
(62,0,l),
(72,61,l),
(270,61,l),
(361,604,l),
(182,528,l),
(166,584,l),
(369,667,l),
(429,667,l)
);
}
);
width = 650;
}
);
},
{
glyphname = zero.dnom;
layers = (
{
layerId = "2C0B2ACE-7C1A-4B57-8C98-FB1544B085A1";
name = "#instance";
shapes = (
{
closed = 1;
nodes = (
(54.211,312,o),
(101.913,364,o),
(200.913,364,cs),
(283.913,364,o),
(325.864,292,o),
(307.122,180,cs),
(285.2,49,o),
(236.331,-4,o),
(139.331,-4,cs),
(53.331,-4,o),
(13.045,66,o),
(32.122,180,cs)
);
},
{
closed = 1;
nodes = (
(267.676,261,o),
(242.55,320,o),
(193.55,320,cs),
(136.55,320,o),
(100.852,274,o),
(85.122,180,cs),
(71.065,96,o),
(95.694,40,o),
(146.694,40,cs),
(201.694,40,o),
(238.559,87,o),
(254.122,180,cs)
);
}
);
width = 379;
},
{
layerId = "A4A8100D-CD7C-4210-8FBB-9BAC01333E3B";
shapes = (
{
closed = 1;
nodes = (
(16.207,306,o),
(70.239,354,o),
(199.239,354,cs),
(311.239,354,o),
(363.195,288,o),
(343.448,170,cs),
(320.02,30,o),
(269.657,-14,o),
(137.657,-14,cs),
(27.657,-14,o),
(-26.131,53,o),
(-6.552,170,cs)
);
},
{
closed = 1;
nodes = (
(225.652,225,o),
(213.505,254,o),
(182.505,254,cs),
(146.505,254,o),
(129.823,232,o),
(119.448,170,cs),
(110.412,116,o),
(121.559,87,o),
(154.559,87,cs),
(187.559,87,o),
(206.575,111,o),
(216.448,170,cs)
);
}
);
width = 380;
},
{
layerId = "9C97EF7B-4204-4453-A40E-5E225C581DA5";
shapes = (
{
closed = 1;
nodes = (
(48.044,311,o),
(96.578,362,o),
(200.578,362,cs),
(288.578,362,o),
(331.697,291,o),
(312.787,178,cs),
(290.698,46,o),
(241.996,-6,o),
(138.996,-6,cs),
(48.996,-6,o),
(6.71,64,o),
(25.787,178,cs)
);
},
{
closed = 1;
nodes = (
(260.672,255,o),
(237.709,309,o),
(191.709,309,cs),
(138.709,309,o),
(105.68,267,o),
(90.787,178,cs),
(77.567,99,o),
(100.032,48,o),
(148.032,48,cs),
(200.032,48,o),
(233.228,91,o),
(247.787,178,cs)
);
}
);
width = 379;
},
{
layerId = "4611C1FA-12BE-43C5-8830-F68BB93ACC2D";
shapes = (
{
closed = 1;
nodes = (
(54.211,312,o),
(101.913,364,o),
(200.913,364,cs),
(283.913,364,o),
(325.864,292,o),
(307.122,180,cs),
(285.2,49,o),
(236.331,-4,o),
(139.331,-4,cs),
(53.331,-4,o),
(13.045,66,o),
(32.122,180,cs)
);
},
{
closed = 1;
nodes = (
(267.676,261,o),
(242.55,320,o),
(193.55,320,cs),
(136.55,320,o),
(100.852,274,o),
(85.122,180,cs),
(71.065,96,o),
(95.694,40,o),
(146.694,40,cs),
(201.694,40,o),
(238.559,87,o),
(254.122,180,c)
);
}
);
width = 379;
}
);
},
{
glyphname = one.dnom;
layers = (
{
layerId = "2C0B2ACE-7C1A-4B57-8C98-FB1544B085A1";
name = "#instance";
width = 221;
},
{
layerId = "A4A8100D-CD7C-4210-8FBB-9BAC01333E3B";
shapes = (
{
closed = 1;
nodes = (
(149,0,l),
(25,0,l),
(63.321,229,l),
(13.803,202,l),
(-20.805,288,l),
(102.076,359,l),
(209.076,359,l)
);
}
);
width = 254;
},
{
layerId = "9C97EF7B-4204-4453-A40E-5E225C581DA5";
shapes = (
{
closed = 1;
nodes = (
(106.167,1,l),
(43.167,1,l),
(89.187,276,l),
(39.668,249,l),
(18.533,296,l),
(127.243,360,l),
(166.243,360,l)
);
}
);
width = 227;
},
{
layerId = "4611C1FA-12BE-43C5-8830-F68BB93ACC2D";
shapes = (
{
closed = 1;
nodes = (
(97.167,1,l),
(47.167,1,l),
(94.693,285,l),
(44.174,258,l),
(25.868,298,l),
(132.243,360,l),
(157.243,360,l)
);
}
);
width = 221;
}
);
},
{
glyphname = two.dnom;
layers = (
{
layerId = "2C0B2ACE-7C1A-4B57-8C98-FB1544B085A1";
name = "#instance";
shapes = (
{
closed = 1;
nodes = (
(-7,0,l),
(7.057,84,l),
(83.591,135,o),
(158.783,172,o),
(167.317,223,cs),
(171.166,246,o),
(154.513,266,o),
(133.513,266,cs),
(112.513,266,o),
(77.672,255,o),
(57.832,244,c),
(34.721,327,l),
(88.239,354,o),
(125.913,364,o),
(182.913,364,cs),
(258.913,364,o),
(310.88,316,o),
(300.505,254,cs),
(291.971,203,o),
(241.767,148,o),
(194.077,114,c),
(278.077,114,l),
(259,0,l)
);
}
);
width = 339;
},
{
layerId = "A4A8100D-CD7C-4210-8FBB-9BAC01333E3B";
shapes = (
{
closed = 1;
nodes = (
(-7,0,l),
(7.057,84,l),
(83.591,135,o),
(158.783,172,o),
(167.317,223,cs),
(171.166,246,o),
(154.513,266,o),
(133.513,266,cs),
(112.513,266,o),
(77.672,255,o),
(57.832,244,c),
(34.721,327,l),
(88.239,354,o),
(125.913,364,o),
(182.913,364,cs),
(258.913,364,o),
(310.88,316,o),
(300.505,254,cs),
(291.971,203,o),
(241.767,148,o),
(194.077,114,c),
(278.077,114,l),
(259,0,l)
);
}
);
width = 339;
},
{
layerId = "9C97EF7B-4204-4453-A40E-5E225C581DA5";
shapes = (
{
closed = 1;
nodes = (
(2.167,1,l),
(9.53,45,l),
(98.4,98,o),
(188.791,184,o),
(199.836,250,cs),
(204.689,279,o),
(181.872,304,o),
(148.872,304,cs),
(110.872,304,o),
(74.019,275,o),
(73.187,276,c),
(54.888,328,l),
(83.068,347,o),
(123.913,364,o),
(165.913,364,cs),
(229.913,364,o),
(276.546,314,o),
(266.505,254,cs),
(255.962,191,o),
(198.416,122,o),
(118.208,61,c),
(242.208,61,l),
(232.167,1,l)
);
}
);
width = 329;
},
{
layerId = "4611C1FA-12BE-43C5-8830-F68BB93ACC2D";
shapes = (
{
closed = 1;
nodes = (
(4.167,1,l),
(10.192,37,l),
(101.061,90,o),
(195.126,186,o),
(206.672,255,cs),
(211.693,285,o),
(187.044,311,o),
(152.044,311,cs),
(110.044,311,o),
(72.689,279,o),
(76.191,282,c),
(58.888,328,l),
(81.733,345,o),
(122.913,364,o),
(161.913,364,cs),
(223.913,364,o),
(269.546,314,o),
(259.505,254,cs),
(248.46,188,o),
(189.579,117,o),
(103.367,50,c),
(234.367,50,l),
(226.167,1,l)
);
}
);
width = 327;
}
);
},
{
glyphname = three.dnom;
layers = (
{
layerId = "2C0B2ACE-7C1A-4B57-8C98-FB1544B085A1";
name = "#instance";
shapes = (
{
closed = 1;
nodes = (
(33.236,103,l),
(51.893,89,o),
(70.722,82,o),
(88.722,82,cs),
(118.722,82,o),
(140.73,94,o),
(144.412,116,cs),
(148.595,141,o),
(132.771,154,o),
(98.771,154,cs),
(59.771,154,l),
(71.317,223,l),
(112.317,223,ls),
(133.317,223,o),
(147.489,230,o),
(151.003,251,cs),
(154.685,273,o),
(127.187,276,o),
(111.187,276,cs),
(96.187,276,o),
(65.183,270,o),
(60.178,264,c),
(48.231,342,l),
(79.407,355,o),
(123.745,363,o),
(154.745,363,cs),
(228.745,363,o),
(293.721,327,o),
(283.178,264,cs),
(277.321,229,o),
(240.966,197,o),
(215.464,194,c),
(256.122,180,o),
(277.763,142,o),
(270.734,100,cs),
(258.016,24,o),
(178.331,-4,o),
(98.331,-4,cs),
(62.331,-4,o),
(17.837,5,o),
(-11.816,25,c)
);
}
);
width = 334;
},
{
layerId = "A4A8100D-CD7C-4210-8FBB-9BAC01333E3B";
shapes = (
{
closed = 1;
nodes = (
(33.236,103,l),
(51.893,89,o),
(70.722,82,o),
(88.722,82,cs),
(118.722,82,o),
(140.73,94,o),
(144.412,116,cs),
(148.595,141,o),
(132.771,154,o),
(98.771,154,cs),
(59.771,154,l),
(71.317,223,l),
(112.317,223,ls),
(133.317,223,o),
(147.489,230,o),
(151.003,251,cs),
(154.685,273,o),
(127.187,276,o),
(111.187,276,cs),
(96.187,276,o),
(65.183,270,o),
(60.178,264,c),
(48.231,342,l),
(79.407,355,o),
(123.745,363,o),
(154.745,363,cs),
(228.745,363,o),
(293.721,327,o),
(283.178,264,cs),
(277.321,229,o),
(240.966,197,o),
(215.464,194,c),
(256.122,180,o),
(277.763,142,o),
(270.734,100,cs),
(258.016,24,o),
(178.331,-4,o),
(98.331,-4,cs),
(62.331,-4,o),
(17.837,5,o),
(-11.816,25,c)
);
}
);
width = 334;
},
{
layerId = "9C97EF7B-4204-4453-A40E-5E225C581DA5";
shapes = (
{
closed = 1;
nodes = (
(24.881,71,l),
(52.706,58,o),
(78.702,52,o),
(101.702,52,cs),
(148.702,52,o),
(180.049,72,o),
(186.24,109,cs),
(193.603,153,o),
(151.444,164,o),
(101.444,164,cs),
(79.444,164,l),
(88.313,217,l),
(129.313,217,ls),
(158.313,217,o),
(186.991,233,o),
(192.68,267,cs),
(196.195,288,o),
(169.207,306,o),
(141.207,306,cs),
(118.207,306,o),
(92.868,298,o),
(71.864,292,c),
(58.399,343,l),
(84.407,355,o),
(125.913,364,o),
(154.913,364,cs),
(221.913,364,o),
(269.052,323,o),
(259.848,268,cs),
(253.823,232,o),
(225.473,206,o),
(200.632,195,c),
(230.791,184,o),
(258.607,159,o),
(249.236,103,cs),
(237.188,31,o),
(183.498,-3,o),
(98.498,-3,cs),
(67.498,-3,o),
(31.669,4,o),
(-4.82,19,c)
);
}
);
width = 324;
},
{
layerId = "4611C1FA-12BE-43C5-8830-F68BB93ACC2D";
shapes = (
{
closed = 1;
nodes = (
(22.877,65,l),
(52.702,52,o),
(79.698,46,o),
(103.698,46,cs),
(154.698,46,o),
(187.379,68,o),
(194.073,108,cs),
(201.938,155,o),
(154.779,166,o),
(101.779,166,cs),
(82.779,166,l),
(91.146,216,l),
(132.146,216,ls),
(163.146,216,o),
(194.991,233,o),
(201.183,270,cs),
(204.697,291,o),
(178.211,312,o),
(147.211,312,cs),
(122.211,312,o),
(98.872,304,o),
(73.868,298,c),
(60.399,343,l),
(85.407,355,o),
(125.913,364,o),
(154.913,364,cs),
(219.913,364,o),
(263.884,322,o),
(255.015,269,cs),
(248.991,233,o),
(222.807,208,o),
(197.632,195,c),
(225.958,185,o),
(254.11,162,o),
(244.236,103,cs),
(232.355,32,o),
(185.498,-3,o),
(98.498,-3,cs),
(68.498,-3,o),
(34.669,4,o),
(-2.988,18,c)
);
}
);
width = 322;
}
);
},
{
glyphname = four.dnom;
layers = (
{
layerId = "2C0B2ACE-7C1A-4B57-8C98-FB1544B085A1";
name = "#instance";
width = 314;
},
{
layerId = "A4A8100D-CD7C-4210-8FBB-9BAC01333E3B";
shapes = (
{
closed = 1;
nodes = (
(307.22,79,l),
(264.22,79,l),
(251,0,l),
(136,0,l),
(149.22,79,l),
(-20.78,79,l),
(-7.058,161,l),
(167.076,359,l),
(311.076,359,l),
(279.616,171,l),
(322.616,171,l)
);
},
{
closed = 1;
nodes = (
(176.664,243,l),
(109.616,171,l),
(164.616,171,l)
);
}
);
width = 354;
},
{
layerId = "9C97EF7B-4204-4453-A40E-5E225C581DA5";
shapes = (
{
closed = 1;
nodes = (
(252.396,92,l),
(201.396,92,l),
(186.167,1,l),
(124.167,1,l),
(139.396,92,l),
(-5.604,92,l),
(4.269,151,l),
(206.243,360,l),
(246.243,360,l),
(210.599,147,l),
(261.599,147,l)
);
},
{
closed = 1;
nodes = (
(165.668,249,l),
(62.599,147,l),
(148.599,147,l)
);
}
);
width = 321;
},
{
layerId = "4611C1FA-12BE-43C5-8830-F68BB93ACC2D";
shapes = (
{
closed = 1;
nodes = (
(240.898,95,l),
(188.898,95,l),
(173.167,1,l),
(122.167,1,l),
(137.898,95,l),
(-3.102,95,l),
(5.934,149,l),
(214.243,360,l),
(233.243,360,l),
(196.763,142,l),
(248.763,142,l)
);
},
{
closed = 1;
nodes = (
(163.836,250,l),
(52.763,142,l),
(145.763,142,l)
);
}
);
width = 314;
}
);
},
{
glyphname = five.dnom;
layers = (
{
layerId = "2C0B2ACE-7C1A-4B57-8C98-FB1544B085A1";
name = "#instance";
width = 318;
},
{
layerId = "A4A8100D-CD7C-4210-8FBB-9BAC01333E3B";
shapes = (
{
closed = 1;
nodes = (
(-15.155,17,l),
(32.738,106,l),
(50.893,89,o),
(74.387,80,o),
(96.387,80,cs),
(129.387,80,o),
(149.061,90,o),
(153.412,116,cs),
(157.093,138,o),
(135.436,152,o),
(113.436,152,cs),
(102.436,152,o),
(88.599,147,o),
(70.926,137,c),
(25.285,175,l),
(74.57,350,l),
(297.57,350,l),
(281.505,254,l),
(140.505,254,l),
(133.819,226,l),
(138.987,227,o),
(152.987,227,o),
(177.987,227,cs),
(246.987,227,o),
(293.293,187,o),
(281.077,114,cs),
(267.69,34,o),
(199.657,-14,o),
(114.657,-14,cs),
(70.657,-14,o),
(32.996,-6,o),
(0.506,9,c)
);
}
);
width = 326;
},
{
layerId = "9C97EF7B-4204-4453-A40E-5E225C581DA5";
shapes = (
{
closed = 1;
nodes = (
(3.849,23,l),
(35.551,75,l),
(52.543,63,o),
(90.869,53,o),
(116.869,53,cs),
(152.869,53,o),
(184.383,74,o),
(190.408,110,cs),
(197.101,150,o),
(171.783,172,o),
(129.783,172,cs),
(107.783,172,o),
(83.779,166,o),
(56.938,155,c),
(36.297,193,l),
(83.076,359,l),
(269.076,359,l),
(259.537,302,l),
(124.537,302,l),
(100.146,216,l),
(122.983,221,o),
(145.652,225,o),
(168.652,225,cs),
(221.652,225,o),
(265.624,183,o),
(253.742,112,cs),
(240.355,32,o),
(184.331,-4,o),
(115.331,-4,cs),
(74.331,-4,o),
(37.669,4,o),
(5.682,22,cs)
);
}
);
width = 319;
},
{
layerId = "4611C1FA-12BE-43C5-8830-F68BB93ACC2D";
shapes = (
{
closed = 1;
nodes = (
(36.547,69,l),
(52.706,58,o),
(93.865,47,o),
(120.865,47,cs),
(157.865,47,o),
(190.881,71,o),
(197.24,109,cs),
(204.436,152,o),
(178.452,176,o),
(132.452,176,cs),
(108.452,176,o),
(82.448,170,o),
(53.44,158,c),
(38.799,196,l),
(84.411,361,l),
(263.411,361,l),
(255.211,312,l),
(121.211,312,l),
(93.811,214,l),
(119.815,220,o),
(144.485,224,o),
(166.485,224,cs),
(216.485,224,o),
(259.456,182,o),
(247.575,111,cs),
(234.355,32,o),
(180.665,-2,o),
(115.665,-2,cs),
(74.665,-2,o),
(38.004,6,o),
(7.016,24,c)
);
}
);
width = 318;
}
);
},
{
glyphname = six.dnom;
layers = (
{
layerId = "2C0B2ACE-7C1A-4B57-8C98-FB1544B085A1";
name = "#instance";
shapes = (
{
closed = 1;
nodes = (
(29.039,305,o),
(86.913,364,o),
(199.913,364,cs),
(231.913,364,o),
(250.239,354,o),
(280.064,341,c),
(253.868,298,l),
(233.876,310,o),
(213.88,316,o),
(193.88,316,cs),
(124.88,316,o),
(80.019,275,o),
(64.799,196,c),
(95.481,218,o),
(127.321,229,o),
(160.321,229,cs),
(227.321,229,o),
(276.62,177,o),
(266.579,117,cs),
(253.359,38,o),
(206.498,-3,o),
(127.498,-3,cs),
(33.498,-3,o),
(-11.959,60,o),
(5.612,165,cs)
);
},
{
closed = 1;
nodes = (
(219.934,149,o),
(182.791,184,o),
(144.791,184,cs),
(100.791,184,o),
(66.44,158,o),
(54.101,150,c),
(43.726,88,o),
(72.698,46,o),
(125.698,46,cs),
(180.698,46,o),
(206.045,66,o),
(214.746,118,cs)
);
}
);
width = 337;
},
{
layerId = "A4A8100D-CD7C-4210-8FBB-9BAC01333E3B";
shapes = (
{
closed = 1;
nodes = (
(12.37,301,o),
(80.745,363,o),
(209.745,363,cs),
(249.745,363,o),
(286.407,355,o),
(315.896,340,c),
(274.844,262,l),
(256.019,275,o),
(233.191,282,o),
(204.191,282,cs),
(172.191,282,o),
(137.836,250,o),
(126.64,207,c),
(148.656,231,o),
(189.493,236,o),
(216.493,236,cs),
(270.493,236,o),
(307.126,186,o),
(297.253,127,cs),
(281.857,35,o),
(232.331,-4,o),
(128.331,-4,cs),
(20.331,-4,o),
(-28.796,55,o),
(-10.388,165,cs)
);
},
{
closed = 1;
nodes = (
(170.432,146,o),
(164.612,165,o),
(151.612,165,cs),
(138.612,165,o),
(120.432,146,o),
(115.089,132,c),
(108.898,95,o),
(115.212,67,o),
(130.212,67,cs),
(146.212,67,o),
(160.726,88,o),
(165.579,117,cs)
);
}
);
width = 347;
},
{
layerId = "9C97EF7B-4204-4453-A40E-5E225C581DA5";
shapes = (
{
closed = 1;
nodes = (
(25.872,304,o),
(85.913,364,o),
(201.913,364,cs),
(234.913,364,o),
(256.239,354,o),
(286.064,341,c),
(257.864,292,l),
(237.872,304,o),
(216.876,310,o),
(195.876,310,cs),
(132.876,310,o),
(89.35,271,o),
(75.134,198,c),
(104.815,220,o),
(137.489,230,o),
(169.489,230,cs),
(234.489,230,o),
(281.954,179,o),
(271.914,119,cs),
(258.359,38,o),
(210.498,-3,o),
(127.498,-3,cs),
(31.498,-3,o),
(-15.127,59,o),
(2.612,165,cs)
);
},
{
closed = 1;
nodes = (
(211.934,149,o),
(180.289,181,o),
(146.289,181,cs),
(107.289,181,o),
(75.105,156,o),
(64.599,147,c),
(54.893,89,o),
(79.367,50,o),
(126.367,50,cs),
(175.367,50,o),
(198.714,70,o),
(206.746,118,cs)
);
}
);
width = 339;
},
{
layerId = "4611C1FA-12BE-43C5-8830-F68BB93ACC2D";
shapes = (
{
closed = 1;
nodes = (
(29.039,305,o),
(86.913,364,o),
(199.913,364,cs),
(231.913,364,o),
(250.239,354,o),
(280.064,341,c),
(253.868,298,l),
(233.876,310,o),
(213.88,316,o),
(193.88,316,cs),
(124.88,316,o),
(80.019,275,o),
(64.799,196,c),
(95.481,218,o),
(127.321,229,o),
(160.321,229,cs),
(227.321,229,o),
(276.62,177,o),
(266.579,117,cs),
(253.359,38,o),
(206.498,-3,o),
(127.498,-3,cs),
(33.498,-3,o),
(-11.959,60,o),
(5.612,165,cs)
);
},
{
closed = 1;
nodes = (
(219.934,149,o),
(182.791,184,o),
(144.791,184,cs),
(100.791,184,o),
(66.44,158,o),
(54.101,150,c),
(43.726,88,o),
(72.698,46,o),
(125.698,46,cs),
(180.698,46,o),
(206.045,66,o),
(214.746,118,cs)
);
}
);
width = 337;
}
);
},
{
glyphname = seven.dnom;
layers = (
{
layerId = "2C0B2ACE-7C1A-4B57-8C98-FB1544B085A1";
name = "#instance";
width = 314;
},
{
layerId = "A4A8100D-CD7C-4210-8FBB-9BAC01333E3B";
shapes = (
{
closed = 1;
nodes = (
(307.537,302,l),
(138,0,l),
(2,0,l),
(152.334,247,l),
(27.334,247,l),
(46.076,359,l),
(317.076,359,l)
);
}
);
width = 322;
},
{
layerId = "9C97EF7B-4204-4453-A40E-5E225C581DA5";
shapes = (
{
closed = 1;
nodes = (
(288.884,322,l),
(92.167,1,l),
(25.167,1,l),
(206.701,297,l),
(39.701,297,l),
(50.243,360,l),
(295.243,360,l)
);
}
);
width = 315;
},
{
layerId = "4611C1FA-12BE-43C5-8830-F68BB93ACC2D";
shapes = (
{
closed = 1;
nodes = (
(285.554,326,l),
(83.167,1,l),
(29.167,1,l),
(217.374,307,l),
(42.374,307,l),
(51.243,360,l),
(291.243,360,l)
);
}
);
width = 314;
}
);
},
{
glyphname = eight.dnom;
layers = (
{
layerId = "2C0B2ACE-7C1A-4B57-8C98-FB1544B085A1";
name = "#instance";
shapes = (
{
closed = 1;
nodes = (
(21.934,149,o),
(56.624,183,o),
(89.632,195,c),
(69.469,200,o),
(50.162,240,o),
(55.685,273,cs),
(63.382,319,o),
(98.913,364,o),
(177.913,364,cs),
(239.913,364,o),
(273.709,309,o),
(267.685,273,cs),
(260.489,230,o),
(239.301,199,o),
(209.632,195,c),
(231.293,187,o),
(259.595,141,o),
(254.24,109,cs),
(242.359,38,o),
(199.498,-3,o),
(116.498,-3,cs),
(44.498,-3,o),
(5.869,53,o),
(15.24,109,cs)
);
},
{
closed = 1;
nodes = (
(216.199,294,o),
(199.88,316,o),
(169.88,316,cs),
(135.88,316,o),
(116.868,298,o),
(111.178,264,cs),
(107.497,242,o),
(125.815,220,o),
(153.815,220,cs),
(181.815,220,o),
(206.995,239,o),
(211.513,266,cs)
);
},
{
closed = 1;
nodes = (
(207.097,144,o),
(174.616,171,o),
(145.616,171,cs),
(105.616,171,o),
(76.934,149,o),
(69.906,107,cs),
(64.551,75,o),
(91.363,44,o),
(124.363,44,cs),
(168.363,44,o),
(193.877,65,o),
(200.906,107,cs)
);
}
);
width = 331;
},
{
layerId = "A4A8100D-CD7C-4210-8FBB-9BAC01333E3B";
shapes = (
{
closed = 1;
nodes = (
(-18.899,150,o),
(18.791,184,o),
(60.13,192,c),
(31.138,204,o),
(7.819,226,o),
(14.011,263,cs),
(24.554,326,o),
(98.745,363,o),
(181.745,363,cs),
(266.745,363,o),
(325.888,328,o),
(315.011,263,cs),
(309.321,229,o),
(277.971,203,o),
(246.13,192,c),
(283.791,184,o),
(311.599,147,o),
(304.404,104,cs),
(293.694,40,o),
(216.331,-4,o),
(120.331,-4,cs),
(22.331,-4,o),
(-37.641,38,o),
(-26.596,104,cs)
);
},
{
closed = 1;
nodes = (
(200.35,271,o),
(187.525,284,o),
(168.525,284,cs),
(148.525,284,o),
(134.517,272,o),
(131.17,252,cs),
(127.489,230,o),
(138.313,217,o),
(157.313,217,cs),
(178.313,217,o),
(192.819,226,o),
(197.003,251,cs)
);
},
{
closed = 1;
nodes = (
(181.424,134,o),
(170.101,150,o),
(146.101,150,cs),
(123.101,150,o),
(104.926,137,o),
(101.244,115,cs),
(97.563,93,o),
(108.383,74,o),
(133.383,74,cs),
(156.383,74,o),
(173.559,87,o),
(178.244,115,cs)
);
}
);
width = 343;
},
{
layerId = "9C97EF7B-4204-4453-A40E-5E225C581DA5";
shapes = (
{
closed = 1;
nodes = (
(14.934,149,o),
(50.624,183,o),
(84.632,195,c),
(62.636,201,o),
(42.828,238,o),
(48.35,271,cs),
(56.55,320,o),
(98.913,364,o),
(178.913,364,cs),
(244.913,364,o),
(282.211,312,o),
(275.35,271,cs),
(268.489,230,o),
(245.469,200,o),
(215.632,195,c),
(240.293,187,o),
(268.763,142,o),
(263.073,108,cs),
(251.359,38,o),
(201.498,-3,o),
(117.498,-3,cs),
(40.498,-3,o),
(-1.466,51,o),
(8.073,108,cs)
);
},
{
closed = 1;
nodes = (
(213.529,290,o),
(198.044,311,o),
(170.044,311,cs),
(138.044,311,o),
(120.199,294,o),
(114.844,262,cs),
(111.162,240,o),
(127.815,220,o),
(154.815,220,cs),
(181.815,220,o),
(204.66,237,o),
(209.178,264,cs)
);
},
{
closed = 1;
nodes = (
(202.763,142,o),
(174.114,168,o),
(146.114,168,cs),
(109.114,168,o),
(81.599,147,o),
(75.073,108,cs),
(70.053,78,o),
(94.2,49,o),
(126.2,49,cs),
(166.2,49,o),
(190.547,69,o),
(197.073,108,cs)
);
}
);
width = 333;
},
{
layerId = "4611C1FA-12BE-43C5-8830-F68BB93ACC2D";
shapes = (
{
closed = 1;
nodes = (
(21.934,149,o),
(56.624,183,o),
(89.632,195,c),
(69.469,200,o),
(50.162,240,o),
(55.685,273,cs),
(63.382,319,o),
(98.913,364,o),
(177.913,364,cs),
(239.913,364,o),
(273.709,309,o),
(267.685,273,cs),
(260.489,230,o),
(239.301,199,o),
(209.632,195,c),
(231.293,187,o),
(259.595,141,o),
(254.24,109,cs),
(242.359,38,o),
(199.498,-3,o),
(116.498,-3,cs),
(44.498,-3,o),
(5.869,53,o),
(15.24,109,cs)
);
},
{
closed = 1;
nodes = (
(216.199,294,o),
(199.88,316,o),
(169.88,316,cs),
(135.88,316,o),
(116.868,298,o),
(111.178,264,cs),
(107.497,242,o),
(125.815,220,o),
(153.815,220,cs),
(181.815,220,o),
(206.995,239,o),
(211.513,266,cs)
);
},
{
closed = 1;
nodes = (
(207.097,144,o),
(174.616,171,o),
(145.616,171,cs),
(105.616,171,o),
(76.934,149,o),
(69.906,107,cs),
(64.551,75,o),
(91.363,44,o),
(124.363,44,cs),
(168.363,44,o),
(193.877,65,o),
(200.906,107,cs)
);
}
);
width = 331;
}
);
},
{
glyphname = nine.dnom;
layers = (
{
layerId = "2C0B2ACE-7C1A-4B57-8C98-FB1544B085A1";
name = "#instance";
shapes = (
{
closed = 1;
nodes = (
(22.391,86,l),
(43.383,74,o),
(66.547,69,o),
(93.547,69,cs),
(128.547,69,o),
(162.232,97,o),
(171.265,145,c),
(141.244,115,o),
(116.742,112,o),
(79.742,112,cs),
(25.742,112,o),
(-10.723,163,o),
(-0.683,223,cs),
(14.546,314,o),
(65.239,354,o),
(167.239,354,cs),
(276.239,354,o),
(326.199,294,o),
(307.958,185,cs),
(282.857,35,o),
(224.657,-14,o),
(78.657,-14,cs),
(43.657,-14,o),
(25.159,-11,o),
(-12.331,4,c)
);
},
{
closed = 1;
nodes = (
(189.505,254,o),
(181.023,281,o),
(163.023,281,cs),
(151.023,281,o),
(137.342,259,o),
(132.991,233,cs),
(128.473,206,o),
(137.46,188,o),
(154.46,188,cs),
(163.46,188,o),
(175.469,200,o),
(183.146,216,c)
);
}
);
width = 349;
},
{
layerId = "A4A8100D-CD7C-4210-8FBB-9BAC01333E3B";
shapes = (
{
closed = 1;
nodes = (
(22.391,86,l),
(43.383,74,o),
(66.547,69,o),
(93.547,69,cs),
(128.547,69,o),
(162.232,97,o),
(171.265,145,c),
(141.244,115,o),
(116.742,112,o),
(79.742,112,cs),
(25.742,112,o),
(-10.723,163,o),
(-0.683,223,cs),
(14.546,314,o),
(65.239,354,o),
(167.239,354,cs),
(276.239,354,o),
(326.199,294,o),
(307.958,185,cs),
(282.857,35,o),
(224.657,-14,o),
(78.657,-14,cs),
(43.657,-14,o),
(25.159,-11,o),
(-12.331,4,c)
);
},
{
closed = 1;
nodes = (
(189.505,254,o),
(181.023,281,o),
(163.023,281,cs),
(151.023,281,o),
(137.342,259,o),
(132.991,233,cs),
(128.473,206,o),
(137.46,188,o),
(154.46,188,cs),
(163.46,188,o),
(175.469,200,o),
(183.146,216,c)
);
}
);
width = 349;
},
{
layerId = "9C97EF7B-4204-4453-A40E-5E225C581DA5";
shapes = (
{
closed = 1;
nodes = (
(32.881,71,l),
(48.208,61,o),
(78.702,52,o),
(105.702,52,cs),
(158.702,52,o),
(194.224,85,o),
(211.603,153,c),
(186.591,135,o),
(150.755,130,o),
(120.755,130,cs),
(52.755,130,o),
(5.779,166,o),
(18.33,241,cs),
(30.211,312,o),
(79.745,363,o),
(161.745,363,cs),
(267.745,363,o),
(303.537,302,o),
(285.632,195,cs),
(262.873,59,o),
(204.331,-4,o),
(98.331,-4,cs),
(68.331,-4,o),
(28.502,3,o),
(4.845,17,c)
);
},
{
closed = 1;
nodes = (
(233.358,283,o),
(209.211,312,o),
(160.211,312,cs),
(114.211,312,o),
(88.856,280,o),
(82.497,242,cs),
(76.64,207,o),
(98.122,180,o),
(133.122,180,cs),
(165.122,180,o),
(195.464,194,o),
(224.313,217,c)
);
}
);
width = 339;
},
{
layerId = "4611C1FA-12BE-43C5-8830-F68BB93ACC2D";
shapes = (
{
closed = 1;
nodes = (
(34.379,68,l),
(48.706,58,o),
(81.032,48,o),
(108.032,48,cs),
(164.032,48,o),
(200.889,83,o),
(219.938,155,c),
(195.261,139,o),
(157.257,133,o),
(128.257,133,cs),
(58.257,133,o),
(8.946,167,o),
(21.999,245,cs),
(33.211,312,o),
(83.08,365,o),
(161.08,365,cs),
(266.08,365,o),
(298.872,304,o),
(280.966,197,cs),
(258.71,64,o),
(199.665,-2,o),
(101.665,-2,cs),
(72.665,-2,o),
(29.004,6,o),
(8.347,20,c)
);
},
{
closed = 1;
nodes = (
(242.362,289,o),
(215.215,318,o),
(159.215,318,cs),
(106.215,318,o),
(79.525,284,o),
(72.832,244,cs),
(66.64,207,o),
(90.787,178,o),
(128.787,178,cs),
(165.787,178,o),
(199.297,193,o),
(232.313,217,c)
);
}
);
width = 337;
}
);
},
{
glyphname = fraction;
layers = (
{
layerId = "2C0B2ACE-7C1A-4B57-8C98-FB1544B085A1";
name = "#instance";
width = 147;
},
{
layerId = "A4A8100D-CD7C-4210-8FBB-9BAC01333E3B";
shapes = (
{
closed = 1;
nodes = (
(402.63,685,l),
(-122.682,-22,l),
(-246.682,-22,l),
(278.63,685,l)
);
}
);
width = 151;
},
{
layerId = "9C97EF7B-4204-4453-A40E-5E225C581DA5";
shapes = (
{
closed = 1;
nodes = (
(377.63,685,l),
(-147.682,-22,l),
(-219.682,-22,l),
(305.63,685,l)
);
}
);
width = 148;
},
{
layerId = "4611C1FA-12BE-43C5-8830-F68BB93ACC2D";
shapes = (
{
closed = 1;
nodes = (
(372.63,685,l),
(-152.682,-22,l),
(-214.682,-22,l),
(310.63,685,l)
);
}
);
width = 147;
}
);
unicode = 8260;
},
{
glyphname = period;
layers = (
{
layerId = "2C0B2ACE-7C1A-4B57-8C98-FB1544B085A1";
name = "#instance";
width = 260;
},
{
layerId = "A4A8100D-CD7C-4210-8FBB-9BAC01333E3B";
shapes = (
{
closed = 1;
nodes = (
(191,159,l),
(164,0,l),
(0,0,l),
(27,159,l)
);
}
);
width = 264;
},
{
layerId = "9C97EF7B-4204-4453-A40E-5E225C581DA5";
shapes = (
{
closed = 1;
nodes = (
(150,104,l),
(132,0,l),
(28,0,l),
(46,104,l)
);
}
);
width = 261;
},
{
layerId = "4611C1FA-12BE-43C5-8830-F68BB93ACC2D";
shapes = (
{
closed = 1;
nodes = (
(142,93,l),
(126,0,l),
(34,0,l),
(50,93,l)
);
}
);
width = 260;
}
);
leftKerningGroup = _period;
rightKerningGroup = _period;
unicode = 46;
},
{
glyphname = comma;
layers = (
{
layerId = "A4A8100D-CD7C-4210-8FBB-9BAC01333E3B";
shapes = (
{
closed = 1;
nodes = (
(-20,-95,l),
(51,-36,o),
(87,27,o),
(98,98,c),
(253,98,l),
(234,-15,o),
(178,-107,o),
(77,-181,c)
);
}
);
width = 367;
},
{
layerId = "9C97EF7B-4204-4453-A40E-5E225C581DA5";
shapes = (
{
closed = 1;
nodes = (
(23,-70,l),
(75,-20,o),
(105,30,o),
(115,85,c),
(198,85,l),
(184,2,o),
(136,-61,o),
(71,-123,c)
);
}
);
width = 317;
},
{
layerId = "4611C1FA-12BE-43C5-8830-F68BB93ACC2D";
shapes = (
{
closed = 1;
nodes = (
(32,-65,l),
(80,-17,o),
(109,31,o),
(118,82,c),
(187,82,l),
(174,5,o),
(127,-52,o),
(70,-111,c)
);
}
);
width = 307;
}
);
leftKerningGroup = _period;
rightKerningGroup = _period;
unicode = 44;
},
{
glyphname = colon;
layers = (
{
layerId = "2C0B2ACE-7C1A-4B57-8C98-FB1544B085A1";
name = "#instance";
width = 296;
},
{
layerId = "A4A8100D-CD7C-4210-8FBB-9BAC01333E3B";
shapes = (
{
closed = 1;
nodes = (
(269,444,l),
(245,296,l),
(91,296,l),
(115,444,l)
);
},
{
closed = 1;
nodes = (
(225,179,l),
(200,31,l),
(46,31,l),
(71,179,l)
);
}
);
width = 336;
},
{
layerId = "9C97EF7B-4204-4453-A40E-5E225C581DA5";
shapes = (
{
closed = 1;
nodes = (
(220,443,l),
(205,354,l),
(116,354,l),
(131,443,l)
);
},
{
closed = 1;
nodes = (
(168,133,l),
(153,44,l),
(64,44,l),
(79,133,l)
);
}
);
width = 303;
},
{
layerId = "4611C1FA-12BE-43C5-8830-F68BB93ACC2D";
shapes = (
{
closed = 1;
nodes = (
(210,443,l),
(197,365,l),
(121,365,l),
(134,443,l)
);
},
{
closed = 1;
nodes = (
(157,124,l),
(144,47,l),
(68,47,l),
(81,124,l)
);
}
);
width = 296;
}
);
unicode = 58;
},
{
glyphname = semicolon;
layers = (
{
layerId = "2C0B2ACE-7C1A-4B57-8C98-FB1544B085A1";
name = "#instance";
width = 281;
},
{
layerId = "A4A8100D-CD7C-4210-8FBB-9BAC01333E3B";
shapes = (
{
closed = 1;
nodes = (
(291,425,l),
(265,266,l),
(100,266,l),
(126,425,l)
);
},
{
closed = 1;
nodes = (
(-38,-95,l),
(28,-40,o),
(68,25,o),
(80,98,c),
(235,98,l),
(216,-16,o),
(162,-107,o),
(59,-181,c)
);
}
);
width = 319;
},
{
layerId = "9C97EF7B-4204-4453-A40E-5E225C581DA5";
shapes = (
{
closed = 1;
nodes = (
(234,440,l),
(217,336,l),
(112,336,l),
(129,440,l)
);
},
{
closed = 1;
nodes = (
(-16,-70,l),
(36,-22,o),
(66,29,o),
(76,85,c),
(159,85,l),
(145,3,o),
(99,-62,o),
(32,-123,c)
);
}
);
width = 287;
},
{
layerId = "4611C1FA-12BE-43C5-8830-F68BB93ACC2D";
shapes = (
{
closed = 1;
nodes = (
(222,443,l),
(207,350,l),
(114,350,l),
(129,443,l)
);
},
{
closed = 1;
nodes = (
(-12,-65,l),
(37,-18,o),
(66,30,o),
(75,82,c),
(144,82,l),
(131,7,o),
(86,-53,o),
(26,-111,c)
);
}
);
width = 281;
}
);
unicode = 59;
},
{
glyphname = ellipsis;
layers = (
{
layerId = "2C0B2ACE-7C1A-4B57-8C98-FB1544B085A1";
name = "#instance";
width = 680;
},
{
layerId = "A4A8100D-CD7C-4210-8FBB-9BAC01333E3B";
shapes = (
{
closed = 1;
nodes = (
(225,139,l),
(202,0,l),
(57,0,l),
(80,139,l)
);
},
{
closed = 1;
nodes = (
(487,139,l),
(464,0,l),
(320,0,l),
(343,139,l)
);
},
{
closed = 1;
nodes = (
(737,139,l),
(714,0,l),
(569,0,l),
(592,139,l)
);
}
);
width = 876;
},
{
layerId = "9C97EF7B-4204-4453-A40E-5E225C581DA5";
shapes = (
{
closed = 1;
nodes = (
(156,84,l),
(142,0,l),
(57,0,l),
(71,84,l)
);
},
{
closed = 1;
nodes = (
(359,84,l),
(345,0,l),
(262,0,l),
(276,84,l)
);
},
{
closed = 1;
nodes = (
(561,84,l),
(547,0,l),
(464,0,l),
(478,84,l)
);
}
);
width = 713;
},
{
layerId = "4611C1FA-12BE-43C5-8830-F68BB93ACC2D";
shapes = (
{
closed = 1;
nodes = (
(142,73,l),
(130,0,l),
(57,0,l),
(69,73,l)
);
},
{
closed = 1;
nodes = (
(333,73,l),
(321,0,l),
(250,0,l),
(262,73,l)
);
},
{
closed = 1;
nodes = (
(526,73,l),
(514,0,l),
(443,0,l),
(455,73,l)
);
}
);
width = 680;
}
);
leftKerningGroup = _period;
rightKerningGroup = _period;
unicode = 8230;
},
{
glyphname = exclam;
layers = (
{
layerId = "2C0B2ACE-7C1A-4B57-8C98-FB1544B085A1";
name = "#instance";
width = 365;
},
{
layerId = "A4A8100D-CD7C-4210-8FBB-9BAC01333E3B";
shapes = (
{
closed = 1;
nodes = (
(378,667,l),
(279,220,l),
(140,220,l),
(192,667,l)
);
},
{
closed = 1;
nodes = (
(281,141,l),
(257,0,l),
(94,0,l),
(118,141,l)
);
}
);
width = 431;
},
{
layerId = "9C97EF7B-4204-4453-A40E-5E225C581DA5";
shapes = (
{
closed = 1;
nodes = (
(297,667,l),
(206,181,l),
(136,181,l),
(208,667,l)
);
},
{
closed = 1;
nodes = (
(206,100,l),
(190,0,l),
(91,0,l),
(107,100,l)
);
}
);
width = 376;
},
{
layerId = "4611C1FA-12BE-43C5-8830-F68BB93ACC2D";
shapes = (
{
closed = 1;
nodes = (
(281,667,l),
(191,173,l),
(135,173,l),
(211,667,l)
);
},
{
closed = 1;
nodes = (
(191,92,l),
(176,0,l),
(90,0,l),
(105,92,l)
);
}
);
width = 365;
}
);
unicode = 33;
},
{
glyphname = exclamdown;
layers = (
{
layerId = "2C0B2ACE-7C1A-4B57-8C98-FB1544B085A1";
name = "#instance";
width = 354;
},
{
layerId = "A4A8100D-CD7C-4210-8FBB-9BAC01333E3B";
shapes = (
{
closed = 1;
nodes = (
(168,499,l),
(331,499,l),
(307,358,l),
(144,358,l)
);
},
{
closed = 1;
nodes = (
(146,279,l),
(285,279,l),
(233,-168,l),
(47,-168,l)
);
}
);
width = 435;
},
{
layerId = "9C97EF7B-4204-4453-A40E-5E225C581DA5";
shapes = (
{
closed = 1;
nodes = (
(168,499,l),
(267,499,l),
(250,399,l),
(151,399,l)
);
},
{
closed = 1;
nodes = (
(152,318,l),
(221,318,l),
(150,-168,l),
(60,-168,l)
);
}
);
width = 368;
},
{
layerId = "4611C1FA-12BE-43C5-8830-F68BB93ACC2D";
shapes = (
{
closed = 1;
nodes = (
(168,499,l),
(254,499,l),
(238,407,l),
(152,407,l)
);
},
{
closed = 1;
nodes = (
(153,326,l),
(208,326,l),
(133,-168,l),
(63,-168,l)
);
}
);
width = 354;
}
);
unicode = 161;
},
{
glyphname = question;
layers = (
{
layerId = "2C0B2ACE-7C1A-4B57-8C98-FB1544B085A1";
name = "#instance";
shapes = (
{
closed = 1;
nodes = (
(423,397,o),
(315,345,o),
(265,285,cs),
(250,267,o),
(240,246,o),
(236,221,cs),
(228,173,l),
(165,173,l),
(174,227,ls),
(183,282,o),
(215,315,o),
(284,375,cs),
(345,428,o),
(377,458,o),
(385,507,cs),
(395,569,o),
(344,614,o),
(264,614,cs),
(216,614,o),
(154,596,o),
(95,568,c),
(78,622,l),
(148,656,o),
(214,673,o),
(274,673,cs),
(384,673,o),
(458,600,o),
(442,507,cs)
);
},
{
closed = 1;
nodes = (
(139,92,l),
(225,92,l),
(210,0,l),
(124,0,l)
);
}
);
width = 480;
},
{
layerId = "A4A8100D-CD7C-4210-8FBB-9BAC01333E3B";
shapes = (
{
closed = 1;
nodes = (
(510,378,o),
(457,371,o),
(356,284,c),
(334,267,o),
(322,252,o),
(319,232,cs),
(314,205,l),
(163,205,l),
(167,230,l),
(185,319,o),
(215,352,o),
(274,403,cs),
(312,435,o),
(332,456,o),
(338,489,cs),
(344,523,o),
(322,545,o),
(285,545,cs),
(238,545,o),
(176,525,o),
(140,505,c),
(106,648,l),
(170,677,o),
(248,697,o),
(311,697,cs),
(453,697,o),
(553,604,o),
(534,489,c)
);
},
{
closed = 1;
nodes = (
(151,141,l),
(314,141,l),
(290,0,l),
(127,0,l)
);
}
);
width = 525;
},
{
layerId = "9C97EF7B-4204-4453-A40E-5E225C581DA5";
shapes = (
{
closed = 1;
nodes = (
(438,394,o),
(339,349,o),
(280,285,cs),
(264,267,o),
(254,247,o),
(250,223,cs),
(242,178,l),
(165,178,l),
(173,228,ls),
(183,288,o),
(215,321,o),
(282,380,cs),
(340,429,o),
(370,458,o),
(377,504,cs),
(387,561,o),
(340,603,o),
(268,603,cs),
(220,603,o),
(158,584,o),
(103,558,c),
(83,626,l),
(152,660,o),
(220,677,o),
(280,677,cs),
(396,677,o),
(474,601,o),
(457,504,cs)
);
},
{
closed = 1;
nodes = (
(141,100,l),
(240,100,l),
(223,0,l),
(125,0,l)
);
}
);
width = 488;
},
{
layerId = "4611C1FA-12BE-43C5-8830-F68BB93ACC2D";
shapes = (
{
closed = 1;
nodes = (
(423,397,o),
(315,345,o),
(265,285,cs),
(250,267,o),
(240,246,o),
(236,221,cs),
(228,173,l),
(165,173,l),
(174,227,ls),
(183,282,o),
(215,315,o),
(284,375,cs),
(345,428,o),
(377,458,o),
(385,507,cs),
(395,569,o),
(344,614,o),
(264,614,cs),
(216,614,o),
(154,596,o),
(95,568,c),
(78,622,l),
(148,656,o),
(214,673,o),
(274,673,cs),
(384,673,o),
(458,600,o),
(442,507,cs)
);
},
{
closed = 1;
nodes = (
(139,92,l),
(225,92,l),
(210,0,l),
(124,0,l)
);
}
);
width = 480;
}
);
unicode = 63;
},
{
glyphname = questiondown;
layers = (
{
layerId = "2C0B2ACE-7C1A-4B57-8C98-FB1544B085A1";
name = "#instance";
shapes = (
{
closed = 1;
nodes = (
(221,358,l),
(245,499,l),
(408,499,l),
(384,358,l)
);
},
{
closed = 1;
nodes = (
(22,100,o),
(68,138,o),
(139,186,cs),
(184,216,o),
(210,235,o),
(216,267,c),
(220,294,l),
(371,294,l),
(367,269,l),
(345,164,o),
(310,149,o),
(239,78,cs),
(216,55,o),
(201,37,o),
(197,10,cs),
(192,-24,o),
(212,-46,o),
(249,-46,cs),
(296,-46,o),
(359,-26,o),
(395,-6,c),
(429,-149,l),
(364,-178,o),
(287,-198,o),
(224,-198,cs),
(82,-198,o),
(-17,-105,o),
(2,10,c)
);
}
);
width = 524;
},
{
layerId = "A4A8100D-CD7C-4210-8FBB-9BAC01333E3B";
shapes = (
{
closed = 1;
nodes = (
(221,358,l),
(245,499,l),
(408,499,l),
(384,358,l)
);
},
{
closed = 1;
nodes = (
(22,100,o),
(68,138,o),
(139,186,cs),
(184,216,o),
(210,235,o),
(216,267,cs),
(220,294,l),
(371,294,l),
(367,269,l),
(345,164,o),
(310,149,o),
(239,78,c),
(216,55,o),
(201,37,o),
(197,10,cs),
(192,-24,o),
(212,-46,o),
(249,-46,cs),
(296,-46,o),
(359,-26,o),
(395,-6,c),
(429,-149,l),
(364,-178,o),
(287,-198,o),
(224,-198,cs),
(82,-198,o),
(-17,-105,o),
(2,10,c)
);
}
);
width = 524;
},
{
layerId = "9C97EF7B-4204-4453-A40E-5E225C581DA5";
shapes = (
{
closed = 1;
nodes = (
(227,399,l),
(244,499,l),
(343,499,l),
(326,399,l)
);
},
{
closed = 1;
nodes = (
(22,68,o),
(58,101,o),
(126,157,cs),
(180,202,o),
(208,226,o),
(218,276,c),
(225,321,l),
(303,321,l),
(295,272,ls),
(283,205,o),
(252,182,o),
(182,116,c),
(124,67,o),
(98,39,o),
(90,-5,cs),
(80,-62,o),
(125,-104,o),
(200,-104,cs),
(248,-104,o),
(310,-84,o),
(364,-58,c),
(384,-127,l),
(315,-160,o),
(248,-177,o),
(187,-177,cs),
(70,-177,o),
(-6,-103,o),
(10,-5,cs)
);
}
);
width = 488;
},
{
layerId = "4611C1FA-12BE-43C5-8830-F68BB93ACC2D";
shapes = (
{
closed = 1;
nodes = (
(228,407,l),
(244,499,l),
(330,499,l),
(314,407,l)
);
},
{
closed = 1;
nodes = (
(22,61,o),
(56,94,o),
(123,151,cs),
(179,199,o),
(208,224,o),
(218,278,cs),
(226,326,l),
(289,326,l),
(280,272,ls),
(270,213,o),
(240,189,o),
(170,124,c),
(106,69,o),
(77,39,o),
(69,-8,cs),
(58,-70,o),
(108,-115,o),
(190,-115,cs),
(238,-115,o),
(300,-96,o),
(358,-68,c),
(375,-123,l),
(305,-156,o),
(240,-173,o),
(180,-173,cs),
(67,-173,o),
(-4,-103,o),
(11,-8,cs)
);
}
);
width = 481;
}
);
unicode = 191;
},
{
glyphname = middot;
layers = (
{
layerId = "2C0B2ACE-7C1A-4B57-8C98-FB1544B085A1";
name = "#instance";
width = 305;
},
{
layerId = "A4A8100D-CD7C-4210-8FBB-9BAC01333E3B";
shapes = (
{
closed = 1;
nodes = (
(256.566,344,l),
(233.305,205,l),
(89.305,205,l),
(112.566,344,l)
);
}
);
width = 363;
},
{
layerId = "9C97EF7B-4204-4453-A40E-5E225C581DA5";
shapes = (
{
closed = 1;
nodes = (
(201.546,314,l),
(187.489,230,l),
(103.489,230,l),
(117.546,314,l)
);
}
);
width = 315;
},
{
layerId = "4611C1FA-12BE-43C5-8830-F68BB93ACC2D";
shapes = (
{
closed = 1;
nodes = (
(190.542,308,l),
(178.326,235,l),
(106.326,235,l),
(118.542,308,l)
);
}
);
width = 305;
}
);
unicode = 183;
},
{
glyphname = bullet;
layers = (
{
layerId = "2C0B2ACE-7C1A-4B57-8C98-FB1544B085A1";
name = "#instance";
width = 402;
},
{
layerId = "A4A8100D-CD7C-4210-8FBB-9BAC01333E3B";
shapes = (
{
closed = 1;
nodes = (
(367,561,l),
(527,324,l),
(287,85,l),
(42,85,l),
(122,561,l)
);
}
);
width = 531;
},
{
layerId = "9C97EF7B-4204-4453-A40E-5E225C581DA5";
shapes = (
{
closed = 1;
nodes = (
(274,465,l),
(367,325,l),
(226,183,l),
(85,183,l),
(133,465,l)
);
}
);
width = 424;
},
{
layerId = "4611C1FA-12BE-43C5-8830-F68BB93ACC2D";
shapes = (
{
closed = 1;
nodes = (
(255,446,l),
(335,325,l),
(214,203,l),
(94,203,l),
(135,446,l)
);
}
);
width = 402;
}
);
unicode = 8226;
},
{
glyphname = asterisk;
layers = (
{
layerId = "2C0B2ACE-7C1A-4B57-8C98-FB1544B085A1";
name = "#instance";
width = 411;
},
{
layerId = "A4A8100D-CD7C-4210-8FBB-9BAC01333E3B";
shapes = (
{
closed = 1;
nodes = (
(414,584,l),
(307,565,l),
(368,487,l),
(279,430,l),
(241,531,l),
(169,429,l),
(100,488,l),
(189,568,l),
(92,586,l),
(139,679,l),
(224,635,l),
(228,738,l),
(326,737,l),
(295,631,l),
(400,678,l)
);
}
);
width = 412;
},
{
layerId = "9C97EF7B-4204-4453-A40E-5E225C581DA5";
shapes = (
{
closed = 1;
nodes = (
(402,586,l),
(297,558,l),
(349,478,l),
(288,437,l),
(245,526,l),
(172,437,l),
(123,475,l),
(202,556,l),
(108,583,l),
(137,647,l),
(227,611,l),
(240,713,l),
(308,715,l),
(286,613,l),
(389,649,l)
);
}
);
width = 411;
},
{
layerId = "4611C1FA-12BE-43C5-8830-F68BB93ACC2D";
shapes = (
{
closed = 1;
nodes = (
(399,586,l),
(295,557,l),
(345,476,l),
(290,438,l),
(246,525,l),
(172,438,l),
(127,472,l),
(204,554,l),
(111,582,l),
(136,641,l),
(228,606,l),
(242,708,l),
(304,711,l),
(284,609,l),
(387,643,l)
);
}
);
width = 411;
}
);
unicode = 42;
},
{
glyphname = numbersign;
layers = (
{
layerId = "2C0B2ACE-7C1A-4B57-8C98-FB1544B085A1";
name = "#instance";
width = 709;
},
{
layerId = "A4A8100D-CD7C-4210-8FBB-9BAC01333E3B";
shapes = (
{
closed = 1;
nodes = (
(51,123,l),
(69,232,l),
(173,232,l),
(223,375,l),
(126,375,l),
(144,484,l),
(259,484,l),
(302,607,l),
(419,607,l),
(375,484,l),
(503,484,l),
(547,607,l),
(662,607,l),
(619,484,l),
(692,484,l),
(674,375,l),
(583,375,l),
(534,232,l),
(619,232,l),
(601,123,l),
(497,123,l),
(455,-1,l),
(340,-1,l),
(383,123,l),
(251,123,l),
(212,-1,l),
(95,-1,l),
(139,123,l)
);
},
{
closed = 1;
nodes = (
(466,375,l),
(338,375,l),
(288,232,l),
(421,232,l)
);
}
);
width = 741;
},
{
layerId = "9C97EF7B-4204-4453-A40E-5E225C581DA5";
shapes = (
{
closed = 1;
nodes = (
(52,129,l),
(64,205,l),
(175,205,l),
(239,393,l),
(129,393,l),
(142,468,l),
(265,468,l),
(312,610,l),
(389,610,l),
(342,468,l),
(500,468,l),
(548,610,l),
(625,610,l),
(577,468,l),
(663,468,l),
(650,393,l),
(551,393,l),
(487,205,l),
(583,205,l),
(571,129,l),
(462,129,l),
(418,0,l),
(341,0,l),
(385,129,l),
(227,129,l),
(182,0,l),
(105,0,l),
(150,129,l)
);
},
{
closed = 1;
nodes = (
(474,393,l),
(316,393,l),
(251,205,l),
(409,205,l)
);
}
);
width = 714;
},
{
layerId = "4611C1FA-12BE-43C5-8830-F68BB93ACC2D";
shapes = (
{
closed = 1;
nodes = (
(52,130,l),
(63,199,l),
(175,199,l),
(242,396,l),
(130,396,l),
(142,465,l),
(266,465,l),
(314,610,l),
(383,610,l),
(335,465,l),
(499,465,l),
(548,610,l),
(617,610,l),
(568,465,l),
(657,465,l),
(645,396,l),
(545,396,l),
(477,199,l),
(576,199,l),
(565,130,l),
(455,130,l),
(410,0,l),
(341,0,l),
(385,130,l),
(222,130,l),
(176,0,l),
(107,0,l),
(152,130,l)
);
},
{
closed = 1;
nodes = (
(476,396,l),
(311,396,l),
(244,199,l),
(407,199,l)
);
}
);
width = 709;
}
);
unicode = 35;
},
{
glyphname = slash;
layers = (
{
layerId = "2C0B2ACE-7C1A-4B57-8C98-FB1544B085A1";
name = "#instance";
width = 397;
},
{
layerId = "A4A8100D-CD7C-4210-8FBB-9BAC01333E3B";
shapes = (
{
closed = 1;
nodes = (
(555,756,l),
(44,-98,l),
(-80,-98,l),
(430,756,l)
);
}
);
width = 463;
},
{
layerId = "9C97EF7B-4204-4453-A40E-5E225C581DA5";
shapes = (
{
closed = 1;
nodes = (
(500,756,l),
(-11,-98,l),
(-80,-98,l),
(430,756,l)
);
}
);
width = 408;
},
{
layerId = "4611C1FA-12BE-43C5-8830-F68BB93ACC2D";
shapes = (
{
closed = 1;
nodes = (
(489,756,l),
(-22,-98,l),
(-80,-98,l),
(430,756,l)
);
}
);
width = 397;
}
);
unicode = 47;
},
{
glyphname = backslash;
layers = (
{
layerId = "2C0B2ACE-7C1A-4B57-8C98-FB1544B085A1";
name = "#instance";
width = 361;
},
{
layerId = "A4A8100D-CD7C-4210-8FBB-9BAC01333E3B";
shapes = (
{
closed = 1;
nodes = (
(165,756,l),
(389,-98,l),
(265,-98,l),
(40,756,l)
);
}
);
width = 430;
},
{
layerId = "9C97EF7B-4204-4453-A40E-5E225C581DA5";
shapes = (
{
closed = 1;
nodes = (
(110,756,l),
(334,-98,l),
(265,-98,l),
(40,756,l)
);
}
);
width = 373;
},
{
layerId = "4611C1FA-12BE-43C5-8830-F68BB93ACC2D";
shapes = (
{
closed = 1;
nodes = (
(99,756,l),
(323,-98,l),
(265,-98,l),
(40,756,l)
);
}
);
width = 361;
}
);
unicode = 92;
},
{
glyphname = period.ss01;
layers = (
{
layerId = "2C0B2ACE-7C1A-4B57-8C98-FB1544B085A1";
name = "#instance";
shapes = (
{
closed = 1;
nodes = (
(27.093,138,o),
(72.285,175,o),
(130.285,175,cs),
(177.285,175,o),
(219.085,126,o),
(211.22,79,cs),
(201.18,19,o),
(155.82,-19,o),
(97.82,-19,cs),
(50.82,-19,o),
(9.02,30,o),
(17.22,79,cs)
);
}
);
width = 301;
},
{
layerId = "A4A8100D-CD7C-4210-8FBB-9BAC01333E3B";
shapes = (
{
closed = 1;
nodes = (
(27.093,138,o),
(72.285,175,o),
(130.285,175,cs),
(177.285,175,o),
(219.085,126,o),
(211.22,79,cs),
(201.18,19,o),
(155.82,-19,o),
(97.82,-19,cs),
(50.82,-19,o),
(9.02,30,o),
(17.22,79,cs)
);
}
);
width = 301;
},
{
layerId = "9C97EF7B-4204-4453-A40E-5E225C581DA5";
shapes = (
{
closed = 1;
nodes = (
(38.559,87,o),
(66.408,110,o),
(101.408,110,cs),
(127.408,110,o),
(154.22,79,o),
(149.702,52,cs),
(143.51,15,o),
(114.829,-7,o),
(81.829,-7,cs),
(50.829,-7,o),
(27.682,22,o),
(32.702,52,cs)
);
}
);
width = 264;
},
{
layerId = "4611C1FA-12BE-43C5-8830-F68BB93ACC2D";
shapes = (
{
closed = 1;
nodes = (
(40.885,77,o),
(65.232,97,o),
(95.232,97,cs),
(118.232,97,o),
(140.714,70,o),
(136.865,47,cs),
(131.343,14,o),
(107.163,-5,o),
(78.163,-5,cs),
(51.163,-5,o),
(31.347,20,o),
(35.865,47,cs)
);
}
);
width = 256;
}
);
leftKerningGroup = _period;
rightKerningGroup = _period;
},
{
glyphname = colon.ss01;
layers = (
{
layerId = "2C0B2ACE-7C1A-4B57-8C98-FB1544B085A1";
name = "#instance";
shapes = (
{
closed = 1;
nodes = (
(110,409,o),
(147,442,o),
(202,442,cs),
(245,442,o),
(281,400,o),
(274,356,cs),
(265,303,o),
(227,269,o),
(173,269,cs),
(131,269,o),
(94,313,o),
(101,356,cs)
);
},
{
closed = 1;
nodes = (
(69,167,o),
(106,200,o),
(161,200,cs),
(204,200,o),
(240,158,o),
(233,114,cs),
(224,61,o),
(187,27,o),
(133,27,cs),
(91,27,o),
(53,71,o),
(60,114,cs)
);
}
);
width = 355;
},
{
layerId = "A4A8100D-CD7C-4210-8FBB-9BAC01333E3B";
shapes = (
{
closed = 1;
nodes = (
(110,409,o),
(147,442,o),
(202,442,cs),
(245,442,o),
(281,400,o),
(274,356,cs),
(265,303,o),
(227,269,o),
(173,269,cs),
(131,269,o),
(94,313,o),
(101,356,cs)
);
},
{
closed = 1;
nodes = (
(69,167,o),
(106,200,o),
(161,200,cs),
(204,200,o),
(240,158,o),
(233,114,cs),
(224,61,o),
(187,27,o),
(133,27,cs),
(91,27,o),
(53,71,o),
(60,114,cs)
);
}
);
width = 355;
},
{
layerId = "9C97EF7B-4204-4453-A40E-5E225C581DA5";
shapes = (
{
closed = 1;
nodes = (
(128,423,o),
(152,445,o),
(187,445,cs),
(213,445,o),
(238,416,o),
(233,389,c),
(228,355,o),
(203,333,o),
(169,333,cs),
(140,333,o),
(117,360,o),
(122,389,cs)
);
},
{
closed = 1;
nodes = (
(77,123,o),
(102,144,o),
(137,144,cs),
(163,144,o),
(188,116,o),
(183,89,cs),
(177,54,o),
(152,33,o),
(119,33,cs),
(90,33,o),
(66,59,o),
(72,89,c)
);
}
);
width = 325;
},
{
layerId = "4611C1FA-12BE-43C5-8830-F68BB93ACC2D";
shapes = (
{
closed = 1;
nodes = (
(131,426,o),
(153,445,o),
(184,445,cs),
(207,445,o),
(229,419,o),
(225,396,cs),
(220,365,o),
(198,346,o),
(168,346,cs),
(142,346,o),
(121,369,o),
(126,396,cs)
);
},
{
closed = 1;
nodes = (
(79,114,o),
(101,133,o),
(132,133,cs),
(155,133,o),
(177,107,o),
(173,84,cs),
(168,53,o),
(145,34,o),
(116,34,cs),
(90,34,o),
(69,57,o),
(74,84,cs)
);
}
);
width = 319;
}
);
},
{
glyphname = semicolon.ss01;
layers = (
{
layerId = "2C0B2ACE-7C1A-4B57-8C98-FB1544B085A1";
name = "#instance";
shapes = (
{
closed = 1;
nodes = (
(124,426,o),
(146,446,o),
(177,446,cs),
(201,446,o),
(221,421,o),
(218,398,cs),
(214,367,o),
(190,348,o),
(160,348,cs),
(134,348,o),
(116,372,o),
(120,398,cs)
);
},
{
closed = 1;
nodes = (
(-9,-65,l),
(39,-17,o),
(68,31,o),
(77,82,c),
(146,82,l),
(133,5,o),
(86,-52,o),
(29,-111,c)
);
}
);
width = 284;
},
{
layerId = "A4A8100D-CD7C-4210-8FBB-9BAC01333E3B";
shapes = (
{
closed = 1;
nodes = (
(92,399,o),
(137,436,o),
(193,436,cs),
(237,436,o),
(278,387,o),
(270,343,cs),
(260,287,o),
(217,249,o),
(162,249,cs),
(116,249,o),
(76,297,o),
(83,343,cs)
);
},
{
closed = 1;
nodes = (
(-61,-95,l),
(10,-36,o),
(46,27,o),
(57,98,c),
(212,98,l),
(193,-16,o),
(139,-107,o),
(36,-181,c)
);
}
);
width = 343;
},
{
layerId = "9C97EF7B-4204-4453-A40E-5E225C581DA5";
shapes = (
{
closed = 1;
nodes = (
(119,422,o),
(145,444,o),
(180,444,cs),
(207,444,o),
(231,415,o),
(227,389,cs),
(222,354,o),
(195,332,o),
(160,332,cs),
(131,332,o),
(109,360,o),
(114,389,cs)
);
},
{
closed = 1;
nodes = (
(-18,-70,l),
(34,-20,o),
(64,30,o),
(74,85,c),
(157,85,l),
(143,2,o),
(95,-61,o),
(30,-123,c)
);
}
);
width = 294;
},
{
layerId = "4611C1FA-12BE-43C5-8830-F68BB93ACC2D";
shapes = (
{
closed = 1;
nodes = (
(124,426,o),
(146,446,o),
(177,446,cs),
(201,446,o),
(221,421,o),
(218,398,cs),
(214,367,o),
(190,348,o),
(160,348,cs),
(134,348,o),
(116,372,o),
(120,398,cs)
);
},
{
closed = 1;
nodes = (
(-9,-65,l),
(39,-17,o),
(68,31,o),
(77,82,c),
(146,82,l),
(133,5,o),
(86,-52,o),
(29,-111,c)
);
}
);
width = 284;
}
);
},
{
glyphname = exclam.ss01;
layers = (
{
layerId = "2C0B2ACE-7C1A-4B57-8C98-FB1544B085A1";
name = "#instance";
shapes = (
{
closed = 1;
nodes = (
(290,667,l),
(200,173,l),
(144,173,l),
(220,667,l)
);
},
{
closed = 1;
nodes = (
(104,78,o),
(127,98,o),
(158,98,cs),
(182,98,o),
(204,71,o),
(200,48,cs),
(194,15,o),
(171,-4,o),
(141,-4,cs),
(115,-4,o),
(95,22,o),
(99,48,cs)
);
}
);
width = 383;
},
{
layerId = "A4A8100D-CD7C-4210-8FBB-9BAC01333E3B";
shapes = (
{
closed = 1;
nodes = (
(387,667,l),
(288,220,l),
(149,220,l),
(201,667,l)
);
},
{
closed = 1;
nodes = (
(105,130,o),
(149,167,o),
(208,167,cs),
(255,167,o),
(296,118,o),
(289,70,cs),
(280,10,o),
(235,-28,o),
(175,-28,cs),
(127,-28,o),
(87,21,o),
(95,70,cs)
);
}
);
width = 443;
},
{
layerId = "9C97EF7B-4204-4453-A40E-5E225C581DA5";
shapes = (
{
closed = 1;
nodes = (
(306,667,l),
(215,181,l),
(145,181,l),
(217,667,l)
);
},
{
closed = 1;
nodes = (
(104,87,o),
(131,110,o),
(166,110,cs),
(194,110,o),
(219,79,o),
(215,52,c),
(208,14,o),
(182,-8,o),
(147,-8,cs),
(117,-8,o),
(94,22,o),
(98,52,c)
);
}
);
width = 393;
},
{
layerId = "4611C1FA-12BE-43C5-8830-F68BB93ACC2D";
shapes = (
{
closed = 1;
nodes = (
(290,667,l),
(200,173,l),
(144,173,l),
(220,667,l)
);
},
{
closed = 1;
nodes = (
(104,78,o),
(127,98,o),
(158,98,cs),
(182,98,o),
(204,71,o),
(200,48,cs),
(194,15,o),
(171,-4,o),
(141,-4,cs),
(115,-4,o),
(95,22,o),
(99,48,cs)
);
}
);
width = 383;
}
);
},
